<svg width="556" height="556" viewBox="0 0 556 556" fill="none" xmlns="http://www.w3.org/2000/svg">
<g clip-path="url(#clip0_884_328)">
<mask id="mask0_884_328" style="mask-type:luminance" maskUnits="userSpaceOnUse" x="0" y="0" width="556" height="556">
<path d="M556 0H0V556H556V0Z" fill="white"/>
</mask>
<g mask="url(#mask0_884_328)">
<path d="M474.582 474.582C583.148 366.016 583.148 189.996 474.582 81.4302C366.016 -27.1356 189.996 -27.1356 81.4298 81.4302C-27.1363 189.996 -27.1363 366.016 81.4298 474.582C189.996 583.147 366.016 583.147 474.582 474.582Z" fill="#FEE475"/>
<path d="M469.566 469.564C575.357 363.774 575.357 192.253 469.566 86.4629C363.775 -19.3276 192.254 -19.3276 86.4634 86.4629C-19.3274 192.253 -19.3274 363.774 86.4634 469.564C192.254 575.355 363.775 575.355 469.566 469.564Z" fill="#FED425"/>
<path d="M338.273 215.731C338.631 216.554 338.814 217.451 338.81 218.357V239.63C338.797 246.287 337.329 252.849 334.521 258.796C331.714 264.744 327.645 269.913 322.636 273.895C314.633 280.577 306.449 286.858 298.07 293.169L280.027 306.532C277.66 308.364 274.751 309.226 271.836 308.959C270.331 308.774 268.858 308.365 267.459 307.746C266.211 307.083 265.002 306.339 263.84 305.518C247.465 293.561 231.09 281.612 215.097 269.055C207.858 263.587 200.814 257.912 193.582 252.244C192.63 251.637 191.866 250.816 190.9 250.217C188.229 248.011 186.404 244.843 185.766 241.308C185.598 240.367 185.532 239.409 185.572 238.452V219.178C185.601 218.362 185.535 217.544 185.377 216.744C185.323 216.626 185.296 216.497 185.297 216.366C185.295 216.233 185.323 216.102 185.379 215.984C185.435 215.866 185.517 215.764 185.619 215.688C185.719 215.611 185.833 215.558 185.954 215.531H186.142C186.187 215.872 186.249 216.21 186.329 216.544C186.489 218.531 187.298 220.395 188.615 221.812C189.572 223.096 190.734 224.191 192.047 225.046C211.082 240.244 230.507 255.028 250.119 269.619C254.69 273.067 259.443 276.293 264.014 279.741C265.861 281.116 267.918 282.14 270.093 282.768C272.647 283.417 275.331 283.133 277.714 281.961C278.602 281.539 279.434 280.994 280.188 280.341C292.748 270.818 305.128 261.495 317.723 251.98C320.196 250.152 322.482 248.332 324.747 246.312C330.709 240.616 335.063 233.265 337.322 225.082C337.67 223.687 337.926 222.268 338.086 220.835C338.248 220.035 338.313 219.217 338.28 218.4L338.273 215.731ZM270.489 186.356H275.053C282.459 186.948 289.631 189.375 295.999 193.444C300.309 196.226 304.33 199.485 307.997 203.167C310.441 205.401 312.059 208.488 312.562 211.876C313.074 215.189 312.606 218.589 311.221 221.605C310.839 222.612 310.263 223.426 309.881 224.232C309.695 224.628 309.374 224.933 308.983 225.083C308.593 225.234 308.163 225.218 307.783 225.039C307.595 225.039 307.595 224.839 307.407 224.839C306.067 223.826 304.726 223.019 303.218 221.984C297.766 217.872 291.622 214.915 285.121 213.275C280.951 212.232 276.654 211.89 272.386 212.261C263.674 212.946 255.307 216.171 248.202 221.584C245.521 223.604 242.679 225.225 239.824 227.252C239.636 227.252 239.636 227.452 239.442 227.452C239.3 227.43 239.168 227.36 239.066 227.252L223.067 215.709C222.716 215.489 222.398 215.215 222.122 214.895C221.907 214.75 221.751 214.523 221.686 214.26C221.615 214.001 221.631 213.722 221.733 213.475C221.733 213.275 221.927 213.275 222.122 213.075L222.497 212.661C227.068 209.427 231.445 205.765 236.01 202.317C239.926 199.253 243.993 196.415 248.195 193.815C253.084 190.929 258.344 188.82 263.806 187.555C265.983 186.85 268.235 186.44 270.509 186.334L270.489 186.356ZM262.077 187.99V152.391C262.087 151.722 262.223 151.062 262.475 150.449C262.727 149.837 263.09 149.283 263.545 148.821C264.456 147.89 265.674 147.377 266.936 147.394H276.635C277.893 147.365 279.11 147.868 280.021 148.792C280.931 149.716 281.461 150.987 281.495 152.326V187.305C275.026 186.52 268.485 186.741 262.077 187.962V187.99ZM338.488 275.08C338.856 275.901 339.051 276.797 339.058 277.707V299.386C338.896 308.933 335.839 318.168 330.344 325.713C327.959 328.902 325.21 331.76 322.16 334.222C314.117 340.904 305.772 347.186 297.36 353.496L280.603 365.853C279.167 366.922 277.548 367.681 275.837 368.087C273.554 368.702 271.142 368.486 268.987 367.473C267.436 366.87 265.964 366.054 264.61 365.046C245.95 351.483 227.29 337.699 208.978 323.315C203.267 318.86 197.583 314.406 191.839 309.752C189.011 307.568 187.106 304.284 186.537 300.614C186.368 299.674 186.303 298.715 186.343 297.759V278.121C186.374 277.373 186.311 276.624 186.155 275.894C185.967 275.287 186.343 274.673 186.731 274.673C186.731 275.087 186.919 275.287 186.919 275.694C187.134 277.926 188.084 280.005 189.6 281.562C190.521 282.623 191.543 283.58 192.65 284.417C212.45 300.215 232.826 315.605 253.176 330.603C256.963 333.458 260.79 336.064 264.409 338.705C265.952 339.971 267.693 340.938 269.55 341.561C270.947 342.061 272.423 342.267 273.894 342.167C275.363 342.06 276.798 341.646 278.116 340.947C279.05 340.488 279.947 339.948 280.798 339.333C294.505 328.983 308.218 318.632 321.925 308.138C329.503 302.31 335.059 293.978 337.73 284.438C338.135 282.839 338.453 281.216 338.682 279.577C338.312 278.111 338.248 276.576 338.495 275.08H338.488ZM277.889 410.968H266.494C265.139 410.955 263.843 410.371 262.891 409.344C261.939 408.316 261.408 406.929 261.413 405.486L262.137 363.162C263.125 361.677 264.467 360.499 266.025 359.75L281.877 356.48C282.025 356.481 282.173 356.513 282.31 356.575C282.447 356.636 282.571 356.726 282.676 356.838C282.78 356.951 282.863 357.085 282.919 357.231C282.975 357.378 283.004 357.535 283.003 357.694V405.521C283.001 406.962 282.466 408.343 281.513 409.366C280.561 410.388 279.268 410.969 277.915 410.982L277.889 410.968Z" fill="#F68E00"/>
<path d="M356.912 216.842C357.293 217.668 357.492 218.567 357.494 219.477V240.754C357.477 247.413 355.902 253.976 352.893 259.925C349.884 265.873 345.525 271.044 340.159 275.028C331.592 281.718 322.817 287.994 313.84 294.306L294.509 307.665C291.974 309.494 288.863 310.358 285.741 310.1C284.126 309.913 282.545 309.502 281.045 308.879C279.71 308.215 278.415 307.473 277.167 306.659C259.624 294.699 242.081 282.746 224.947 270.186C217.192 264.717 209.652 259.041 201.896 253.371C200.877 252.764 200.065 251.943 199.024 251.343C196.157 249.137 194.199 245.966 193.516 242.425C193.336 241.484 193.266 240.526 193.308 239.569V220.326C193.338 219.51 193.271 218.692 193.107 217.891C193.047 217.773 193.016 217.642 193.016 217.509C193.016 217.377 193.047 217.246 193.107 217.127C193.166 217.011 193.252 216.911 193.358 216.835C193.466 216.758 193.588 216.704 193.717 216.678H193.918C193.966 217.02 194.035 217.358 194.127 217.691C194.29 219.679 195.158 221.543 196.575 222.954C197.594 224.243 198.837 225.341 200.245 226.195C220.639 241.39 241.449 256.184 262.461 270.772C267.358 274.221 272.449 277.455 277.354 280.897C279.329 282.276 281.531 283.302 283.86 283.931C286.596 284.582 289.473 284.295 292.025 283.117C292.979 282.701 293.871 282.156 294.674 281.497C308.139 271.979 321.395 262.653 334.888 253.128C337.538 251.308 339.986 249.487 342.414 247.459C348.806 241.755 353.471 234.391 355.885 226.195C356.259 224.8 356.532 223.381 356.704 221.947C356.877 221.148 356.947 220.329 356.912 219.512V216.842ZM284.291 187.445H289.181C297.115 188.044 304.798 190.474 311.622 194.543C316.231 197.327 320.53 200.589 324.447 204.275C327.065 206.514 328.8 209.603 329.344 212.993C329.89 216.305 329.388 219.703 327.908 222.718C327.499 223.732 326.881 224.546 326.472 225.353C326.27 225.747 325.927 226.05 325.51 226.203C325.091 226.353 324.631 226.338 324.224 226.16C324.023 226.16 324.023 225.96 323.822 225.96C322.386 224.946 320.95 224.132 319.334 223.104C313.493 218.989 306.91 216.029 299.945 214.386C295.477 213.349 290.874 213.009 286.301 213.379C276.976 214.056 268.016 217.267 260.4 222.661C257.527 224.689 254.483 226.31 251.416 228.33C251.215 228.33 251.215 228.537 251.014 228.537C250.859 228.515 250.715 228.442 250.605 228.33L233.471 216.785C233.092 216.569 232.748 216.297 232.451 215.978C232.223 215.827 232.057 215.601 231.982 215.339C231.907 215.077 231.928 214.797 232.042 214.55C232.042 214.343 232.25 214.343 232.451 214.143L232.854 213.736C237.751 210.501 242.44 206.838 247.33 203.382C251.519 200.326 255.869 197.497 260.364 194.907C265.603 192.023 271.237 189.913 277.088 188.645C279.423 187.947 281.834 187.537 284.269 187.424L284.291 187.445ZM275.279 189.088V153.494C275.314 152.154 275.882 150.883 276.858 149.958C277.833 149.034 279.137 148.531 280.485 148.56H290.847C292.194 148.531 293.499 149.034 294.474 149.958C295.45 150.883 296.017 152.154 296.053 153.494V188.481C289.118 187.684 282.103 187.894 275.228 189.102L275.279 189.088ZM357.142 276.199C357.535 277.023 357.745 277.921 357.759 278.833V300.511C357.575 310.068 354.285 319.308 348.381 326.851C345.824 330.039 342.879 332.898 339.613 335.362C330.996 342.046 322.055 348.329 313.043 354.641L295.091 367.001C293.55 368.064 291.816 368.821 289.985 369.229C287.539 369.842 284.957 369.629 282.646 368.622C280.983 368.017 279.406 367.199 277.957 366.187C257.965 352.62 237.974 338.84 218.391 324.452C212.273 319.997 206.183 315.541 200.029 310.886C197.005 308.697 194.965 305.415 194.349 301.746C194.171 300.805 194.103 299.847 194.148 298.89V279.255C194.176 278.508 194.106 277.762 193.94 277.034C193.739 276.42 194.148 275.813 194.557 275.813C194.557 276.22 194.758 276.42 194.758 276.827C194.989 279.061 196.006 281.143 197.631 282.703C198.622 283.761 199.716 284.718 200.898 285.559C222.111 301.361 243.941 316.755 265.742 331.749C269.8 334.606 273.9 337.219 277.778 339.854C279.429 341.122 281.294 342.089 283.285 342.71C284.78 343.216 286.36 343.424 287.935 343.319C289.51 343.215 291.049 342.802 292.463 342.103C293.463 341.644 294.424 341.104 295.335 340.489C310.02 330.136 324.712 319.782 339.398 309.279C347.514 303.45 353.466 295.12 356.33 285.581C356.764 283.978 357.104 282.352 357.35 280.711C356.934 279.246 356.846 277.708 357.091 276.206L357.142 276.199ZM292.226 412.127H280.018C278.568 412.112 277.183 411.528 276.163 410.503C275.144 409.477 274.573 408.092 274.575 406.65L275.35 364.309C276.413 362.829 277.85 361.654 279.515 360.903L296.498 357.633C296.658 357.633 296.815 357.664 296.962 357.725C297.109 357.787 297.242 357.877 297.353 357.99C297.465 358.103 297.554 358.236 297.615 358.383C297.675 358.53 297.706 358.688 297.705 358.847V406.686C297.701 408.125 297.128 409.505 296.11 410.527C295.091 411.549 293.709 412.132 292.262 412.148L292.226 412.127Z" fill="#FFEA94"/>
<path d="M415.26 417.101C493.619 338.743 495.942 214.024 420.45 138.532C344.958 63.0403 220.238 65.3639 141.88 143.722C63.5219 222.08 61.1982 346.8 136.69 422.291C212.182 497.783 336.902 495.459 415.26 417.101Z" fill="black"/>
<path opacity="0.98" d="M417.122 418.838C495.986 339.974 497.275 213.399 420.001 136.126C342.727 58.8519 216.153 60.1411 137.288 139.005C58.4242 217.869 57.135 344.443 134.409 421.717C211.683 498.991 338.258 497.701 417.122 418.838Z" fill="#FFBD00"/>
<path d="M367.422 216.826C367.843 217.74 368.062 218.732 368.064 219.737V243.247C368.046 250.604 366.306 257.856 362.981 264.428C359.657 271.001 354.84 276.714 348.911 281.115C339.446 288.507 329.75 295.442 319.832 302.416L298.473 317.177C295.672 319.197 292.235 320.151 288.786 319.867C287.001 319.66 285.255 319.206 283.597 318.518C282.122 317.783 280.691 316.964 279.312 316.064C259.929 302.85 240.546 289.643 221.615 275.766C213.046 269.723 204.715 263.451 196.146 257.187C195.02 256.517 194.123 255.61 192.973 254.947C189.805 252.509 187.641 249.005 186.887 245.093C186.687 244.054 186.61 242.995 186.657 241.938V220.676C186.69 219.774 186.616 218.871 186.435 217.986C186.368 217.855 186.334 217.711 186.334 217.564C186.334 217.417 186.368 217.273 186.435 217.142C186.5 217.014 186.595 216.903 186.712 216.818C186.831 216.734 186.966 216.675 187.109 216.645H187.331C187.384 217.023 187.46 217.397 187.561 217.765C187.742 219.961 188.701 222.021 190.267 223.579C191.393 225.004 192.766 226.217 194.321 227.161C216.854 243.949 239.848 260.296 263.063 276.413C268.474 280.224 274.1 283.798 279.519 287.6C281.701 289.124 284.134 290.258 286.707 290.953C289.73 291.672 292.909 291.355 295.728 290.054C296.783 289.594 297.768 288.991 298.656 288.263C313.533 277.747 328.179 267.443 343.087 256.919C346.015 254.907 348.721 252.896 351.402 250.655C358.465 244.353 363.62 236.217 366.287 227.161C366.7 225.62 367.002 224.051 367.191 222.467C367.383 221.584 367.46 220.68 367.422 219.777V216.826ZM287.183 184.347H292.586C301.352 185.008 309.842 187.693 317.381 192.188C322.473 195.264 327.223 198.869 331.551 202.941C334.444 205.415 336.361 208.828 336.962 212.574C337.565 216.233 337.011 219.987 335.375 223.319C334.923 224.439 334.241 225.339 333.789 226.23C333.566 226.665 333.186 227.001 332.725 227.169C332.263 227.335 331.755 227.318 331.305 227.122C331.083 227.122 331.083 226.901 330.861 226.901C329.274 225.781 327.687 224.881 325.902 223.745C319.448 219.198 312.175 215.928 304.48 214.112C299.543 212.967 294.457 212.591 289.405 213C279.101 213.748 269.201 217.296 260.786 223.256C257.612 225.497 254.248 227.287 250.86 229.52C250.638 229.52 250.638 229.749 250.416 229.749C250.244 229.724 250.085 229.643 249.964 229.52L231.033 216.763C230.614 216.525 230.234 216.225 229.906 215.872C229.654 215.705 229.47 215.455 229.387 215.166C229.304 214.877 229.328 214.567 229.454 214.294C229.454 214.065 229.684 214.065 229.906 213.844L230.351 213.395C235.762 209.821 240.943 205.774 246.346 201.955C250.973 198.579 255.78 195.453 260.746 192.591C266.535 189.404 272.76 187.073 279.225 185.672C281.804 184.901 284.469 184.447 287.159 184.323L287.183 184.347ZM277.226 186.161V146.834C277.265 145.353 277.892 143.949 278.97 142.928C280.048 141.906 281.489 141.35 282.978 141.382H294.427C295.916 141.35 297.357 141.906 298.435 142.928C299.512 143.949 300.14 145.353 300.179 146.834V185.491C292.517 184.611 284.766 184.842 277.17 186.177L277.226 186.161ZM367.675 282.409C368.109 283.32 368.342 284.312 368.358 285.32V309.272C368.154 319.831 364.519 330.041 357.996 338.375C355.171 341.897 351.917 345.055 348.308 347.779C338.787 355.163 328.909 362.105 318.952 369.08L299.116 382.736C297.413 383.911 295.498 384.747 293.475 385.197C290.772 385.875 287.919 385.639 285.366 384.527C283.528 383.859 281.786 382.954 280.185 381.836C258.096 366.847 236.008 351.621 214.371 335.724C207.611 330.801 200.883 325.878 194.083 320.735C190.742 318.316 188.488 314.69 187.807 310.637C187.61 309.597 187.536 308.538 187.585 307.481V285.786C187.616 284.961 187.538 284.137 187.355 283.332C187.133 282.654 187.585 281.983 188.037 281.983C188.037 282.433 188.26 282.654 188.26 283.103C188.514 285.572 189.638 287.872 191.433 289.596C192.528 290.765 193.737 291.822 195.043 292.752C218.481 310.211 242.601 327.22 266.689 343.787C271.172 346.942 275.702 349.83 279.987 352.741C281.811 354.143 283.872 355.211 286.072 355.897C287.723 356.456 289.469 356.685 291.21 356.57C292.95 356.455 294.65 355.998 296.212 355.226C297.317 354.719 298.379 354.123 299.386 353.443C315.611 342.004 331.845 330.565 348.07 318.96C357.037 312.52 363.614 303.315 366.779 292.775C367.258 291.005 367.634 289.208 367.906 287.395C367.446 285.776 367.349 284.077 367.62 282.417L367.675 282.409ZM295.95 432.595H282.462C280.86 432.579 279.329 431.934 278.203 430.8C277.077 429.667 276.446 428.138 276.448 426.544L277.305 379.761C278.479 378.126 280.067 376.828 281.907 375.998L300.671 372.385C300.847 372.385 301.021 372.42 301.183 372.487C301.346 372.555 301.492 372.654 301.615 372.78C301.74 372.904 301.838 373.052 301.905 373.214C301.971 373.377 302.005 373.551 302.004 373.726V426.584C302 428.174 301.367 429.698 300.242 430.827C299.116 431.957 297.589 432.6 295.99 432.619L295.95 432.595Z" fill="#AC5403"/>
<g filter="url(#filter0_f_884_328)">
<path d="M364.422 204.826C364.843 205.74 365.062 206.732 365.064 207.737V231.247C365.046 238.604 363.306 245.856 359.981 252.428C356.657 259.001 351.84 264.714 345.911 269.115C336.446 276.507 326.75 283.442 316.832 290.416L295.473 305.177C292.672 307.197 289.235 308.151 285.786 307.867C284.001 307.66 282.255 307.206 280.597 306.518C279.122 305.783 277.691 304.964 276.312 304.064C256.929 290.85 237.546 277.643 218.615 263.766C210.046 257.723 201.715 251.451 193.146 245.187C192.02 244.517 191.123 243.61 189.973 242.947C186.805 240.509 184.641 237.005 183.887 233.093C183.687 232.054 183.61 230.995 183.657 229.938V208.676C183.69 207.774 183.616 206.871 183.435 205.986C183.368 205.855 183.334 205.711 183.334 205.564C183.334 205.417 183.368 205.273 183.435 205.142C183.5 205.014 183.595 204.903 183.712 204.818C183.831 204.734 183.966 204.675 184.109 204.645H184.331C184.384 205.023 184.46 205.397 184.561 205.765C184.742 207.961 185.701 210.021 187.267 211.579C188.393 213.004 189.766 214.217 191.321 215.161C213.854 231.949 236.848 248.296 260.063 264.413C265.474 268.224 271.1 271.798 276.519 275.6C278.701 277.124 281.134 278.258 283.707 278.953C286.73 279.672 289.909 279.355 292.728 278.054C293.783 277.594 294.768 276.991 295.656 276.263C310.533 265.747 325.179 255.443 340.087 244.919C343.015 242.907 345.721 240.896 348.402 238.655C355.465 232.353 360.62 224.217 363.287 215.161C363.7 213.62 364.002 212.051 364.191 210.467C364.383 209.584 364.46 208.68 364.422 207.777V204.826ZM284.183 172.347H289.586C298.352 173.008 306.842 175.693 314.381 180.188C319.473 183.264 324.223 186.869 328.551 190.941C331.444 193.415 333.361 196.828 333.962 200.574C334.565 204.233 334.011 207.987 332.375 211.319C331.923 212.439 331.241 213.339 330.789 214.23C330.566 214.665 330.186 215.001 329.725 215.169C329.263 215.335 328.755 215.318 328.305 215.122C328.083 215.122 328.083 214.901 327.861 214.901C326.274 213.781 324.687 212.881 322.902 211.745C316.448 207.198 309.175 203.928 301.48 202.112C296.543 200.967 291.457 200.591 286.405 201C276.101 201.748 266.201 205.296 257.786 211.256C254.612 213.497 251.248 215.287 247.86 217.52C247.638 217.52 247.638 217.749 247.416 217.749C247.244 217.724 247.085 217.643 246.964 217.52L228.033 204.763C227.614 204.525 227.234 204.225 226.906 203.872C226.654 203.705 226.47 203.455 226.387 203.166C226.304 202.877 226.328 202.567 226.454 202.294C226.454 202.065 226.684 202.065 226.906 201.844L227.351 201.395C232.762 197.821 237.943 193.774 243.346 189.955C247.973 186.579 252.78 183.453 257.746 180.591C263.535 177.404 269.76 175.073 276.225 173.672C278.804 172.901 281.469 172.447 284.159 172.323L284.183 172.347ZM274.226 174.161V134.834C274.265 133.353 274.892 131.949 275.97 130.928C277.048 129.906 278.489 129.35 279.978 129.382H291.427C292.916 129.35 294.357 129.906 295.435 130.928C296.512 131.949 297.14 133.353 297.179 134.834V173.491C289.517 172.611 281.766 172.842 274.17 174.177L274.226 174.161ZM364.675 270.409C365.109 271.32 365.342 272.312 365.358 273.32V297.272C365.154 307.831 361.519 318.041 354.996 326.375C352.171 329.897 348.917 333.055 345.308 335.779C335.787 343.163 325.909 350.105 315.952 357.08L296.116 370.736C294.413 371.911 292.498 372.747 290.475 373.197C287.772 373.875 284.919 373.639 282.366 372.527C280.528 371.859 278.786 370.954 277.185 369.836C255.096 354.847 233.008 339.621 211.371 323.724C204.611 318.801 197.883 313.878 191.083 308.735C187.742 306.316 185.488 302.69 184.807 298.637C184.61 297.597 184.536 296.538 184.585 295.481V273.786C184.616 272.961 184.538 272.137 184.355 271.332C184.133 270.654 184.585 269.983 185.037 269.983C185.037 270.433 185.26 270.654 185.26 271.103C185.514 273.572 186.638 275.872 188.433 277.596C189.528 278.765 190.737 279.822 192.043 280.752C215.481 298.211 239.601 315.22 263.689 331.787C268.172 334.942 272.702 337.83 276.987 340.741C278.811 342.143 280.872 343.211 283.072 343.897C284.723 344.456 286.469 344.685 288.21 344.57C289.95 344.455 291.65 343.998 293.212 343.226C294.317 342.719 295.379 342.123 296.386 341.443C312.611 330.004 328.845 318.565 345.07 306.96C354.037 300.52 360.614 291.315 363.779 280.775C364.258 279.005 364.634 277.208 364.906 275.395C364.446 273.776 364.349 272.077 364.62 270.417L364.675 270.409ZM292.95 420.595H279.462C277.86 420.579 276.329 419.934 275.203 418.8C274.077 417.667 273.446 416.138 273.448 414.544L274.305 367.761C275.479 366.126 277.067 364.828 278.907 363.998L297.671 360.385C297.847 360.385 298.021 360.42 298.183 360.487C298.346 360.555 298.492 360.654 298.615 360.78C298.74 360.904 298.838 361.052 298.905 361.214C298.971 361.377 299.005 361.551 299.004 361.726V414.584C299 416.174 298.367 417.698 297.242 418.827C296.116 419.957 294.589 420.6 292.99 420.619L292.95 420.595Z" fill="white"/>
</g>
<path d="M364.422 204.826C364.843 205.74 365.062 206.732 365.064 207.737V231.247C365.046 238.604 363.306 245.856 359.981 252.428C356.657 259.001 351.84 264.714 345.911 269.115C336.446 276.507 326.75 283.442 316.832 290.416L295.473 305.177C292.672 307.197 289.235 308.151 285.786 307.867C284.001 307.66 282.255 307.206 280.597 306.518C279.122 305.783 277.691 304.964 276.312 304.064C256.929 290.85 237.546 277.643 218.615 263.766C210.046 257.723 201.715 251.451 193.146 245.187C192.02 244.517 191.123 243.61 189.973 242.947C186.805 240.509 184.641 237.005 183.887 233.093C183.687 232.054 183.61 230.995 183.657 229.938V208.676C183.69 207.774 183.616 206.871 183.435 205.986C183.368 205.855 183.334 205.711 183.334 205.564C183.334 205.417 183.368 205.273 183.435 205.142C183.5 205.014 183.595 204.903 183.712 204.818C183.831 204.734 183.966 204.675 184.109 204.645H184.331C184.384 205.023 184.46 205.397 184.561 205.765C184.742 207.961 185.701 210.021 187.267 211.579C188.393 213.004 189.766 214.217 191.321 215.161C213.854 231.949 236.848 248.296 260.063 264.413C265.474 268.224 271.1 271.798 276.519 275.6C278.701 277.124 281.134 278.258 283.707 278.953C286.73 279.672 289.909 279.355 292.728 278.054C293.783 277.594 294.768 276.991 295.656 276.263C310.533 265.747 325.179 255.443 340.087 244.919C343.015 242.907 345.721 240.896 348.402 238.655C355.465 232.353 360.62 224.217 363.287 215.161C363.7 213.62 364.002 212.051 364.191 210.467C364.383 209.584 364.46 208.68 364.422 207.777V204.826ZM284.183 172.347H289.586C298.352 173.008 306.842 175.693 314.381 180.188C319.473 183.264 324.223 186.869 328.551 190.941C331.444 193.415 333.361 196.828 333.962 200.574C334.565 204.233 334.011 207.987 332.375 211.319C331.923 212.439 331.241 213.339 330.789 214.23C330.566 214.665 330.186 215.001 329.725 215.169C329.263 215.335 328.755 215.318 328.305 215.122C328.083 215.122 328.083 214.901 327.861 214.901C326.274 213.781 324.687 212.881 322.902 211.745C316.448 207.198 309.175 203.928 301.48 202.112C296.543 200.967 291.457 200.591 286.405 201C276.101 201.748 266.201 205.296 257.786 211.256C254.612 213.497 251.248 215.287 247.86 217.52C247.638 217.52 247.638 217.749 247.416 217.749C247.244 217.724 247.085 217.643 246.964 217.52L228.033 204.763C227.614 204.525 227.234 204.225 226.906 203.872C226.654 203.705 226.47 203.455 226.387 203.166C226.304 202.877 226.328 202.567 226.454 202.294C226.454 202.065 226.684 202.065 226.906 201.844L227.351 201.395C232.762 197.821 237.943 193.774 243.346 189.955C247.973 186.579 252.78 183.453 257.746 180.591C263.535 177.404 269.76 175.073 276.225 173.672C278.804 172.901 281.469 172.447 284.159 172.323L284.183 172.347ZM274.226 174.161V134.834C274.265 133.353 274.892 131.949 275.97 130.928C277.048 129.906 278.489 129.35 279.978 129.382H291.427C292.916 129.35 294.357 129.906 295.435 130.928C296.512 131.949 297.14 133.353 297.179 134.834V173.491C289.517 172.611 281.766 172.842 274.17 174.177L274.226 174.161ZM364.675 270.409C365.109 271.32 365.342 272.312 365.358 273.32V297.272C365.154 307.831 361.519 318.041 354.996 326.375C352.171 329.897 348.917 333.055 345.308 335.779C335.787 343.163 325.909 350.105 315.952 357.08L296.116 370.736C294.413 371.911 292.498 372.747 290.475 373.197C287.772 373.875 284.919 373.639 282.366 372.527C280.528 371.859 278.786 370.954 277.185 369.836C255.096 354.847 233.008 339.621 211.371 323.724C204.611 318.801 197.883 313.878 191.083 308.735C187.742 306.316 185.488 302.69 184.807 298.637C184.61 297.597 184.536 296.538 184.585 295.481V273.786C184.616 272.961 184.538 272.137 184.355 271.332C184.133 270.654 184.585 269.983 185.037 269.983C185.037 270.433 185.26 270.654 185.26 271.103C185.514 273.572 186.638 275.872 188.433 277.596C189.528 278.765 190.737 279.822 192.043 280.752C215.481 298.211 239.601 315.22 263.689 331.787C268.172 334.942 272.702 337.83 276.987 340.741C278.811 342.143 280.872 343.211 283.072 343.897C284.723 344.456 286.469 344.685 288.21 344.57C289.95 344.455 291.65 343.998 293.212 343.226C294.317 342.719 295.379 342.123 296.386 341.443C312.611 330.004 328.845 318.565 345.07 306.96C354.037 300.52 360.614 291.315 363.779 280.775C364.258 279.005 364.634 277.208 364.906 275.395C364.446 273.776 364.349 272.077 364.62 270.417L364.675 270.409ZM292.95 420.595H279.462C277.86 420.579 276.329 419.934 275.203 418.8C274.077 417.667 273.446 416.138 273.448 414.544L274.305 367.761C275.479 366.126 277.067 364.828 278.907 363.998L297.671 360.385C297.847 360.385 298.021 360.42 298.183 360.487C298.346 360.555 298.492 360.654 298.615 360.78C298.74 360.904 298.838 361.052 298.905 361.214C298.971 361.377 299.005 361.551 299.004 361.726V414.584C299 416.174 298.367 417.698 297.242 418.827C296.116 419.957 294.589 420.6 292.99 420.619L292.95 420.595Z" fill="white"/>
</g>
</g>
<defs>
<filter id="filter0_f_884_328" x="177.334" y="123.381" width="194.024" height="303.238" filterUnits="userSpaceOnUse" color-interpolation-filters="sRGB">
<feFlood flood-opacity="0" result="BackgroundImageFix"/>
<feBlend mode="normal" in="SourceGraphic" in2="BackgroundImageFix" result="shape"/>
<feGaussianBlur stdDeviation="3" result="effect1_foregroundBlur_884_328"/>
</filter>
<clipPath id="clip0_884_328">
<rect width="556" height="556" fill="white"/>
</clipPath>
</defs>
</svg>
