<svg width="451" height="76" viewBox="0 0 451 76" fill="none" xmlns="http://www.w3.org/2000/svg">
<path fill-rule="evenodd" clip-rule="evenodd" d="M322.343 26.9296L328.707 33.2936C329.098 33.6841 329.098 34.3173 328.707 34.7078L322.343 41.0717C321.953 41.4623 321.319 41.4623 320.929 41.0717C320.538 40.6812 320.538 40.0481 320.929 39.6575L325.586 35.0007H324.946C324.394 35.0007 323.946 34.553 323.946 34.0007C323.946 33.4484 324.394 33.0007 324.946 33.0007H325.586L320.929 28.3438C320.538 27.9533 320.538 27.3201 320.929 26.9296C321.319 26.5391 321.953 26.5391 322.343 26.9296ZM160.054 35.0007H157V33.0007H160.054C160.606 33.0007 161.054 33.4484 161.054 34.0007C161.054 34.553 160.606 35.0007 160.054 35.0007ZM165.161 34.0007C165.161 33.4484 165.608 33.0007 166.161 33.0007H172.268C172.82 33.0007 173.268 33.4484 173.268 34.0007C173.268 34.553 172.82 35.0007 172.268 35.0007H166.161C165.608 35.0007 165.161 34.553 165.161 34.0007ZM177.375 34.0007C177.375 33.4484 177.823 33.0007 178.375 33.0007H184.482C185.034 33.0007 185.482 33.4484 185.482 34.0007C185.482 34.553 185.034 35.0007 184.482 35.0007H178.375C177.823 35.0007 177.375 34.553 177.375 34.0007ZM189.589 34.0007C189.589 33.4484 190.037 33.0007 190.589 33.0007H196.696C197.249 33.0007 197.696 33.4484 197.696 34.0007C197.696 34.553 197.249 35.0007 196.696 35.0007H190.589C190.037 35.0007 189.589 34.553 189.589 34.0007ZM201.804 34.0007C201.804 33.4484 202.251 33.0007 202.804 33.0007H208.911C209.463 33.0007 209.911 33.4484 209.911 34.0007C209.911 34.553 209.463 35.0007 208.911 35.0007H202.804C202.251 35.0007 201.804 34.553 201.804 34.0007ZM214.018 34.0007C214.018 33.4484 214.466 33.0007 215.018 33.0007H221.125C221.677 33.0007 222.125 33.4484 222.125 34.0007C222.125 34.553 221.677 35.0007 221.125 35.0007H215.018C214.466 35.0007 214.018 34.553 214.018 34.0007ZM226.232 34.0007C226.232 33.4484 226.68 33.0007 227.232 33.0007H233.339C233.892 33.0007 234.339 33.4484 234.339 34.0007C234.339 34.553 233.892 35.0007 233.339 35.0007H227.232C226.68 35.0007 226.232 34.553 226.232 34.0007ZM238.446 34.0007C238.446 33.4484 238.894 33.0007 239.446 33.0007H245.554C246.106 33.0007 246.554 33.4484 246.554 34.0007C246.554 34.553 246.106 35.0007 245.554 35.0007H239.446C238.894 35.0007 238.446 34.553 238.446 34.0007ZM250.661 34.0007C250.661 33.4484 251.108 33.0007 251.661 33.0007H257.768C258.32 33.0007 258.768 33.4484 258.768 34.0007C258.768 34.553 258.32 35.0007 257.768 35.0007H251.661C251.108 35.0007 250.661 34.553 250.661 34.0007ZM262.875 34.0007C262.875 33.4484 263.323 33.0007 263.875 33.0007H269.982C270.534 33.0007 270.982 33.4484 270.982 34.0007C270.982 34.553 270.534 35.0007 269.982 35.0007H263.875C263.323 35.0007 262.875 34.553 262.875 34.0007ZM275.089 34.0007C275.089 33.4484 275.537 33.0007 276.089 33.0007H282.196C282.749 33.0007 283.196 33.4484 283.196 34.0007C283.196 34.553 282.749 35.0007 282.196 35.0007H276.089C275.537 35.0007 275.089 34.553 275.089 34.0007ZM287.304 34.0007C287.304 33.4484 287.751 33.0007 288.304 33.0007H294.411C294.963 33.0007 295.411 33.4484 295.411 34.0007C295.411 34.553 294.963 35.0007 294.411 35.0007H288.304C287.751 35.0007 287.304 34.553 287.304 34.0007ZM299.518 34.0007C299.518 33.4484 299.966 33.0007 300.518 33.0007H306.625C307.177 33.0007 307.625 33.4484 307.625 34.0007C307.625 34.553 307.177 35.0007 306.625 35.0007H300.518C299.966 35.0007 299.518 34.553 299.518 34.0007ZM311.732 34.0007C311.732 33.4484 312.18 33.0007 312.732 33.0007H318.839C319.392 33.0007 319.839 33.4484 319.839 34.0007C319.839 34.553 319.392 35.0007 318.839 35.0007H312.732C312.18 35.0007 311.732 34.553 311.732 34.0007Z" fill="url(#paint0_linear_7953_599)"/>
<path d="M28.0052 61.01C33.544 61.01 38.9584 59.3677 43.5638 56.2903C48.1693 53.2133 51.7589 48.8395 53.8785 43.7219C55.9982 38.6047 56.5526 32.9741 55.472 27.5415C54.3915 22.1092 51.7244 17.1191 47.8078 13.2025C43.8912 9.28591 38.901 6.61869 33.4684 5.53813C28.0362 4.45753 22.4052 5.01214 17.2879 7.13177C12.1707 9.25139 7.79675 12.8409 4.71935 17.4465C1.64234 22.0515 0 27.4663 0 33.0051C0 40.4326 2.95032 47.5555 8.20239 52.8076C13.4543 58.0597 20.5777 61.01 28.0052 61.01Z" fill="#513C06"/>
<g opacity="0.1">
<path d="M56.012 32.9828C56.0173 39.4139 53.8092 45.6509 49.7585 50.6459C45.7078 55.641 40.0614 59.0898 33.768 60.4129C27.4745 61.736 20.9174 60.8529 15.1982 57.9118C9.47907 54.9707 4.94637 50.1509 2.3616 44.2621C-0.223158 38.3734 -0.702483 31.7744 1.00415 25.574C2.71079 19.3735 6.4994 13.9493 11.7335 10.2126C16.9676 6.47589 23.3283 4.65443 29.7469 5.05418C36.1655 5.45394 42.251 8.05057 46.981 12.4078C49.8253 15.028 52.096 18.2089 53.6503 21.7499C55.2046 25.291 56.0087 29.1156 56.012 32.9828V32.9828Z" fill="#F0CD00"/>
<path d="M56.0116 32.982C55.815 38.2635 54.0691 43.3704 50.9913 47.6669C47.9134 51.9634 43.6397 55.2595 38.7022 57.1448C33.7648 59.0301 28.3818 59.4213 23.2236 58.2697C18.0655 57.118 13.3601 54.4745 9.69339 50.6681C6.0267 46.8618 3.56074 42.0609 2.60261 36.8633C1.64447 31.6658 2.2365 26.3011 4.30496 21.4376C6.37342 16.574 9.82691 12.4264 14.2354 9.51121C18.6438 6.59603 23.8125 5.04211 29.0976 5.04297C36.3267 5.31335 43.1697 8.37524 48.1885 13.5852C53.2074 18.7953 56.0115 25.7478 56.0116 32.982Z" fill="#FFDE50"/>
<path d="M46.9814 12.4083L7.48143 51.9083C6.13533 50.4461 4.94834 48.8452 3.94043 47.1323L42.2104 8.86328C43.922 9.8724 45.5213 11.0608 46.9814 12.4083V12.4083Z" fill="#FFEC9F" fill-opacity="0.6"/>
<path d="M54.083 22.7636L17.831 59.0156C15.2845 58.0147 12.8992 56.6444 10.752 54.9486L50.019 15.6836C51.7136 17.8315 53.0829 20.217 54.083 22.7636V22.7636Z" fill="#FFEC9F" fill-opacity="0.6"/>
<path d="M49.7791 32.9828C49.7979 38.7338 47.5356 44.2576 43.4882 48.3433C39.4408 52.4289 33.9386 54.7431 28.1877 54.7784C22.4368 54.8138 16.9065 52.5674 12.8092 48.5318C8.71193 44.4962 6.38195 39.0006 6.33008 33.2498V32.9828C6.33008 27.221 8.61896 21.6951 12.6932 17.6209C16.7674 13.5467 22.2932 11.2578 28.0551 11.2578H28.3231C34.0387 11.3262 39.497 13.6452 43.514 17.7118C47.531 21.7784 49.7828 27.2647 49.7811 32.9808L49.7791 32.9828Z" fill="#FAA300"/>
<path d="M43.4189 17.6219L12.6979 48.3459C8.68007 44.3411 6.39576 38.9185 6.33691 33.2459V32.9789C6.33691 27.2174 8.62552 21.6919 12.6993 17.6177C16.7731 13.5435 22.2984 11.2544 28.0599 11.2539H28.3279C33.9976 11.3208 39.4152 13.6069 43.4189 17.6219V17.6219Z" fill="#FFBD00"/>
<path d="M49.7782 32.9828C49.7783 35.8359 49.2165 38.661 48.1247 41.2969C47.033 43.9328 45.4328 46.3279 43.4154 48.3454C41.3981 50.3628 39.0031 51.9632 36.3672 53.055C33.7313 54.1468 30.9062 54.7088 28.0532 54.7088C27.6412 54.7088 27.2322 54.6975 26.8262 54.6748C32.3676 54.3622 37.5792 51.9406 41.3917 47.9069C45.2041 43.8733 47.3283 38.5335 47.3283 32.9833C47.3283 27.4331 45.2041 22.0933 41.3917 18.0597C37.5792 14.0261 32.3676 11.6045 26.8262 11.2918C27.2322 11.2691 27.6412 11.2578 28.0532 11.2578C33.815 11.2578 39.3408 13.5467 43.4151 17.6209C47.4893 21.6951 49.7782 27.221 49.7782 32.9828V32.9828Z" fill="#F68E00"/>
<path d="M12.3213 42.0018V24.5472H16.54V38.5756H23.8014V42.0018H12.3213Z" fill="#CC7600"/>
<path d="M31.979 35.729H35.3881L36.8369 37.5785L38.7375 39.7603L41.6608 43.3654H37.8426L35.7971 40.9194L34.5869 39.1808L31.979 35.729ZM41.7801 33.2745C41.7801 35.195 41.4108 36.8228 40.6721 38.158C39.9335 39.4933 38.9335 40.5075 37.6721 41.2006C36.4165 41.8938 35.0074 42.2404 33.4449 42.2404C31.8767 42.2404 30.4648 41.891 29.2091 41.1921C27.9534 40.4933 26.9562 39.479 26.2176 38.1495C25.4846 36.8143 25.1182 35.1893 25.1182 33.2745C25.1182 31.354 25.4846 29.7262 26.2176 28.391C26.9562 27.0558 27.9534 26.0415 29.2091 25.3484C30.4648 24.6552 31.8767 24.3086 33.4449 24.3086C35.0074 24.3086 36.4165 24.6552 37.6721 25.3484C38.9335 26.0415 39.9335 27.0558 40.6721 28.391C41.4108 29.7262 41.7801 31.354 41.7801 33.2745ZM37.4676 33.2745C37.4676 32.1381 37.3057 31.1779 36.9818 30.3938C36.6636 29.6097 36.2034 29.016 35.6011 28.6126C35.0045 28.2092 34.2858 28.0075 33.4449 28.0075C32.6096 28.0075 31.8909 28.2092 31.2886 28.6126C30.6863 29.016 30.2233 29.6097 29.8994 30.3938C29.5812 31.1779 29.4221 32.1381 29.4221 33.2745C29.4221 34.4109 29.5812 35.3711 29.8994 36.1552C30.2233 36.9393 30.6863 37.533 31.2886 37.9364C31.8909 38.3398 32.6096 38.5415 33.4449 38.5415C34.2858 38.5415 35.0045 38.3398 35.6011 37.9364C36.2034 37.533 36.6636 36.9393 36.9818 36.1552C37.3057 35.3711 37.4676 34.4109 37.4676 33.2745Z" fill="#CC7600"/>
<path d="M13.3213 41.0018V23.5472H17.54V37.5756H24.8014V41.0018H13.3213Z" fill="#FFEA94"/>
<path d="M32.979 34.729H36.3881L37.8369 36.5785L39.7375 38.7603L42.6608 42.3654H38.8426L36.7971 39.9194L35.5869 38.1808L32.979 34.729ZM42.7801 32.2745C42.7801 34.195 42.4108 35.8228 41.6721 37.158C40.9335 38.4933 39.9335 39.5075 38.6721 40.2006C37.4165 40.8938 36.0074 41.2404 34.4449 41.2404C32.8767 41.2404 31.4648 40.891 30.2091 40.1921C28.9534 39.4933 27.9562 38.479 27.2176 37.1495C26.4846 35.8143 26.1182 34.1893 26.1182 32.2745C26.1182 30.354 26.4846 28.7262 27.2176 27.391C27.9562 26.0558 28.9534 25.0415 30.2091 24.3484C31.4648 23.6552 32.8767 23.3086 34.4449 23.3086C36.0074 23.3086 37.4165 23.6552 38.6721 24.3484C39.9335 25.0415 40.9335 26.0558 41.6721 27.391C42.4108 28.7262 42.7801 30.354 42.7801 32.2745ZM38.4676 32.2745C38.4676 31.1381 38.3057 30.1779 37.9818 29.3938C37.6636 28.6097 37.2034 28.016 36.6011 27.6126C36.0045 27.2092 35.2858 27.0075 34.4449 27.0075C33.6096 27.0075 32.8909 27.2092 32.2886 27.6126C31.6863 28.016 31.2233 28.6097 30.8994 29.3938C30.5812 30.1779 30.4221 31.1381 30.4221 32.2745C30.4221 33.4109 30.5812 34.3711 30.8994 35.1552C31.2233 35.9393 31.6863 36.533 32.2886 36.9364C32.8909 37.3398 33.6096 37.5415 34.4449 37.5415C35.2858 37.5415 36.0045 37.3398 36.6011 36.9364C37.2034 36.533 37.6636 35.9393 37.9818 35.1552C38.3057 34.3711 38.4676 33.4109 38.4676 32.2745Z" fill="#FFEA94"/>
<g filter="url(#filter0_d_7953_599)">
<path d="M13.3213 41.0018V23.5472H17.54V37.5756H24.8014V41.0018H13.3213Z" fill="#FFEA94"/>
<path d="M32.979 34.729H36.3881L37.8369 36.5785L39.7375 38.7603L42.6608 42.3654H38.8426L36.7971 39.9194L35.5869 38.1808L32.979 34.729ZM42.7801 32.2745C42.7801 34.195 42.4108 35.8228 41.6721 37.158C40.9335 38.4933 39.9335 39.5075 38.6721 40.2006C37.4165 40.8938 36.0074 41.2404 34.4449 41.2404C32.8767 41.2404 31.4648 40.891 30.2091 40.1921C28.9534 39.4933 27.9562 38.479 27.2176 37.1495C26.4846 35.8143 26.1182 34.1893 26.1182 32.2745C26.1182 30.354 26.4846 28.7262 27.2176 27.391C27.9562 26.0558 28.9534 25.0415 30.2091 24.3484C31.4648 23.6552 32.8767 23.3086 34.4449 23.3086C36.0074 23.3086 37.4165 23.6552 38.6721 24.3484C39.9335 25.0415 40.9335 26.0558 41.6721 27.391C42.4108 28.7262 42.7801 30.354 42.7801 32.2745ZM38.4676 32.2745C38.4676 31.1381 38.3057 30.1779 37.9818 29.3938C37.6636 28.6097 37.2034 28.016 36.6011 27.6126C36.0045 27.2092 35.2858 27.0075 34.4449 27.0075C33.6096 27.0075 32.8909 27.2092 32.2886 27.6126C31.6863 28.016 31.2233 28.6097 30.8994 29.3938C30.5812 30.1779 30.4221 31.1381 30.4221 32.2745C30.4221 33.4109 30.5812 34.3711 30.8994 35.1552C31.2233 35.9393 31.6863 36.533 32.2886 36.9364C32.8909 37.3398 33.6096 37.5415 34.4449 37.5415C35.2858 37.5415 36.0045 37.3398 36.6011 36.9364C37.2034 36.533 37.6636 35.9393 37.9818 35.1552C38.3057 34.3711 38.4676 33.4109 38.4676 32.2745Z" fill="#FFEA94"/>
</g>
<g filter="url(#filter1_f_7953_599)">
<path d="M13.3213 41.0018V23.5472H17.54V37.5756H24.8014V41.0018H13.3213Z" fill="#FFEB9B"/>
<path d="M32.979 34.729H36.3881L37.8369 36.5785L39.7375 38.7603L42.6608 42.3654H38.8426L36.7971 39.9194L35.5869 38.1808L32.979 34.729ZM42.7801 32.2745C42.7801 34.195 42.4108 35.8228 41.6721 37.158C40.9335 38.4933 39.9335 39.5075 38.6721 40.2006C37.4165 40.8938 36.0074 41.2404 34.4449 41.2404C32.8767 41.2404 31.4648 40.891 30.2091 40.1921C28.9534 39.4933 27.9562 38.479 27.2176 37.1495C26.4846 35.8143 26.1182 34.1893 26.1182 32.2745C26.1182 30.354 26.4846 28.7262 27.2176 27.391C27.9562 26.0558 28.9534 25.0415 30.2091 24.3484C31.4648 23.6552 32.8767 23.3086 34.4449 23.3086C36.0074 23.3086 37.4165 23.6552 38.6721 24.3484C39.9335 25.0415 40.9335 26.0558 41.6721 27.391C42.4108 28.7262 42.7801 30.354 42.7801 32.2745ZM38.4676 32.2745C38.4676 31.1381 38.3057 30.1779 37.9818 29.3938C37.6636 28.6097 37.2034 28.016 36.6011 27.6126C36.0045 27.2092 35.2858 27.0075 34.4449 27.0075C33.6096 27.0075 32.8909 27.2092 32.2886 27.6126C31.6863 28.016 31.2233 28.6097 30.8994 29.3938C30.5812 30.1779 30.4221 31.1381 30.4221 32.2745C30.4221 33.4109 30.5812 34.3711 30.8994 35.1552C31.2233 35.9393 31.6863 36.533 32.2886 36.9364C32.8909 37.3398 33.6096 37.5415 34.4449 37.5415C35.2858 37.5415 36.0045 37.3398 36.6011 36.9364C37.2034 36.533 37.6636 35.9393 37.9818 35.1552C38.3057 34.3711 38.4676 33.4109 38.4676 32.2745Z" fill="#FFEB9B"/>
</g>
</g>
<path d="M50.0052 61.01C55.544 61.01 60.9584 59.3677 65.5638 56.2903C70.1693 53.2133 73.7589 48.8395 75.8785 43.7219C77.9982 38.6047 78.5526 32.9741 77.472 27.5415C76.3915 22.1092 73.7244 17.1191 69.8078 13.2025C65.8912 9.28591 60.901 6.61869 55.4684 5.53813C50.0362 4.45753 44.4052 5.01214 39.2879 7.13177C34.1707 9.25139 29.7967 12.8409 26.7194 17.4465C23.6423 22.0515 22 27.4663 22 33.0051C22 40.4326 24.9503 47.5555 30.2024 52.8076C35.4543 58.0597 42.5777 61.01 50.0052 61.01Z" fill="#5E4B1C"/>
<g opacity="0.25">
<g filter="url(#filter2_d_7953_599)">
<path d="M78.012 32.9828C78.0173 39.4139 75.8092 45.6509 71.7585 50.6459C67.7078 55.641 62.0614 59.0898 55.768 60.4129C49.4745 61.736 42.9174 60.8529 37.1982 57.9118C31.4791 54.9707 26.9464 50.1509 24.3616 44.2621C21.7768 38.3734 21.2975 31.7744 23.0042 25.574C24.7108 19.3735 28.4994 13.9493 33.7335 10.2126C38.9676 6.47589 45.3283 4.65443 51.7469 5.05418C58.1655 5.45394 64.251 8.05057 68.981 12.4078C71.8253 15.028 74.096 18.2089 75.6503 21.7499C77.2046 25.291 78.0087 29.1156 78.012 32.9828V32.9828Z" fill="#FFDE50"/>
</g>
<g filter="url(#filter3_d_7953_599)">
<path d="M78.0116 32.982C77.815 38.2635 76.0691 43.3704 72.9913 47.6669C69.9134 51.9634 65.6397 55.2595 60.7022 57.1448C55.7648 59.0301 50.3818 59.4213 45.2236 58.2697C40.0655 57.118 35.3601 54.4745 31.6934 50.6681C28.0267 46.8618 25.5607 42.0609 24.6026 36.8633C23.6445 31.6658 24.2365 26.3011 26.305 21.4376C28.3734 16.574 31.8269 12.4264 36.2354 9.51121C40.6438 6.59603 45.8125 5.04211 51.0976 5.04297C58.3267 5.31335 65.1697 8.37524 70.1885 13.5852C75.2074 18.7953 78.0115 25.7478 78.0116 32.982Z" fill="#FFDE50"/>
</g>
<path d="M68.9814 12.4083L29.4814 51.9083C28.1353 50.4461 26.9483 48.8452 25.9404 47.1323L64.2104 8.86328C65.922 9.8724 67.5213 11.0608 68.9814 12.4083V12.4083Z" fill="#FFEC9F" fill-opacity="0.6"/>
<path d="M76.083 22.7636L39.831 59.0156C37.2845 58.0147 34.8992 56.6444 32.752 54.9486L72.019 15.6836C73.7136 17.8315 75.0829 20.217 76.083 22.7636V22.7636Z" fill="#FFEC9F" fill-opacity="0.6"/>
<path d="M71.7791 32.9828C71.7979 38.7338 69.5356 44.2576 65.4882 48.3433C61.4408 52.4289 55.9386 54.7431 50.1877 54.7784C44.4368 54.8138 38.9065 52.5674 34.8092 48.5318C30.7119 44.4962 28.382 39.0006 28.3301 33.2498V32.9828C28.3301 27.221 30.619 21.6951 34.6932 17.6209C38.7674 13.5467 44.2932 11.2578 50.0551 11.2578H50.3231C56.0387 11.3262 61.497 13.6452 65.514 17.7118C69.531 21.7784 71.7828 27.2647 71.7811 32.9808L71.7791 32.9828Z" fill="#FAA300"/>
<path d="M65.4189 17.6219L34.6979 48.3459C30.6801 44.3411 28.3958 38.9185 28.3369 33.2459V32.9789C28.3369 27.2174 30.6255 21.6919 34.6993 17.6177C38.7731 13.5435 44.2984 11.2544 50.0599 11.2539H50.3279C55.9976 11.3208 61.4152 13.6069 65.4189 17.6219V17.6219Z" fill="#FFBD00"/>
<path d="M71.7782 32.9828C71.7783 35.8359 71.2165 38.661 70.1247 41.2969C69.033 43.9328 67.4328 46.3279 65.4154 48.3454C63.3981 50.3628 61.0031 51.9632 58.3672 53.055C55.7313 54.1468 52.9062 54.7088 50.0532 54.7088C49.6412 54.7088 49.2322 54.6975 48.8262 54.6748C54.3676 54.3622 59.5792 51.9406 63.3917 47.9069C67.2041 43.8733 69.3283 38.5335 69.3283 32.9833C69.3283 27.4331 67.2041 22.0933 63.3917 18.0597C59.5792 14.0261 54.3676 11.6045 48.8262 11.2918C49.2322 11.2691 49.6412 11.2578 50.0532 11.2578C55.815 11.2578 61.3408 13.5467 65.4151 17.6209C69.4893 21.6951 71.7782 27.221 71.7782 32.9828V32.9828Z" fill="#F68E00"/>
<path d="M34.3213 42.0018V24.5472H38.54V38.5756H45.8014V42.0018H34.3213Z" fill="#CC7600"/>
<path d="M53.979 35.729H57.3881L58.8369 37.5785L60.7375 39.7603L63.6608 43.3654H59.8426L57.7971 40.9194L56.5869 39.1808L53.979 35.729ZM63.7801 33.2745C63.7801 35.195 63.4108 36.8228 62.6721 38.158C61.9335 39.4933 60.9335 40.5075 59.6721 41.2006C58.4165 41.8938 57.0074 42.2404 55.4449 42.2404C53.8767 42.2404 52.4648 41.891 51.2091 41.1921C49.9534 40.4933 48.9562 39.479 48.2176 38.1495C47.4846 36.8143 47.1182 35.1893 47.1182 33.2745C47.1182 31.354 47.4846 29.7262 48.2176 28.391C48.9562 27.0558 49.9534 26.0415 51.2091 25.3484C52.4648 24.6552 53.8767 24.3086 55.4449 24.3086C57.0074 24.3086 58.4165 24.6552 59.6721 25.3484C60.9335 26.0415 61.9335 27.0558 62.6721 28.391C63.4108 29.7262 63.7801 31.354 63.7801 33.2745ZM59.4676 33.2745C59.4676 32.1381 59.3057 31.1779 58.9818 30.3938C58.6636 29.6097 58.2034 29.016 57.6011 28.6126C57.0045 28.2092 56.2858 28.0075 55.4449 28.0075C54.6096 28.0075 53.8909 28.2092 53.2886 28.6126C52.6863 29.016 52.2233 29.6097 51.8994 30.3938C51.5812 31.1779 51.4221 32.1381 51.4221 33.2745C51.4221 34.4109 51.5812 35.3711 51.8994 36.1552C52.2233 36.9393 52.6863 37.533 53.2886 37.9364C53.8909 38.3398 54.6096 38.5415 55.4449 38.5415C56.2858 38.5415 57.0045 38.3398 57.6011 37.9364C58.2034 37.533 58.6636 36.9393 58.9818 36.1552C59.3057 35.3711 59.4676 34.4109 59.4676 33.2745Z" fill="#CC7600"/>
<path d="M35.3213 41.0018V23.5472H39.54V37.5756H46.8014V41.0018H35.3213Z" fill="#FFEA94"/>
<path d="M54.979 34.729H58.3881L59.8369 36.5785L61.7375 38.7603L64.6608 42.3654H60.8426L58.7971 39.9194L57.5869 38.1808L54.979 34.729ZM64.7801 32.2745C64.7801 34.195 64.4108 35.8228 63.6721 37.158C62.9335 38.4933 61.9335 39.5075 60.6721 40.2006C59.4165 40.8938 58.0074 41.2404 56.4449 41.2404C54.8767 41.2404 53.4648 40.891 52.2091 40.1921C50.9534 39.4933 49.9562 38.479 49.2176 37.1495C48.4846 35.8143 48.1182 34.1893 48.1182 32.2745C48.1182 30.354 48.4846 28.7262 49.2176 27.391C49.9562 26.0558 50.9534 25.0415 52.2091 24.3484C53.4648 23.6552 54.8767 23.3086 56.4449 23.3086C58.0074 23.3086 59.4165 23.6552 60.6721 24.3484C61.9335 25.0415 62.9335 26.0558 63.6721 27.391C64.4108 28.7262 64.7801 30.354 64.7801 32.2745ZM60.4676 32.2745C60.4676 31.1381 60.3057 30.1779 59.9818 29.3938C59.6636 28.6097 59.2034 28.016 58.6011 27.6126C58.0045 27.2092 57.2858 27.0075 56.4449 27.0075C55.6096 27.0075 54.8909 27.2092 54.2886 27.6126C53.6863 28.016 53.2233 28.6097 52.8994 29.3938C52.5812 30.1779 52.4221 31.1381 52.4221 32.2745C52.4221 33.4109 52.5812 34.3711 52.8994 35.1552C53.2233 35.9393 53.6863 36.533 54.2886 36.9364C54.8909 37.3398 55.6096 37.5415 56.4449 37.5415C57.2858 37.5415 58.0045 37.3398 58.6011 36.9364C59.2034 36.533 59.6636 35.9393 59.9818 35.1552C60.3057 34.3711 60.4676 33.4109 60.4676 32.2745Z" fill="#FFEA94"/>
<g filter="url(#filter4_d_7953_599)">
<path d="M35.3213 41.0018V23.5472H39.54V37.5756H46.8014V41.0018H35.3213Z" fill="#FFEA94"/>
<path d="M54.979 34.729H58.3881L59.8369 36.5785L61.7375 38.7603L64.6608 42.3654H60.8426L58.7971 39.9194L57.5869 38.1808L54.979 34.729ZM64.7801 32.2745C64.7801 34.195 64.4108 35.8228 63.6721 37.158C62.9335 38.4933 61.9335 39.5075 60.6721 40.2006C59.4165 40.8938 58.0074 41.2404 56.4449 41.2404C54.8767 41.2404 53.4648 40.891 52.2091 40.1921C50.9534 39.4933 49.9562 38.479 49.2176 37.1495C48.4846 35.8143 48.1182 34.1893 48.1182 32.2745C48.1182 30.354 48.4846 28.7262 49.2176 27.391C49.9562 26.0558 50.9534 25.0415 52.2091 24.3484C53.4648 23.6552 54.8767 23.3086 56.4449 23.3086C58.0074 23.3086 59.4165 23.6552 60.6721 24.3484C61.9335 25.0415 62.9335 26.0558 63.6721 27.391C64.4108 28.7262 64.7801 30.354 64.7801 32.2745ZM60.4676 32.2745C60.4676 31.1381 60.3057 30.1779 59.9818 29.3938C59.6636 28.6097 59.2034 28.016 58.6011 27.6126C58.0045 27.2092 57.2858 27.0075 56.4449 27.0075C55.6096 27.0075 54.8909 27.2092 54.2886 27.6126C53.6863 28.016 53.2233 28.6097 52.8994 29.3938C52.5812 30.1779 52.4221 31.1381 52.4221 32.2745C52.4221 33.4109 52.5812 34.3711 52.8994 35.1552C53.2233 35.9393 53.6863 36.533 54.2886 36.9364C54.8909 37.3398 55.6096 37.5415 56.4449 37.5415C57.2858 37.5415 58.0045 37.3398 58.6011 36.9364C59.2034 36.533 59.6636 35.9393 59.9818 35.1552C60.3057 34.3711 60.4676 33.4109 60.4676 32.2745Z" fill="#FFEA94"/>
</g>
<g filter="url(#filter5_f_7953_599)">
<path d="M35.3213 41.0018V23.5472H39.54V37.5756H46.8014V41.0018H35.3213Z" fill="#FFEB9B"/>
<path d="M54.979 34.729H58.3881L59.8369 36.5785L61.7375 38.7603L64.6608 42.3654H60.8426L58.7971 39.9194L57.5869 38.1808L54.979 34.729ZM64.7801 32.2745C64.7801 34.195 64.4108 35.8228 63.6721 37.158C62.9335 38.4933 61.9335 39.5075 60.6721 40.2006C59.4165 40.8938 58.0074 41.2404 56.4449 41.2404C54.8767 41.2404 53.4648 40.891 52.2091 40.1921C50.9534 39.4933 49.9562 38.479 49.2176 37.1495C48.4846 35.8143 48.1182 34.1893 48.1182 32.2745C48.1182 30.354 48.4846 28.7262 49.2176 27.391C49.9562 26.0558 50.9534 25.0415 52.2091 24.3484C53.4648 23.6552 54.8767 23.3086 56.4449 23.3086C58.0074 23.3086 59.4165 23.6552 60.6721 24.3484C61.9335 25.0415 62.9335 26.0558 63.6721 27.391C64.4108 28.7262 64.7801 30.354 64.7801 32.2745ZM60.4676 32.2745C60.4676 31.1381 60.3057 30.1779 59.9818 29.3938C59.6636 28.6097 59.2034 28.016 58.6011 27.6126C58.0045 27.2092 57.2858 27.0075 56.4449 27.0075C55.6096 27.0075 54.8909 27.2092 54.2886 27.6126C53.6863 28.016 53.2233 28.6097 52.8994 29.3938C52.5812 30.1779 52.4221 31.1381 52.4221 32.2745C52.4221 33.4109 52.5812 34.3711 52.8994 35.1552C53.2233 35.9393 53.6863 36.533 54.2886 36.9364C54.8909 37.3398 55.6096 37.5415 56.4449 37.5415C57.2858 37.5415 58.0045 37.3398 58.6011 36.9364C59.2034 36.533 59.6636 35.9393 59.9818 35.1552C60.3057 34.3711 60.4676 33.4109 60.4676 32.2745Z" fill="#FFEB9B"/>
</g>
</g>
<path d="M73.0052 60.01C78.544 60.01 83.9584 58.3677 88.5638 55.2903C93.1693 52.2133 96.7589 47.8395 98.8785 42.7219C100.998 37.6047 101.553 31.9741 100.472 26.5415C99.3915 21.1092 96.7244 16.1191 92.8078 12.2025C88.8912 8.28591 83.901 5.61869 78.4684 4.53813C73.0362 3.45753 67.4052 4.01214 62.2879 6.13177C57.1707 8.25139 52.7967 11.8409 49.7194 16.4465C46.6423 21.0515 45 26.4663 45 32.0051C45 39.4326 47.9503 46.5555 53.2024 51.8076C58.4543 57.0597 65.5777 60.01 73.0052 60.01Z" fill="#36321A"/>
<g opacity="0.5">
<g filter="url(#filter6_d_7953_599)">
<path d="M101.012 31.9828C101.017 38.4139 98.8092 44.6509 94.7585 49.6459C90.7078 54.641 85.0614 58.0898 78.768 59.4129C72.4745 60.736 65.9174 59.8529 60.1982 56.9118C54.4791 53.9707 49.9464 49.1509 47.3616 43.2621C44.7768 37.3734 44.2975 30.7744 46.0042 24.574C47.7108 18.3735 51.4994 12.9493 56.7335 9.21258C61.9676 5.47589 68.3283 3.65443 74.7469 4.05418C81.1655 4.45394 87.251 7.05057 91.981 11.4078C94.8253 14.028 97.096 17.2089 98.6503 20.7499C100.205 24.291 101.009 28.1156 101.012 31.9828V31.9828Z" fill="#FFDE50"/>
</g>
<g filter="url(#filter7_d_7953_599)">
<path d="M101.012 31.982C100.815 37.2635 99.0691 42.3704 95.9913 46.6669C92.9134 50.9634 88.6397 54.2595 83.7022 56.1448C78.7648 58.0301 73.3818 58.4213 68.2236 57.2697C63.0655 56.118 58.3601 53.4745 54.6934 49.6681C51.0267 45.8618 48.5607 41.0609 47.6026 35.8633C46.6445 30.6658 47.2365 25.3011 49.305 20.4376C51.3734 15.574 54.8269 11.4264 59.2354 8.51121C63.6438 5.59603 68.8125 4.04211 74.0976 4.04297C81.3267 4.31335 88.1697 7.37524 93.1885 12.5852C98.2074 17.7953 101.011 24.7478 101.012 31.982Z" fill="#FFDE50"/>
</g>
<path d="M91.9814 11.4083L52.4814 50.9083C51.1353 49.4461 49.9483 47.8452 48.9404 46.1323L87.2104 7.86328C88.922 8.8724 90.5213 10.0608 91.9814 11.4083V11.4083Z" fill="#FFEC9F" fill-opacity="0.6"/>
<path d="M99.083 21.7636L62.831 58.0156C60.2845 57.0147 57.8992 55.6444 55.752 53.9486L95.019 14.6836C96.7136 16.8315 98.0829 19.217 99.083 21.7636V21.7636Z" fill="#FFEC9F" fill-opacity="0.6"/>
<path d="M94.7791 31.9828C94.7979 37.7338 92.5356 43.2576 88.4882 47.3433C84.4408 51.4289 78.9386 53.7431 73.1877 53.7784C67.4368 53.8138 61.9065 51.5674 57.8092 47.5318C53.7119 43.4962 51.382 38.0006 51.3301 32.2498V31.9828C51.3301 26.221 53.619 20.6951 57.6932 16.6209C61.7674 12.5467 67.2932 10.2578 73.0551 10.2578H73.3231C79.0387 10.3262 84.497 12.6452 88.514 16.7118C92.531 20.7784 94.7828 26.2647 94.7811 31.9808L94.7791 31.9828Z" fill="#FAA300"/>
<path d="M88.4189 16.6219L57.6979 47.3459C53.6801 43.3411 51.3958 37.9185 51.3369 32.2459V31.9789C51.3369 26.2174 53.6255 20.6919 57.6993 16.6177C61.7731 12.5435 67.2984 10.2544 73.0599 10.2539H73.3279C78.9976 10.3208 84.4152 12.6069 88.4189 16.6219V16.6219Z" fill="#FFBD00"/>
<path d="M94.7782 31.9828C94.7783 34.8359 94.2165 37.661 93.1247 40.2969C92.033 42.9328 90.4328 45.3279 88.4154 47.3454C86.3981 49.3628 84.0031 50.9632 81.3672 52.055C78.7313 53.1468 75.9062 53.7088 73.0532 53.7088C72.6412 53.7088 72.2322 53.6975 71.8262 53.6748C77.3676 53.3622 82.5792 50.9406 86.3917 46.9069C90.2041 42.8733 92.3283 37.5335 92.3283 31.9833C92.3283 26.4331 90.2041 21.0933 86.3917 17.0597C82.5792 13.0261 77.3676 10.6045 71.8262 10.2918C72.2322 10.2691 72.6412 10.2578 73.0532 10.2578C78.815 10.2578 84.3408 12.5467 88.4151 16.6209C92.4893 20.6951 94.7782 26.221 94.7782 31.9828V31.9828Z" fill="#F68E00"/>
<path d="M57.3213 41.0018V23.5472H61.54V37.5756H68.8014V41.0018H57.3213Z" fill="#CC7600"/>
<path d="M76.979 34.729H80.3881L81.8369 36.5785L83.7375 38.7603L86.6608 42.3654H82.8426L80.7971 39.9194L79.5869 38.1808L76.979 34.729ZM86.7801 32.2745C86.7801 34.195 86.4108 35.8228 85.6721 37.158C84.9335 38.4933 83.9335 39.5075 82.6721 40.2006C81.4165 40.8938 80.0074 41.2404 78.4449 41.2404C76.8767 41.2404 75.4648 40.891 74.2091 40.1921C72.9534 39.4933 71.9562 38.479 71.2176 37.1495C70.4846 35.8143 70.1182 34.1893 70.1182 32.2745C70.1182 30.354 70.4846 28.7262 71.2176 27.391C71.9562 26.0558 72.9534 25.0415 74.2091 24.3484C75.4648 23.6552 76.8767 23.3086 78.4449 23.3086C80.0074 23.3086 81.4165 23.6552 82.6721 24.3484C83.9335 25.0415 84.9335 26.0558 85.6721 27.391C86.4108 28.7262 86.7801 30.354 86.7801 32.2745ZM82.4676 32.2745C82.4676 31.1381 82.3057 30.1779 81.9818 29.3938C81.6636 28.6097 81.2034 28.016 80.6011 27.6126C80.0045 27.2092 79.2858 27.0075 78.4449 27.0075C77.6096 27.0075 76.8909 27.2092 76.2886 27.6126C75.6863 28.016 75.2233 28.6097 74.8994 29.3938C74.5812 30.1779 74.4221 31.1381 74.4221 32.2745C74.4221 33.4109 74.5812 34.3711 74.8994 35.1552C75.2233 35.9393 75.6863 36.533 76.2886 36.9364C76.8909 37.3398 77.6096 37.5415 78.4449 37.5415C79.2858 37.5415 80.0045 37.3398 80.6011 36.9364C81.2034 36.533 81.6636 35.9393 81.9818 35.1552C82.3057 34.3711 82.4676 33.4109 82.4676 32.2745Z" fill="#CC7600"/>
<path d="M58.3213 40.0018V22.5472H62.54V36.5756H69.8014V40.0018H58.3213Z" fill="#FFEA94"/>
<path d="M77.979 33.729H81.3881L82.8369 35.5785L84.7375 37.7603L87.6608 41.3654H83.8426L81.7971 38.9194L80.5869 37.1808L77.979 33.729ZM87.7801 31.2745C87.7801 33.195 87.4108 34.8228 86.6721 36.158C85.9335 37.4933 84.9335 38.5075 83.6721 39.2006C82.4165 39.8938 81.0074 40.2404 79.4449 40.2404C77.8767 40.2404 76.4648 39.891 75.2091 39.1921C73.9534 38.4933 72.9562 37.479 72.2176 36.1495C71.4846 34.8143 71.1182 33.1893 71.1182 31.2745C71.1182 29.354 71.4846 27.7262 72.2176 26.391C72.9562 25.0558 73.9534 24.0415 75.2091 23.3484C76.4648 22.6552 77.8767 22.3086 79.4449 22.3086C81.0074 22.3086 82.4165 22.6552 83.6721 23.3484C84.9335 24.0415 85.9335 25.0558 86.6721 26.391C87.4108 27.7262 87.7801 29.354 87.7801 31.2745ZM83.4676 31.2745C83.4676 30.1381 83.3057 29.1779 82.9818 28.3938C82.6636 27.6097 82.2034 27.016 81.6011 26.6126C81.0045 26.2092 80.2858 26.0075 79.4449 26.0075C78.6096 26.0075 77.8909 26.2092 77.2886 26.6126C76.6863 27.016 76.2233 27.6097 75.8994 28.3938C75.5812 29.1779 75.4221 30.1381 75.4221 31.2745C75.4221 32.4109 75.5812 33.3711 75.8994 34.1552C76.2233 34.9393 76.6863 35.533 77.2886 35.9364C77.8909 36.3398 78.6096 36.5415 79.4449 36.5415C80.2858 36.5415 81.0045 36.3398 81.6011 35.9364C82.2034 35.533 82.6636 34.9393 82.9818 34.1552C83.3057 33.3711 83.4676 32.4109 83.4676 31.2745Z" fill="#FFEA94"/>
<g filter="url(#filter8_d_7953_599)">
<path d="M58.3213 40.0018V22.5472H62.54V36.5756H69.8014V40.0018H58.3213Z" fill="#FFEA94"/>
<path d="M77.979 33.729H81.3881L82.8369 35.5785L84.7375 37.7603L87.6608 41.3654H83.8426L81.7971 38.9194L80.5869 37.1808L77.979 33.729ZM87.7801 31.2745C87.7801 33.195 87.4108 34.8228 86.6721 36.158C85.9335 37.4933 84.9335 38.5075 83.6721 39.2006C82.4165 39.8938 81.0074 40.2404 79.4449 40.2404C77.8767 40.2404 76.4648 39.891 75.2091 39.1921C73.9534 38.4933 72.9562 37.479 72.2176 36.1495C71.4846 34.8143 71.1182 33.1893 71.1182 31.2745C71.1182 29.354 71.4846 27.7262 72.2176 26.391C72.9562 25.0558 73.9534 24.0415 75.2091 23.3484C76.4648 22.6552 77.8767 22.3086 79.4449 22.3086C81.0074 22.3086 82.4165 22.6552 83.6721 23.3484C84.9335 24.0415 85.9335 25.0558 86.6721 26.391C87.4108 27.7262 87.7801 29.354 87.7801 31.2745ZM83.4676 31.2745C83.4676 30.1381 83.3057 29.1779 82.9818 28.3938C82.6636 27.6097 82.2034 27.016 81.6011 26.6126C81.0045 26.2092 80.2858 26.0075 79.4449 26.0075C78.6096 26.0075 77.8909 26.2092 77.2886 26.6126C76.6863 27.016 76.2233 27.6097 75.8994 28.3938C75.5812 29.1779 75.4221 30.1381 75.4221 31.2745C75.4221 32.4109 75.5812 33.3711 75.8994 34.1552C76.2233 34.9393 76.6863 35.533 77.2886 35.9364C77.8909 36.3398 78.6096 36.5415 79.4449 36.5415C80.2858 36.5415 81.0045 36.3398 81.6011 35.9364C82.2034 35.533 82.6636 34.9393 82.9818 34.1552C83.3057 33.3711 83.4676 32.4109 83.4676 31.2745Z" fill="#FFEA94"/>
</g>
<g filter="url(#filter9_f_7953_599)">
<path d="M58.3213 40.0018V22.5472H62.54V36.5756H69.8014V40.0018H58.3213Z" fill="#FFEB9B"/>
<path d="M77.979 33.729H81.3881L82.8369 35.5785L84.7375 37.7603L87.6608 41.3654H83.8426L81.7971 38.9194L80.5869 37.1808L77.979 33.729ZM87.7801 31.2745C87.7801 33.195 87.4108 34.8228 86.6721 36.158C85.9335 37.4933 84.9335 38.5075 83.6721 39.2006C82.4165 39.8938 81.0074 40.2404 79.4449 40.2404C77.8767 40.2404 76.4648 39.891 75.2091 39.1921C73.9534 38.4933 72.9562 37.479 72.2176 36.1495C71.4846 34.8143 71.1182 33.1893 71.1182 31.2745C71.1182 29.354 71.4846 27.7262 72.2176 26.391C72.9562 25.0558 73.9534 24.0415 75.2091 23.3484C76.4648 22.6552 77.8767 22.3086 79.4449 22.3086C81.0074 22.3086 82.4165 22.6552 83.6721 23.3484C84.9335 24.0415 85.9335 25.0558 86.6721 26.391C87.4108 27.7262 87.7801 29.354 87.7801 31.2745ZM83.4676 31.2745C83.4676 30.1381 83.3057 29.1779 82.9818 28.3938C82.6636 27.6097 82.2034 27.016 81.6011 26.6126C81.0045 26.2092 80.2858 26.0075 79.4449 26.0075C78.6096 26.0075 77.8909 26.2092 77.2886 26.6126C76.6863 27.016 76.2233 27.6097 75.8994 28.3938C75.5812 29.1779 75.4221 30.1381 75.4221 31.2745C75.4221 32.4109 75.5812 33.3711 75.8994 34.1552C76.2233 34.9393 76.6863 35.533 77.2886 35.9364C77.8909 36.3398 78.6096 36.5415 79.4449 36.5415C80.2858 36.5415 81.0045 36.3398 81.6011 35.9364C82.2034 35.533 82.6636 34.9393 82.9818 34.1552C83.3057 33.3711 83.4676 32.4109 83.4676 31.2745Z" fill="#FFEB9B"/>
</g>
</g>
<path d="M96.0052 60.01C101.544 60.01 106.958 58.3677 111.564 55.2903C116.169 52.2133 119.759 47.8395 121.879 42.7219C123.998 37.6047 124.553 31.9741 123.472 26.5415C122.391 21.1092 119.724 16.1191 115.808 12.2025C111.891 8.28591 106.901 5.61869 101.468 4.53813C96.0362 3.45753 90.4052 4.01214 85.2879 6.13177C80.1707 8.25139 75.7967 11.8409 72.7194 16.4465C69.6423 21.0515 68 26.4663 68 32.0051C68 39.4326 70.9503 46.5555 76.2024 51.8076C81.4543 57.0597 88.5777 60.01 96.0052 60.01Z" fill="#0B1015"/>
<g opacity="0.75">
<g filter="url(#filter10_d_7953_599)">
<path d="M124.012 31.9828C124.017 38.4139 121.809 44.6509 117.758 49.6459C113.708 54.641 108.061 58.0898 101.768 59.4129C95.4745 60.736 88.9174 59.8529 83.1982 56.9118C77.4791 53.9707 72.9464 49.1509 70.3616 43.2621C67.7768 37.3734 67.2975 30.7744 69.0042 24.574C70.7108 18.3735 74.4994 12.9493 79.7335 9.21258C84.9676 5.47589 91.3283 3.65443 97.7469 4.05418C104.166 4.45394 110.251 7.05057 114.981 11.4078C117.825 14.028 120.096 17.2089 121.65 20.7499C123.205 24.291 124.009 28.1156 124.012 31.9828V31.9828Z" fill="#F0CD00"/>
</g>
<g filter="url(#filter11_d_7953_599)">
<path d="M124.012 31.982C123.815 37.2635 122.069 42.3704 118.991 46.6669C115.913 50.9634 111.64 54.2595 106.702 56.1448C101.765 58.0301 96.3818 58.4213 91.2236 57.2697C86.0655 56.118 81.3601 53.4745 77.6934 49.6681C74.0267 45.8618 71.5607 41.0609 70.6026 35.8633C69.6445 30.6658 70.2365 25.3011 72.305 20.4376C74.3734 15.574 77.8269 11.4264 82.2354 8.51121C86.6438 5.59603 91.8125 4.04211 97.0976 4.04297C104.327 4.31335 111.17 7.37524 116.189 12.5852C121.207 17.7953 124.011 24.7478 124.012 31.982Z" fill="#FFDE50"/>
</g>
<path d="M114.981 11.4083L75.4814 50.9083C74.1353 49.4461 72.9483 47.8452 71.9404 46.1323L110.21 7.86328C111.922 8.8724 113.521 10.0608 114.981 11.4083V11.4083Z" fill="#FFEC9F" fill-opacity="0.6"/>
<path d="M122.083 21.7636L85.831 58.0156C83.2845 57.0147 80.8992 55.6444 78.752 53.9486L118.019 14.6836C119.714 16.8315 121.083 19.217 122.083 21.7636V21.7636Z" fill="#FFEC9F" fill-opacity="0.6"/>
<path d="M117.779 31.9828C117.798 37.7338 115.536 43.2576 111.488 47.3433C107.441 51.4289 101.939 53.7431 96.1877 53.7784C90.4368 53.8138 84.9065 51.5674 80.8092 47.5318C76.7119 43.4962 74.382 38.0006 74.3301 32.2498V31.9828C74.3301 26.221 76.619 20.6951 80.6932 16.6209C84.7674 12.5467 90.2932 10.2578 96.0551 10.2578H96.3231C102.039 10.3262 107.497 12.6452 111.514 16.7118C115.531 20.7784 117.783 26.2647 117.781 31.9808L117.779 31.9828Z" fill="#FAA300"/>
<path d="M111.419 16.6219L80.6979 47.3459C76.6801 43.3411 74.3958 37.9185 74.3369 32.2459V31.9789C74.3369 26.2174 76.6255 20.6919 80.6993 16.6177C84.7731 12.5435 90.2984 10.2544 96.0599 10.2539H96.3279C101.998 10.3208 107.415 12.6069 111.419 16.6219V16.6219Z" fill="#FFBD00"/>
<path d="M117.778 31.9828C117.778 34.8359 117.216 37.661 116.125 40.2969C115.033 42.9328 113.433 45.3279 111.415 47.3454C109.398 49.3628 107.003 50.9632 104.367 52.055C101.731 53.1468 98.9062 53.7088 96.0532 53.7088C95.6412 53.7088 95.2322 53.6975 94.8262 53.6748C100.368 53.3622 105.579 50.9406 109.392 46.9069C113.204 42.8733 115.328 37.5335 115.328 31.9833C115.328 26.4331 113.204 21.0933 109.392 17.0597C105.579 13.0261 100.368 10.6045 94.8262 10.2918C95.2322 10.2691 95.6412 10.2578 96.0532 10.2578C101.815 10.2578 107.341 12.5467 111.415 16.6209C115.489 20.6951 117.778 26.221 117.778 31.9828V31.9828Z" fill="#F68E00"/>
<path d="M80.3213 41.0018V23.5472H84.54V37.5756H91.8014V41.0018H80.3213Z" fill="#CC7600"/>
<path d="M99.979 34.729H103.388L104.837 36.5785L106.737 38.7603L109.661 42.3654H105.843L103.797 39.9194L102.587 38.1808L99.979 34.729ZM109.78 32.2745C109.78 34.195 109.411 35.8228 108.672 37.158C107.934 38.4933 106.934 39.5075 105.672 40.2006C104.416 40.8938 103.007 41.2404 101.445 41.2404C99.8767 41.2404 98.4648 40.891 97.2091 40.1921C95.9534 39.4933 94.9562 38.479 94.2176 37.1495C93.4846 35.8143 93.1182 34.1893 93.1182 32.2745C93.1182 30.354 93.4846 28.7262 94.2176 27.391C94.9562 26.0558 95.9534 25.0415 97.2091 24.3484C98.4648 23.6552 99.8767 23.3086 101.445 23.3086C103.007 23.3086 104.416 23.6552 105.672 24.3484C106.934 25.0415 107.934 26.0558 108.672 27.391C109.411 28.7262 109.78 30.354 109.78 32.2745ZM105.468 32.2745C105.468 31.1381 105.306 30.1779 104.982 29.3938C104.664 28.6097 104.203 28.016 103.601 27.6126C103.005 27.2092 102.286 27.0075 101.445 27.0075C100.61 27.0075 99.8909 27.2092 99.2886 27.6126C98.6863 28.016 98.2233 28.6097 97.8994 29.3938C97.5812 30.1779 97.4221 31.1381 97.4221 32.2745C97.4221 33.4109 97.5812 34.3711 97.8994 35.1552C98.2233 35.9393 98.6863 36.533 99.2886 36.9364C99.8909 37.3398 100.61 37.5415 101.445 37.5415C102.286 37.5415 103.005 37.3398 103.601 36.9364C104.203 36.533 104.664 35.9393 104.982 35.1552C105.306 34.3711 105.468 33.4109 105.468 32.2745Z" fill="#CC7600"/>
<path d="M81.3213 40.0018V22.5472H85.54V36.5756H92.8014V40.0018H81.3213Z" fill="#FFEA94"/>
<path d="M100.979 33.729H104.388L105.837 35.5785L107.737 37.7603L110.661 41.3654H106.843L104.797 38.9194L103.587 37.1808L100.979 33.729ZM110.78 31.2745C110.78 33.195 110.411 34.8228 109.672 36.158C108.934 37.4933 107.934 38.5075 106.672 39.2006C105.416 39.8938 104.007 40.2404 102.445 40.2404C100.877 40.2404 99.4648 39.891 98.2091 39.1921C96.9534 38.4933 95.9562 37.479 95.2176 36.1495C94.4846 34.8143 94.1182 33.1893 94.1182 31.2745C94.1182 29.354 94.4846 27.7262 95.2176 26.391C95.9562 25.0558 96.9534 24.0415 98.2091 23.3484C99.4648 22.6552 100.877 22.3086 102.445 22.3086C104.007 22.3086 105.416 22.6552 106.672 23.3484C107.934 24.0415 108.934 25.0558 109.672 26.391C110.411 27.7262 110.78 29.354 110.78 31.2745ZM106.468 31.2745C106.468 30.1381 106.306 29.1779 105.982 28.3938C105.664 27.6097 105.203 27.016 104.601 26.6126C104.005 26.2092 103.286 26.0075 102.445 26.0075C101.61 26.0075 100.891 26.2092 100.289 26.6126C99.6863 27.016 99.2233 27.6097 98.8994 28.3938C98.5812 29.1779 98.4221 30.1381 98.4221 31.2745C98.4221 32.4109 98.5812 33.3711 98.8994 34.1552C99.2233 34.9393 99.6863 35.533 100.289 35.9364C100.891 36.3398 101.61 36.5415 102.445 36.5415C103.286 36.5415 104.005 36.3398 104.601 35.9364C105.203 35.533 105.664 34.9393 105.982 34.1552C106.306 33.3711 106.468 32.4109 106.468 31.2745Z" fill="#FFEA94"/>
<g filter="url(#filter12_d_7953_599)">
<path d="M81.3213 40.0018V22.5472H85.54V36.5756H92.8014V40.0018H81.3213Z" fill="#FFEA94"/>
<path d="M100.979 33.729H104.388L105.837 35.5785L107.737 37.7603L110.661 41.3654H106.843L104.797 38.9194L103.587 37.1808L100.979 33.729ZM110.78 31.2745C110.78 33.195 110.411 34.8228 109.672 36.158C108.934 37.4933 107.934 38.5075 106.672 39.2006C105.416 39.8938 104.007 40.2404 102.445 40.2404C100.877 40.2404 99.4648 39.891 98.2091 39.1921C96.9534 38.4933 95.9562 37.479 95.2176 36.1495C94.4846 34.8143 94.1182 33.1893 94.1182 31.2745C94.1182 29.354 94.4846 27.7262 95.2176 26.391C95.9562 25.0558 96.9534 24.0415 98.2091 23.3484C99.4648 22.6552 100.877 22.3086 102.445 22.3086C104.007 22.3086 105.416 22.6552 106.672 23.3484C107.934 24.0415 108.934 25.0558 109.672 26.391C110.411 27.7262 110.78 29.354 110.78 31.2745ZM106.468 31.2745C106.468 30.1381 106.306 29.1779 105.982 28.3938C105.664 27.6097 105.203 27.016 104.601 26.6126C104.005 26.2092 103.286 26.0075 102.445 26.0075C101.61 26.0075 100.891 26.2092 100.289 26.6126C99.6863 27.016 99.2233 27.6097 98.8994 28.3938C98.5812 29.1779 98.4221 30.1381 98.4221 31.2745C98.4221 32.4109 98.5812 33.3711 98.8994 34.1552C99.2233 34.9393 99.6863 35.533 100.289 35.9364C100.891 36.3398 101.61 36.5415 102.445 36.5415C103.286 36.5415 104.005 36.3398 104.601 35.9364C105.203 35.533 105.664 34.9393 105.982 34.1552C106.306 33.3711 106.468 32.4109 106.468 31.2745Z" fill="#FFEA94"/>
</g>
<g filter="url(#filter13_f_7953_599)">
<path d="M81.3213 40.0018V22.5472H85.54V36.5756H92.8014V40.0018H81.3213Z" fill="#FFEB9B"/>
<path d="M100.979 33.729H104.388L105.837 35.5785L107.737 37.7603L110.661 41.3654H106.843L104.797 38.9194L103.587 37.1808L100.979 33.729ZM110.78 31.2745C110.78 33.195 110.411 34.8228 109.672 36.158C108.934 37.4933 107.934 38.5075 106.672 39.2006C105.416 39.8938 104.007 40.2404 102.445 40.2404C100.877 40.2404 99.4648 39.891 98.2091 39.1921C96.9534 38.4933 95.9562 37.479 95.2176 36.1495C94.4846 34.8143 94.1182 33.1893 94.1182 31.2745C94.1182 29.354 94.4846 27.7262 95.2176 26.391C95.9562 25.0558 96.9534 24.0415 98.2091 23.3484C99.4648 22.6552 100.877 22.3086 102.445 22.3086C104.007 22.3086 105.416 22.6552 106.672 23.3484C107.934 24.0415 108.934 25.0558 109.672 26.391C110.411 27.7262 110.78 29.354 110.78 31.2745ZM106.468 31.2745C106.468 30.1381 106.306 29.1779 105.982 28.3938C105.664 27.6097 105.203 27.016 104.601 26.6126C104.005 26.2092 103.286 26.0075 102.445 26.0075C101.61 26.0075 100.891 26.2092 100.289 26.6126C99.6863 27.016 99.2233 27.6097 98.8994 28.3938C98.5812 29.1779 98.4221 30.1381 98.4221 31.2745C98.4221 32.4109 98.5812 33.3711 98.8994 34.1552C99.2233 34.9393 99.6863 35.533 100.289 35.9364C100.891 36.3398 101.61 36.5415 102.445 36.5415C103.286 36.5415 104.005 36.3398 104.601 35.9364C105.203 35.533 105.664 34.9393 105.982 34.1552C106.306 33.3711 106.468 32.4109 106.468 31.2745Z" fill="#FFEB9B"/>
</g>
</g>
<path d="M120.005 60.01C125.544 60.01 130.958 58.3677 135.564 55.2903C140.169 52.2133 143.759 47.8395 145.879 42.7219C147.998 37.6047 148.553 31.9741 147.472 26.5415C146.391 21.1092 143.724 16.1191 139.808 12.2025C135.891 8.28591 130.901 5.61869 125.468 4.53813C120.036 3.45753 114.405 4.01214 109.288 6.13177C104.171 8.25139 99.7967 11.8409 96.7194 16.4465C93.6423 21.0515 92 26.4663 92 32.0051C92 39.4326 94.9503 46.5555 100.202 51.8076C105.454 57.0597 112.578 60.01 120.005 60.01Z" fill="white"/>
<g filter="url(#filter14_d_7953_599)">
<path d="M148.012 31.9828C148.017 38.4139 145.809 44.6509 141.758 49.6459C137.708 54.641 132.061 58.0898 125.768 59.4129C119.474 60.736 112.917 59.8529 107.198 56.9118C101.479 53.9707 96.9464 49.1509 94.3616 43.2621C91.7768 37.3734 91.2975 30.7744 93.0042 24.574C94.7108 18.3735 98.4994 12.9493 103.734 9.21258C108.968 5.47589 115.328 3.65443 121.747 4.05418C128.166 4.45394 134.251 7.05057 138.981 11.4078C141.825 14.028 144.096 17.2089 145.65 20.7499C147.205 24.291 148.009 28.1156 148.012 31.9828V31.9828Z" fill="#F0CD00"/>
</g>
<g filter="url(#filter15_d_7953_599)">
<path d="M148.012 31.982C147.815 37.2635 146.069 42.3704 142.991 46.6669C139.913 50.9634 135.64 54.2595 130.702 56.1448C125.765 58.0301 120.382 58.4213 115.224 57.2697C110.065 56.118 105.36 53.4745 101.693 49.6681C98.0267 45.8618 95.5607 41.0609 94.6026 35.8633C93.6445 30.6658 94.2365 25.3011 96.305 20.4376C98.3734 15.574 101.827 11.4264 106.235 8.51121C110.644 5.59603 115.812 4.04211 121.098 4.04297C128.327 4.31335 135.17 7.37524 140.189 12.5852C145.207 17.7953 148.011 24.7478 148.012 31.982Z" fill="#FFDE50"/>
</g>
<path d="M138.981 11.4083L99.4814 50.9083C98.1353 49.4461 96.9483 47.8452 95.9404 46.1323L134.21 7.86328C135.922 8.8724 137.521 10.0608 138.981 11.4083V11.4083Z" fill="#FFEC9F" fill-opacity="0.6"/>
<path d="M146.083 21.7636L109.831 58.0156C107.284 57.0147 104.899 55.6444 102.752 53.9486L142.019 14.6836C143.714 16.8315 145.083 19.217 146.083 21.7636V21.7636Z" fill="#FFEC9F" fill-opacity="0.6"/>
<path d="M141.779 31.9828C141.798 37.7338 139.536 43.2576 135.488 47.3433C131.441 51.4289 125.939 53.7431 120.188 53.7784C114.437 53.8138 108.907 51.5674 104.809 47.5318C100.712 43.4962 98.382 38.0006 98.3301 32.2498V31.9828C98.3301 26.221 100.619 20.6951 104.693 16.6209C108.767 12.5467 114.293 10.2578 120.055 10.2578H120.323C126.039 10.3262 131.497 12.6452 135.514 16.7118C139.531 20.7784 141.783 26.2647 141.781 31.9808L141.779 31.9828Z" fill="#FAA300"/>
<path d="M135.419 16.6219L104.698 47.3459C100.68 43.3411 98.3958 37.9185 98.3369 32.2459V31.9789C98.3369 26.2174 100.626 20.6919 104.699 16.6177C108.773 12.5435 114.298 10.2544 120.06 10.2539H120.328C125.998 10.3208 131.415 12.6069 135.419 16.6219V16.6219Z" fill="#FFBD00"/>
<path d="M141.778 31.9828C141.778 34.8359 141.216 37.661 140.125 40.2969C139.033 42.9328 137.433 45.3279 135.415 47.3454C133.398 49.3628 131.003 50.9632 128.367 52.055C125.731 53.1468 122.906 53.7088 120.053 53.7088C119.641 53.7088 119.232 53.6975 118.826 53.6748C124.368 53.3622 129.579 50.9406 133.392 46.9069C137.204 42.8733 139.328 37.5335 139.328 31.9833C139.328 26.4331 137.204 21.0933 133.392 17.0597C129.579 13.0261 124.368 10.6045 118.826 10.2918C119.232 10.2691 119.641 10.2578 120.053 10.2578C125.815 10.2578 131.341 12.5467 135.415 16.6209C139.489 20.6951 141.778 26.221 141.778 31.9828V31.9828Z" fill="#F68E00"/>
<path d="M104.321 41.0018V23.5472H108.54V37.5756H115.801V41.0018H104.321Z" fill="#CC7600"/>
<path d="M123.979 34.729H127.388L128.837 36.5785L130.737 38.7603L133.661 42.3654H129.843L127.797 39.9194L126.587 38.1808L123.979 34.729ZM133.78 32.2745C133.78 34.195 133.411 35.8228 132.672 37.158C131.934 38.4933 130.934 39.5075 129.672 40.2006C128.416 40.8938 127.007 41.2404 125.445 41.2404C123.877 41.2404 122.465 40.891 121.209 40.1921C119.953 39.4933 118.956 38.479 118.218 37.1495C117.485 35.8143 117.118 34.1893 117.118 32.2745C117.118 30.354 117.485 28.7262 118.218 27.391C118.956 26.0558 119.953 25.0415 121.209 24.3484C122.465 23.6552 123.877 23.3086 125.445 23.3086C127.007 23.3086 128.416 23.6552 129.672 24.3484C130.934 25.0415 131.934 26.0558 132.672 27.391C133.411 28.7262 133.78 30.354 133.78 32.2745ZM129.468 32.2745C129.468 31.1381 129.306 30.1779 128.982 29.3938C128.664 28.6097 128.203 28.016 127.601 27.6126C127.005 27.2092 126.286 27.0075 125.445 27.0075C124.61 27.0075 123.891 27.2092 123.289 27.6126C122.686 28.016 122.223 28.6097 121.899 29.3938C121.581 30.1779 121.422 31.1381 121.422 32.2745C121.422 33.4109 121.581 34.3711 121.899 35.1552C122.223 35.9393 122.686 36.533 123.289 36.9364C123.891 37.3398 124.61 37.5415 125.445 37.5415C126.286 37.5415 127.005 37.3398 127.601 36.9364C128.203 36.533 128.664 35.9393 128.982 35.1552C129.306 34.3711 129.468 33.4109 129.468 32.2745Z" fill="#CC7600"/>
<path d="M105.321 40.0018V22.5472H109.54V36.5756H116.801V40.0018H105.321Z" fill="#FFEA94"/>
<path d="M124.979 33.729H128.388L129.837 35.5785L131.737 37.7603L134.661 41.3654H130.843L128.797 38.9194L127.587 37.1808L124.979 33.729ZM134.78 31.2745C134.78 33.195 134.411 34.8228 133.672 36.158C132.934 37.4933 131.934 38.5075 130.672 39.2006C129.416 39.8938 128.007 40.2404 126.445 40.2404C124.877 40.2404 123.465 39.891 122.209 39.1921C120.953 38.4933 119.956 37.479 119.218 36.1495C118.485 34.8143 118.118 33.1893 118.118 31.2745C118.118 29.354 118.485 27.7262 119.218 26.391C119.956 25.0558 120.953 24.0415 122.209 23.3484C123.465 22.6552 124.877 22.3086 126.445 22.3086C128.007 22.3086 129.416 22.6552 130.672 23.3484C131.934 24.0415 132.934 25.0558 133.672 26.391C134.411 27.7262 134.78 29.354 134.78 31.2745ZM130.468 31.2745C130.468 30.1381 130.306 29.1779 129.982 28.3938C129.664 27.6097 129.203 27.016 128.601 26.6126C128.005 26.2092 127.286 26.0075 126.445 26.0075C125.61 26.0075 124.891 26.2092 124.289 26.6126C123.686 27.016 123.223 27.6097 122.899 28.3938C122.581 29.1779 122.422 30.1381 122.422 31.2745C122.422 32.4109 122.581 33.3711 122.899 34.1552C123.223 34.9393 123.686 35.533 124.289 35.9364C124.891 36.3398 125.61 36.5415 126.445 36.5415C127.286 36.5415 128.005 36.3398 128.601 35.9364C129.203 35.533 129.664 34.9393 129.982 34.1552C130.306 33.3711 130.468 32.4109 130.468 31.2745Z" fill="#FFEA94"/>
<g filter="url(#filter16_d_7953_599)">
<path d="M105.321 40.0018V22.5472H109.54V36.5756H116.801V40.0018H105.321Z" fill="#FFEA94"/>
<path d="M124.979 33.729H128.388L129.837 35.5785L131.737 37.7603L134.661 41.3654H130.843L128.797 38.9194L127.587 37.1808L124.979 33.729ZM134.78 31.2745C134.78 33.195 134.411 34.8228 133.672 36.158C132.934 37.4933 131.934 38.5075 130.672 39.2006C129.416 39.8938 128.007 40.2404 126.445 40.2404C124.877 40.2404 123.465 39.891 122.209 39.1921C120.953 38.4933 119.956 37.479 119.218 36.1495C118.485 34.8143 118.118 33.1893 118.118 31.2745C118.118 29.354 118.485 27.7262 119.218 26.391C119.956 25.0558 120.953 24.0415 122.209 23.3484C123.465 22.6552 124.877 22.3086 126.445 22.3086C128.007 22.3086 129.416 22.6552 130.672 23.3484C131.934 24.0415 132.934 25.0558 133.672 26.391C134.411 27.7262 134.78 29.354 134.78 31.2745ZM130.468 31.2745C130.468 30.1381 130.306 29.1779 129.982 28.3938C129.664 27.6097 129.203 27.016 128.601 26.6126C128.005 26.2092 127.286 26.0075 126.445 26.0075C125.61 26.0075 124.891 26.2092 124.289 26.6126C123.686 27.016 123.223 27.6097 122.899 28.3938C122.581 29.1779 122.422 30.1381 122.422 31.2745C122.422 32.4109 122.581 33.3711 122.899 34.1552C123.223 34.9393 123.686 35.533 124.289 35.9364C124.891 36.3398 125.61 36.5415 126.445 36.5415C127.286 36.5415 128.005 36.3398 128.601 35.9364C129.203 35.533 129.664 34.9393 129.982 34.1552C130.306 33.3711 130.468 32.4109 130.468 31.2745Z" fill="#FFEA94"/>
</g>
<g filter="url(#filter17_f_7953_599)">
<path d="M105.321 40.0018V22.5472H109.54V36.5756H116.801V40.0018H105.321Z" fill="#FFEB9B"/>
<path d="M124.979 33.729H128.388L129.837 35.5785L131.737 37.7603L134.661 41.3654H130.843L128.797 38.9194L127.587 37.1808L124.979 33.729ZM134.78 31.2745C134.78 33.195 134.411 34.8228 133.672 36.158C132.934 37.4933 131.934 38.5075 130.672 39.2006C129.416 39.8938 128.007 40.2404 126.445 40.2404C124.877 40.2404 123.465 39.891 122.209 39.1921C120.953 38.4933 119.956 37.479 119.218 36.1495C118.485 34.8143 118.118 33.1893 118.118 31.2745C118.118 29.354 118.485 27.7262 119.218 26.391C119.956 25.0558 120.953 24.0415 122.209 23.3484C123.465 22.6552 124.877 22.3086 126.445 22.3086C128.007 22.3086 129.416 22.6552 130.672 23.3484C131.934 24.0415 132.934 25.0558 133.672 26.391C134.411 27.7262 134.78 29.354 134.78 31.2745ZM130.468 31.2745C130.468 30.1381 130.306 29.1779 129.982 28.3938C129.664 27.6097 129.203 27.016 128.601 26.6126C128.005 26.2092 127.286 26.0075 126.445 26.0075C125.61 26.0075 124.891 26.2092 124.289 26.6126C123.686 27.016 123.223 27.6097 122.899 28.3938C122.581 29.1779 122.422 30.1381 122.422 31.2745C122.422 32.4109 122.581 33.3711 122.899 34.1552C123.223 34.9393 123.686 35.533 124.289 35.9364C124.891 36.3398 125.61 36.5415 126.445 36.5415C127.286 36.5415 128.005 36.3398 128.601 35.9364C129.203 35.533 129.664 34.9393 129.982 34.1552C130.306 33.3711 130.468 32.4109 130.468 31.2745Z" fill="#FFEB9B"/>
</g>
<path d="M422.005 61.01C427.544 61.01 432.958 59.3677 437.564 56.2903C442.169 53.2133 445.759 48.8395 447.879 43.7219C449.998 38.6047 450.553 32.9741 449.472 27.5415C448.391 22.1092 445.724 17.1191 441.808 13.2025C437.891 9.28591 432.901 6.61869 427.468 5.53813C422.036 4.45753 416.405 5.01214 411.288 7.13177C406.171 9.25139 401.797 12.8409 398.719 17.4465C395.642 22.0515 394 27.4663 394 33.0051C394 40.4326 396.95 47.5555 402.202 52.8076C407.454 58.0597 414.578 61.01 422.005 61.01Z" fill="#2C3339"/>
<g opacity="0.1">
<path d="M450.012 32.9828C450.017 39.4139 447.809 45.6509 443.758 50.6459C439.708 55.641 434.061 59.0898 427.768 60.4129C421.474 61.736 414.917 60.8529 409.198 57.9118C403.479 54.9707 398.946 50.1509 396.362 44.2621C393.777 38.3734 393.298 31.7744 395.004 25.574C396.711 19.3735 400.499 13.9493 405.734 10.2126C410.968 6.47589 417.328 4.65443 423.747 5.05418C430.166 5.45394 436.251 8.05057 440.981 12.4078C443.825 15.028 446.096 18.2089 447.65 21.7499C449.205 25.291 450.009 29.1156 450.012 32.9828V32.9828Z" fill="#6B757E"/>
<path d="M450.012 32.982C449.815 38.2635 448.069 43.3704 444.991 47.6669C441.913 51.9634 437.64 55.2595 432.702 57.1448C427.765 59.0301 422.382 59.4213 417.224 58.2697C412.065 57.118 407.36 54.4745 403.693 50.6681C400.027 46.8618 397.561 42.0609 396.603 36.8633C395.644 31.6658 396.236 26.3011 398.305 21.4376C400.373 16.574 403.827 12.4264 408.235 9.51121C412.644 6.59603 417.812 5.04211 423.098 5.04297C430.327 5.31335 437.17 8.37524 442.189 13.5852C447.207 18.7953 450.011 25.7478 450.012 32.982Z" fill="#C1C6C8"/>
<path d="M440.981 12.4083L401.481 51.9083C400.135 50.4461 398.948 48.8452 397.94 47.1323L436.21 8.86328C437.922 9.8724 439.521 11.0608 440.981 12.4083V12.4083Z" fill="#C5C5C5" fill-opacity="0.6"/>
<path d="M448.083 22.7636L411.831 59.0156C409.284 58.0147 406.899 56.6444 404.752 54.9486L444.019 15.6836C445.714 17.8315 447.083 20.217 448.083 22.7636V22.7636Z" fill="#C5C5C5" fill-opacity="0.6"/>
<path d="M443.779 32.9828C443.798 38.7338 441.536 44.2576 437.488 48.3433C433.441 52.4289 427.939 54.7431 422.188 54.7784C416.437 54.8138 410.907 52.5674 406.809 48.5318C402.712 44.4962 400.382 39.0006 400.33 33.2498V32.9828C400.33 27.221 402.619 21.6951 406.693 17.6209C410.767 13.5467 416.293 11.2578 422.055 11.2578H422.323C428.039 11.3262 433.497 13.6452 437.514 17.7118C441.531 21.7784 443.783 27.2647 443.781 32.9808L443.779 32.9828Z" fill="#777C81"/>
<path d="M437.419 17.6219L406.698 48.3459C402.68 44.3411 400.396 38.9185 400.337 33.2459V32.9789C400.337 27.2174 402.626 21.6919 406.699 17.6177C410.773 13.5435 416.298 11.2544 422.06 11.2539H422.328C427.998 11.3208 433.415 13.6069 437.419 17.6219V17.6219Z" fill="#94989A"/>
<path d="M443.778 32.9828C443.778 35.8359 443.216 38.661 442.125 41.2969C441.033 43.9328 439.433 46.3279 437.415 48.3454C435.398 50.3628 433.003 51.9632 430.367 53.055C427.731 54.1468 424.906 54.7088 422.053 54.7088C421.641 54.7088 421.232 54.6975 420.826 54.6748C426.368 54.3622 431.579 51.9406 435.392 47.9069C439.204 43.8733 441.328 38.5335 441.328 32.9833C441.328 27.4331 439.204 22.0933 435.392 18.0597C431.579 14.0261 426.368 11.6045 420.826 11.2918C421.232 11.2691 421.641 11.2578 422.053 11.2578C427.815 11.2578 433.341 13.5467 437.415 17.6209C441.489 21.6951 443.778 27.221 443.778 32.9828V32.9828Z" fill="#646363"/>
<path d="M427.76 36.36C427.76 38.04 427.093 39.4267 425.76 40.52C424.453 41.6133 422.653 42.2933 420.36 42.56L419.72 48.36L416.56 48.68L416.32 48.4L416.96 42.64C416.133 42.56 415.373 42.44 414.68 42.28C413.987 42.0933 413.44 41.9333 413.04 41.8C412.667 41.64 412.427 41.5333 412.32 41.48L412 41C412.053 40.68 412.16 39.9867 412.32 38.92C412.48 37.8267 412.573 36.7733 412.6 35.76L415.72 35.52C415.72 37.0133 415.96 38.0533 416.44 38.64C416.947 39.2 417.84 39.48 419.12 39.48C420.08 39.48 420.84 39.2933 421.4 38.92C421.96 38.5467 422.24 38.0533 422.24 37.44C422.24 36.8267 421.92 36.3067 421.28 35.88C420.667 35.4267 419.68 34.9067 418.32 34.32L417.44 33.96C415.813 33.1867 414.547 32.3867 413.64 31.56C412.733 30.7333 412.28 29.64 412.28 28.28C412.28 26.68 412.907 25.32 414.16 24.2C415.44 23.08 417.133 22.3733 419.24 22.08L419.84 16.36L423.04 16L423.28 16.36L422.64 21.96C423.44 22.0133 424.173 22.1067 424.84 22.24C425.533 22.3467 426.067 22.4533 426.44 22.56C426.84 22.6667 427.093 22.7333 427.2 22.76L427.48 23.24C427.427 23.5333 427.307 24.2133 427.12 25.28C426.933 26.32 426.787 27.4267 426.68 28.6L423.84 28.84L423.52 28.6L423.56 27.72C423.56 26.8667 423.32 26.2533 422.84 25.88C422.36 25.48 421.6 25.28 420.56 25.28C419.707 25.28 419 25.4667 418.44 25.84C417.907 26.1867 417.64 26.6533 417.64 27.24C417.64 27.9067 417.987 28.4667 418.68 28.92C419.373 29.3467 420.467 29.88 421.96 30.52C423.773 31.2933 425.187 32.1067 426.2 32.96C427.24 33.7867 427.76 34.92 427.76 36.36Z" fill="#4B4B4B"/>
<path d="M430.12 36.0397C430.12 37.7197 429.454 39.1064 428.12 40.1997C426.814 41.293 425.014 41.973 422.72 42.2397L422.08 48.0397L418.92 48.3597L418.68 48.0797L419.32 42.3197C418.494 42.2397 417.734 42.1197 417.04 41.9597C416.347 41.773 415.8 41.613 415.4 41.4797C415.027 41.3197 414.787 41.213 414.68 41.1597L414.36 40.6797C414.414 40.3597 414.52 39.6664 414.68 38.5997C414.84 37.5064 414.934 36.453 414.96 35.4397L418.08 35.1997C418.08 36.693 418.32 37.733 418.8 38.3197C419.307 38.8797 420.2 39.1597 421.48 39.1597C422.44 39.1597 423.2 38.973 423.76 38.5997C424.32 38.2264 424.6 37.733 424.6 37.1197C424.6 36.5064 424.28 35.9864 423.64 35.5597C423.027 35.1064 422.04 34.5864 420.68 33.9997L419.8 33.6397C418.174 32.8664 416.907 32.0664 416 31.2397C415.094 30.413 414.64 29.3197 414.64 27.9597C414.64 26.3597 415.267 24.9997 416.52 23.8797C417.8 22.7597 419.494 22.053 421.6 21.7597L422.2 16.0397L425.4 15.6797L425.64 16.0397L425 21.6397C425.8 21.693 426.534 21.7864 427.2 21.9197C427.894 22.0264 428.427 22.133 428.8 22.2397C429.2 22.3464 429.454 22.413 429.56 22.4397L429.84 22.9197C429.787 23.213 429.667 23.893 429.48 24.9597C429.294 25.9997 429.147 27.1064 429.04 28.2797L426.2 28.5197L425.88 28.2797L425.92 27.3997C425.92 26.5464 425.68 25.933 425.2 25.5597C424.72 25.1597 423.96 24.9597 422.92 24.9597C422.067 24.9597 421.36 25.1464 420.8 25.5197C420.267 25.8664 420 26.333 420 26.9197C420 27.5864 420.347 28.1464 421.04 28.5997C421.734 29.0264 422.827 29.5597 424.32 30.1997C426.134 30.973 427.547 31.7864 428.56 32.6397C429.6 33.4664 430.12 34.5997 430.12 36.0397Z" fill="#F4F4F4"/>
</g>
<path d="M394.005 61.01C399.544 61.01 404.958 59.3677 409.564 56.2903C414.169 53.2133 417.759 48.8395 419.879 43.7219C421.998 38.6047 422.553 32.9741 421.472 27.5415C420.391 22.1092 417.724 17.1191 413.808 13.2025C409.891 9.28591 404.901 6.61869 399.468 5.53813C394.036 4.45753 388.405 5.01214 383.288 7.13177C378.171 9.25139 373.797 12.8409 370.719 17.4465C367.642 22.0515 366 27.4663 366 33.0051C366 40.4326 368.95 47.5555 374.202 52.8076C379.454 58.0597 386.578 61.01 394.005 61.01Z" fill="#29323C"/>
<g opacity="0.25">
<g filter="url(#filter18_d_7953_599)">
<path d="M422.012 32.9828C422.017 39.4139 419.809 45.6509 415.758 50.6459C411.708 55.641 406.061 59.0898 399.768 60.4129C393.474 61.736 386.917 60.8529 381.198 57.9118C375.479 54.9707 370.946 50.1509 368.362 44.2621C365.777 38.3734 365.298 31.7744 367.004 25.574C368.711 19.3735 372.499 13.9493 377.734 10.2126C382.968 6.47589 389.328 4.65443 395.747 5.05418C402.166 5.45394 408.251 8.05057 412.981 12.4078C415.825 15.028 418.096 18.2089 419.65 21.7499C421.205 25.291 422.009 29.1156 422.012 32.9828V32.9828Z" fill="#6B757E"/>
</g>
<g filter="url(#filter19_d_7953_599)">
<path d="M422.012 32.982C421.815 38.2635 420.069 43.3704 416.991 47.6669C413.913 51.9634 409.64 55.2595 404.702 57.1448C399.765 59.0301 394.382 59.4213 389.224 58.2697C384.065 57.118 379.36 54.4745 375.693 50.6681C372.027 46.8618 369.561 42.0609 368.603 36.8633C367.644 31.6658 368.236 26.3011 370.305 21.4376C372.373 16.574 375.827 12.4264 380.235 9.51121C384.644 6.59603 389.812 5.04211 395.098 5.04297C402.327 5.31335 409.17 8.37524 414.189 13.5852C419.207 18.7953 422.011 25.7478 422.012 32.982Z" fill="#C1C6C8"/>
</g>
<path d="M412.981 12.4083L373.481 51.9083C372.135 50.4461 370.948 48.8452 369.94 47.1323L408.21 8.86328C409.922 9.8724 411.521 11.0608 412.981 12.4083V12.4083Z" fill="#C5C5C5" fill-opacity="0.6"/>
<path d="M420.083 22.7636L383.831 59.0156C381.284 58.0147 378.899 56.6444 376.752 54.9486L416.019 15.6836C417.714 17.8315 419.083 20.217 420.083 22.7636V22.7636Z" fill="#C5C5C5" fill-opacity="0.6"/>
<path d="M415.779 32.9828C415.798 38.7338 413.536 44.2576 409.488 48.3433C405.441 52.4289 399.939 54.7431 394.188 54.7784C388.437 54.8138 382.907 52.5674 378.809 48.5318C374.712 44.4962 372.382 39.0006 372.33 33.2498V32.9828C372.33 27.221 374.619 21.6951 378.693 17.6209C382.767 13.5467 388.293 11.2578 394.055 11.2578H394.323C400.039 11.3262 405.497 13.6452 409.514 17.7118C413.531 21.7784 415.783 27.2647 415.781 32.9808L415.779 32.9828Z" fill="#777C81"/>
<path d="M409.419 17.6219L378.698 48.3459C374.68 44.3411 372.396 38.9185 372.337 33.2459V32.9789C372.337 27.2174 374.626 21.6919 378.699 17.6177C382.773 13.5435 388.298 11.2544 394.06 11.2539H394.328C399.998 11.3208 405.415 13.6069 409.419 17.6219V17.6219Z" fill="#94989A"/>
<path d="M415.778 32.9828C415.778 35.8359 415.216 38.661 414.125 41.2969C413.033 43.9328 411.433 46.3279 409.415 48.3454C407.398 50.3628 405.003 51.9632 402.367 53.055C399.731 54.1468 396.906 54.7088 394.053 54.7088C393.641 54.7088 393.232 54.6975 392.826 54.6748C398.368 54.3622 403.579 51.9406 407.392 47.9069C411.204 43.8733 413.328 38.5335 413.328 32.9833C413.328 27.4331 411.204 22.0933 407.392 18.0597C403.579 14.0261 398.368 11.6045 392.826 11.2918C393.232 11.2691 393.641 11.2578 394.053 11.2578C399.815 11.2578 405.341 13.5467 409.415 17.6209C413.489 21.6951 415.778 27.221 415.778 32.9828V32.9828Z" fill="#646363"/>
<path d="M399.76 36.36C399.76 38.04 399.093 39.4267 397.76 40.52C396.453 41.6133 394.653 42.2933 392.36 42.56L391.72 48.36L388.56 48.68L388.32 48.4L388.96 42.64C388.133 42.56 387.373 42.44 386.68 42.28C385.987 42.0933 385.44 41.9333 385.04 41.8C384.667 41.64 384.427 41.5333 384.32 41.48L384 41C384.053 40.68 384.16 39.9867 384.32 38.92C384.48 37.8267 384.573 36.7733 384.6 35.76L387.72 35.52C387.72 37.0133 387.96 38.0533 388.44 38.64C388.947 39.2 389.84 39.48 391.12 39.48C392.08 39.48 392.84 39.2933 393.4 38.92C393.96 38.5467 394.24 38.0533 394.24 37.44C394.24 36.8267 393.92 36.3067 393.28 35.88C392.667 35.4267 391.68 34.9067 390.32 34.32L389.44 33.96C387.813 33.1867 386.547 32.3867 385.64 31.56C384.733 30.7333 384.28 29.64 384.28 28.28C384.28 26.68 384.907 25.32 386.16 24.2C387.44 23.08 389.133 22.3733 391.24 22.08L391.84 16.36L395.04 16L395.28 16.36L394.64 21.96C395.44 22.0133 396.173 22.1067 396.84 22.24C397.533 22.3467 398.067 22.4533 398.44 22.56C398.84 22.6667 399.093 22.7333 399.2 22.76L399.48 23.24C399.427 23.5333 399.307 24.2133 399.12 25.28C398.933 26.32 398.787 27.4267 398.68 28.6L395.84 28.84L395.52 28.6L395.56 27.72C395.56 26.8667 395.32 26.2533 394.84 25.88C394.36 25.48 393.6 25.28 392.56 25.28C391.707 25.28 391 25.4667 390.44 25.84C389.907 26.1867 389.64 26.6533 389.64 27.24C389.64 27.9067 389.987 28.4667 390.68 28.92C391.373 29.3467 392.467 29.88 393.96 30.52C395.773 31.2933 397.187 32.1067 398.2 32.96C399.24 33.7867 399.76 34.92 399.76 36.36Z" fill="#4B4B4B"/>
<path d="M402.12 36.0397C402.12 37.7197 401.454 39.1064 400.12 40.1997C398.814 41.293 397.014 41.973 394.72 42.2397L394.08 48.0397L390.92 48.3597L390.68 48.0797L391.32 42.3197C390.494 42.2397 389.734 42.1197 389.04 41.9597C388.347 41.773 387.8 41.613 387.4 41.4797C387.027 41.3197 386.787 41.213 386.68 41.1597L386.36 40.6797C386.414 40.3597 386.52 39.6664 386.68 38.5997C386.84 37.5064 386.934 36.453 386.96 35.4397L390.08 35.1997C390.08 36.693 390.32 37.733 390.8 38.3197C391.307 38.8797 392.2 39.1597 393.48 39.1597C394.44 39.1597 395.2 38.973 395.76 38.5997C396.32 38.2264 396.6 37.733 396.6 37.1197C396.6 36.5064 396.28 35.9864 395.64 35.5597C395.027 35.1064 394.04 34.5864 392.68 33.9997L391.8 33.6397C390.174 32.8664 388.907 32.0664 388 31.2397C387.094 30.413 386.64 29.3197 386.64 27.9597C386.64 26.3597 387.267 24.9997 388.52 23.8797C389.8 22.7597 391.494 22.053 393.6 21.7597L394.2 16.0397L397.4 15.6797L397.64 16.0397L397 21.6397C397.8 21.693 398.534 21.7864 399.2 21.9197C399.894 22.0264 400.427 22.133 400.8 22.2397C401.2 22.3464 401.454 22.413 401.56 22.4397L401.84 22.9197C401.787 23.213 401.667 23.893 401.48 24.9597C401.294 25.9997 401.147 27.1064 401.04 28.2797L398.2 28.5197L397.88 28.2797L397.92 27.3997C397.92 26.5464 397.68 25.933 397.2 25.5597C396.72 25.1597 395.96 24.9597 394.92 24.9597C394.067 24.9597 393.36 25.1464 392.8 25.5197C392.267 25.8664 392 26.333 392 26.9197C392 27.5864 392.347 28.1464 393.04 28.5997C393.734 29.0264 394.827 29.5597 396.32 30.1997C398.134 30.973 399.547 31.7864 400.56 32.6397C401.6 33.4664 402.12 34.5997 402.12 36.0397Z" fill="#F4F4F4"/>
</g>
<path d="M367.005 61.01C372.544 61.01 377.958 59.3677 382.564 56.2903C387.169 53.2133 390.759 48.8395 392.879 43.7219C394.998 38.6047 395.553 32.9741 394.472 27.5415C393.391 22.1092 390.724 17.1191 386.808 13.2025C382.891 9.28591 377.901 6.61869 372.468 5.53813C367.036 4.45753 361.405 5.01214 356.288 7.13177C351.171 9.25139 346.797 12.8409 343.719 17.4465C340.642 22.0515 339 27.4663 339 33.0051C339 40.4326 341.95 47.5555 347.202 52.8076C352.454 58.0597 359.578 61.01 367.005 61.01Z" fill="#2D363F"/>
<g opacity="0.5">
<g filter="url(#filter20_d_7953_599)">
<path d="M395.012 32.9828C395.017 39.4139 392.809 45.6509 388.758 50.6459C384.708 55.641 379.061 59.0898 372.768 60.4129C366.474 61.736 359.917 60.8529 354.198 57.9118C348.479 54.9707 343.946 50.1509 341.362 44.2621C338.777 38.3734 338.298 31.7744 340.004 25.574C341.711 19.3735 345.499 13.9493 350.734 10.2126C355.968 6.47589 362.328 4.65443 368.747 5.05418C375.166 5.45394 381.251 8.05057 385.981 12.4078C388.825 15.028 391.096 18.2089 392.65 21.7499C394.205 25.291 395.009 29.1156 395.012 32.9828V32.9828Z" fill="#6B757E"/>
</g>
<g filter="url(#filter21_d_7953_599)">
<path d="M395.012 32.982C394.815 38.2635 393.069 43.3704 389.991 47.6669C386.913 51.9634 382.64 55.2595 377.702 57.1448C372.765 59.0301 367.382 59.4213 362.224 58.2697C357.065 57.118 352.36 54.4745 348.693 50.6681C345.027 46.8618 342.561 42.0609 341.603 36.8633C340.644 31.6658 341.236 26.3011 343.305 21.4376C345.373 16.574 348.827 12.4264 353.235 9.51121C357.644 6.59603 362.812 5.04211 368.098 5.04297C375.327 5.31335 382.17 8.37524 387.189 13.5852C392.207 18.7953 395.011 25.7478 395.012 32.982Z" fill="#C1C6C8"/>
</g>
<path d="M385.981 12.4083L346.481 51.9083C345.135 50.4461 343.948 48.8452 342.94 47.1323L381.21 8.86328C382.922 9.8724 384.521 11.0608 385.981 12.4083V12.4083Z" fill="#C5C5C5" fill-opacity="0.6"/>
<path d="M393.083 22.7636L356.831 59.0156C354.284 58.0147 351.899 56.6444 349.752 54.9486L389.019 15.6836C390.714 17.8315 392.083 20.217 393.083 22.7636V22.7636Z" fill="#C5C5C5" fill-opacity="0.6"/>
<path d="M388.779 32.9828C388.798 38.7338 386.536 44.2576 382.488 48.3433C378.441 52.4289 372.939 54.7431 367.188 54.7784C361.437 54.8138 355.907 52.5674 351.809 48.5318C347.712 44.4962 345.382 39.0006 345.33 33.2498V32.9828C345.33 27.221 347.619 21.6951 351.693 17.6209C355.767 13.5467 361.293 11.2578 367.055 11.2578H367.323C373.039 11.3262 378.497 13.6452 382.514 17.7118C386.531 21.7784 388.783 27.2647 388.781 32.9808L388.779 32.9828Z" fill="#777C81"/>
<path d="M382.419 17.6219L351.698 48.3459C347.68 44.3411 345.396 38.9185 345.337 33.2459V32.9789C345.337 27.2174 347.626 21.6919 351.699 17.6177C355.773 13.5435 361.298 11.2544 367.06 11.2539H367.328C372.998 11.3208 378.415 13.6069 382.419 17.6219V17.6219Z" fill="#94989A"/>
<path d="M388.778 32.9828C388.778 35.8359 388.216 38.661 387.125 41.2969C386.033 43.9328 384.433 46.3279 382.415 48.3454C380.398 50.3628 378.003 51.9632 375.367 53.055C372.731 54.1468 369.906 54.7088 367.053 54.7088C366.641 54.7088 366.232 54.6975 365.826 54.6748C371.368 54.3622 376.579 51.9406 380.392 47.9069C384.204 43.8733 386.328 38.5335 386.328 32.9833C386.328 27.4331 384.204 22.0933 380.392 18.0597C376.579 14.0261 371.368 11.6045 365.826 11.2918C366.232 11.2691 366.641 11.2578 367.053 11.2578C372.815 11.2578 378.341 13.5467 382.415 17.6209C386.489 21.6951 388.778 27.221 388.778 32.9828V32.9828Z" fill="#646363"/>
<path d="M372.76 36.36C372.76 38.04 372.093 39.4267 370.76 40.52C369.453 41.6133 367.653 42.2933 365.36 42.56L364.72 48.36L361.56 48.68L361.32 48.4L361.96 42.64C361.133 42.56 360.373 42.44 359.68 42.28C358.987 42.0933 358.44 41.9333 358.04 41.8C357.667 41.64 357.427 41.5333 357.32 41.48L357 41C357.053 40.68 357.16 39.9867 357.32 38.92C357.48 37.8267 357.573 36.7733 357.6 35.76L360.72 35.52C360.72 37.0133 360.96 38.0533 361.44 38.64C361.947 39.2 362.84 39.48 364.12 39.48C365.08 39.48 365.84 39.2933 366.4 38.92C366.96 38.5467 367.24 38.0533 367.24 37.44C367.24 36.8267 366.92 36.3067 366.28 35.88C365.667 35.4267 364.68 34.9067 363.32 34.32L362.44 33.96C360.813 33.1867 359.547 32.3867 358.64 31.56C357.733 30.7333 357.28 29.64 357.28 28.28C357.28 26.68 357.907 25.32 359.16 24.2C360.44 23.08 362.133 22.3733 364.24 22.08L364.84 16.36L368.04 16L368.28 16.36L367.64 21.96C368.44 22.0133 369.173 22.1067 369.84 22.24C370.533 22.3467 371.067 22.4533 371.44 22.56C371.84 22.6667 372.093 22.7333 372.2 22.76L372.48 23.24C372.427 23.5333 372.307 24.2133 372.12 25.28C371.933 26.32 371.787 27.4267 371.68 28.6L368.84 28.84L368.52 28.6L368.56 27.72C368.56 26.8667 368.32 26.2533 367.84 25.88C367.36 25.48 366.6 25.28 365.56 25.28C364.707 25.28 364 25.4667 363.44 25.84C362.907 26.1867 362.64 26.6533 362.64 27.24C362.64 27.9067 362.987 28.4667 363.68 28.92C364.373 29.3467 365.467 29.88 366.96 30.52C368.773 31.2933 370.187 32.1067 371.2 32.96C372.24 33.7867 372.76 34.92 372.76 36.36Z" fill="#4B4B4B"/>
<path d="M375.12 36.0397C375.12 37.7197 374.454 39.1064 373.12 40.1997C371.814 41.293 370.014 41.973 367.72 42.2397L367.08 48.0397L363.92 48.3597L363.68 48.0797L364.32 42.3197C363.494 42.2397 362.734 42.1197 362.04 41.9597C361.347 41.773 360.8 41.613 360.4 41.4797C360.027 41.3197 359.787 41.213 359.68 41.1597L359.36 40.6797C359.414 40.3597 359.52 39.6664 359.68 38.5997C359.84 37.5064 359.934 36.453 359.96 35.4397L363.08 35.1997C363.08 36.693 363.32 37.733 363.8 38.3197C364.307 38.8797 365.2 39.1597 366.48 39.1597C367.44 39.1597 368.2 38.973 368.76 38.5997C369.32 38.2264 369.6 37.733 369.6 37.1197C369.6 36.5064 369.28 35.9864 368.64 35.5597C368.027 35.1064 367.04 34.5864 365.68 33.9997L364.8 33.6397C363.174 32.8664 361.907 32.0664 361 31.2397C360.094 30.413 359.64 29.3197 359.64 27.9597C359.64 26.3597 360.267 24.9997 361.52 23.8797C362.8 22.7597 364.494 22.053 366.6 21.7597L367.2 16.0397L370.4 15.6797L370.64 16.0397L370 21.6397C370.8 21.693 371.534 21.7864 372.2 21.9197C372.894 22.0264 373.427 22.133 373.8 22.2397C374.2 22.3464 374.454 22.413 374.56 22.4397L374.84 22.9197C374.787 23.213 374.667 23.893 374.48 24.9597C374.294 25.9997 374.147 27.1064 374.04 28.2797L371.2 28.5197L370.88 28.2797L370.92 27.3997C370.92 26.5464 370.68 25.933 370.2 25.5597C369.72 25.1597 368.96 24.9597 367.92 24.9597C367.067 24.9597 366.36 25.1464 365.8 25.5197C365.267 25.8664 365 26.333 365 26.9197C365 27.5864 365.347 28.1464 366.04 28.5997C366.734 29.0264 367.827 29.5597 369.32 30.1997C371.134 30.973 372.547 31.7864 373.56 32.6397C374.6 33.4664 375.12 34.5997 375.12 36.0397Z" fill="#F4F4F4"/>
</g>
<path d="M340.005 61.01C345.544 61.01 350.958 59.3677 355.564 56.2903C360.169 53.2133 363.759 48.8395 365.879 43.7219C367.998 38.6047 368.553 32.9741 367.472 27.5415C366.391 22.1092 363.724 17.1191 359.808 13.2025C355.891 9.28591 350.901 6.61869 345.468 5.53813C340.036 4.45753 334.405 5.01214 329.288 7.13177C324.171 9.25139 319.797 12.8409 316.719 17.4465C313.642 22.0515 312 27.4663 312 33.0051C312 40.4326 314.95 47.5555 320.202 52.8076C325.454 58.0597 332.578 61.01 340.005 61.01Z" fill="#3B4652"/>
<g opacity="0.75">
<g filter="url(#filter22_d_7953_599)">
<path d="M368.012 32.9828C368.017 39.4139 365.809 45.6509 361.758 50.6459C357.708 55.641 352.061 59.0898 345.768 60.4129C339.474 61.736 332.917 60.8529 327.198 57.9118C321.479 54.9707 316.946 50.1509 314.362 44.2621C311.777 38.3734 311.298 31.7744 313.004 25.574C314.711 19.3735 318.499 13.9493 323.734 10.2126C328.968 6.47589 335.328 4.65443 341.747 5.05418C348.166 5.45394 354.251 8.05057 358.981 12.4078C361.825 15.028 364.096 18.2089 365.65 21.7499C367.205 25.291 368.009 29.1156 368.012 32.9828V32.9828Z" fill="#6B757E"/>
</g>
<g filter="url(#filter23_d_7953_599)">
<path d="M368.012 32.982C367.815 38.2635 366.069 43.3704 362.991 47.6669C359.913 51.9634 355.64 55.2595 350.702 57.1448C345.765 59.0301 340.382 59.4213 335.224 58.2697C330.065 57.118 325.36 54.4745 321.693 50.6681C318.027 46.8618 315.561 42.0609 314.603 36.8633C313.644 31.6658 314.236 26.3011 316.305 21.4376C318.373 16.574 321.827 12.4264 326.235 9.51121C330.644 6.59603 335.812 5.04211 341.098 5.04297C348.327 5.31335 355.17 8.37524 360.189 13.5852C365.207 18.7953 368.011 25.7478 368.012 32.982Z" fill="#C1C6C8"/>
</g>
<path d="M358.981 12.4083L319.481 51.9083C318.135 50.4461 316.948 48.8452 315.94 47.1323L354.21 8.86328C355.922 9.8724 357.521 11.0608 358.981 12.4083V12.4083Z" fill="#C5C5C5" fill-opacity="0.6"/>
<path d="M366.083 22.7636L329.831 59.0156C327.284 58.0147 324.899 56.6444 322.752 54.9486L362.019 15.6836C363.714 17.8315 365.083 20.217 366.083 22.7636V22.7636Z" fill="#C5C5C5" fill-opacity="0.6"/>
<path d="M361.779 32.9828C361.798 38.7338 359.536 44.2576 355.488 48.3433C351.441 52.4289 345.939 54.7431 340.188 54.7784C334.437 54.8138 328.907 52.5674 324.809 48.5318C320.712 44.4962 318.382 39.0006 318.33 33.2498V32.9828C318.33 27.221 320.619 21.6951 324.693 17.6209C328.767 13.5467 334.293 11.2578 340.055 11.2578H340.323C346.039 11.3262 351.497 13.6452 355.514 17.7118C359.531 21.7784 361.783 27.2647 361.781 32.9808L361.779 32.9828Z" fill="#777C81"/>
<path d="M355.419 17.6219L324.698 48.3459C320.68 44.3411 318.396 38.9185 318.337 33.2459V32.9789C318.337 27.2174 320.626 21.6919 324.699 17.6177C328.773 13.5435 334.298 11.2544 340.06 11.2539H340.328C345.998 11.3208 351.415 13.6069 355.419 17.6219V17.6219Z" fill="#94989A"/>
<path d="M361.778 32.9828C361.778 35.8359 361.216 38.661 360.125 41.2969C359.033 43.9328 357.433 46.3279 355.415 48.3454C353.398 50.3628 351.003 51.9632 348.367 53.055C345.731 54.1468 342.906 54.7088 340.053 54.7088C339.641 54.7088 339.232 54.6975 338.826 54.6748C344.368 54.3622 349.579 51.9406 353.392 47.9069C357.204 43.8733 359.328 38.5335 359.328 32.9833C359.328 27.4331 357.204 22.0933 353.392 18.0597C349.579 14.0261 344.368 11.6045 338.826 11.2918C339.232 11.2691 339.641 11.2578 340.053 11.2578C345.815 11.2578 351.341 13.5467 355.415 17.6209C359.489 21.6951 361.778 27.221 361.778 32.9828V32.9828Z" fill="#646363"/>
<path d="M345.76 36.36C345.76 38.04 345.093 39.4267 343.76 40.52C342.453 41.6133 340.653 42.2933 338.36 42.56L337.72 48.36L334.56 48.68L334.32 48.4L334.96 42.64C334.133 42.56 333.373 42.44 332.68 42.28C331.987 42.0933 331.44 41.9333 331.04 41.8C330.667 41.64 330.427 41.5333 330.32 41.48L330 41C330.053 40.68 330.16 39.9867 330.32 38.92C330.48 37.8267 330.573 36.7733 330.6 35.76L333.72 35.52C333.72 37.0133 333.96 38.0533 334.44 38.64C334.947 39.2 335.84 39.48 337.12 39.48C338.08 39.48 338.84 39.2933 339.4 38.92C339.96 38.5467 340.24 38.0533 340.24 37.44C340.24 36.8267 339.92 36.3067 339.28 35.88C338.667 35.4267 337.68 34.9067 336.32 34.32L335.44 33.96C333.813 33.1867 332.547 32.3867 331.64 31.56C330.733 30.7333 330.28 29.64 330.28 28.28C330.28 26.68 330.907 25.32 332.16 24.2C333.44 23.08 335.133 22.3733 337.24 22.08L337.84 16.36L341.04 16L341.28 16.36L340.64 21.96C341.44 22.0133 342.173 22.1067 342.84 22.24C343.533 22.3467 344.067 22.4533 344.44 22.56C344.84 22.6667 345.093 22.7333 345.2 22.76L345.48 23.24C345.427 23.5333 345.307 24.2133 345.12 25.28C344.933 26.32 344.787 27.4267 344.68 28.6L341.84 28.84L341.52 28.6L341.56 27.72C341.56 26.8667 341.32 26.2533 340.84 25.88C340.36 25.48 339.6 25.28 338.56 25.28C337.707 25.28 337 25.4667 336.44 25.84C335.907 26.1867 335.64 26.6533 335.64 27.24C335.64 27.9067 335.987 28.4667 336.68 28.92C337.373 29.3467 338.467 29.88 339.96 30.52C341.773 31.2933 343.187 32.1067 344.2 32.96C345.24 33.7867 345.76 34.92 345.76 36.36Z" fill="#4B4B4B"/>
<path d="M348.12 36.0397C348.12 37.7197 347.454 39.1064 346.12 40.1997C344.814 41.293 343.014 41.973 340.72 42.2397L340.08 48.0397L336.92 48.3597L336.68 48.0797L337.32 42.3197C336.494 42.2397 335.734 42.1197 335.04 41.9597C334.347 41.773 333.8 41.613 333.4 41.4797C333.027 41.3197 332.787 41.213 332.68 41.1597L332.36 40.6797C332.414 40.3597 332.52 39.6664 332.68 38.5997C332.84 37.5064 332.934 36.453 332.96 35.4397L336.08 35.1997C336.08 36.693 336.32 37.733 336.8 38.3197C337.307 38.8797 338.2 39.1597 339.48 39.1597C340.44 39.1597 341.2 38.973 341.76 38.5997C342.32 38.2264 342.6 37.733 342.6 37.1197C342.6 36.5064 342.28 35.9864 341.64 35.5597C341.027 35.1064 340.04 34.5864 338.68 33.9997L337.8 33.6397C336.174 32.8664 334.907 32.0664 334 31.2397C333.094 30.413 332.64 29.3197 332.64 27.9597C332.64 26.3597 333.267 24.9997 334.52 23.8797C335.8 22.7597 337.494 22.053 339.6 21.7597L340.2 16.0397L343.4 15.6797L343.64 16.0397L343 21.6397C343.8 21.693 344.534 21.7864 345.2 21.9197C345.894 22.0264 346.427 22.133 346.8 22.2397C347.2 22.3464 347.454 22.413 347.56 22.4397L347.84 22.9197C347.787 23.213 347.667 23.893 347.48 24.9597C347.294 25.9997 347.147 27.1064 347.04 28.2797L344.2 28.5197L343.88 28.2797L343.92 27.3997C343.92 26.5464 343.68 25.933 343.2 25.5597C342.72 25.1597 341.96 24.9597 340.92 24.9597C340.067 24.9597 339.36 25.1464 338.8 25.5197C338.267 25.8664 338 26.333 338 26.9197C338 27.5864 338.347 28.1464 339.04 28.5997C339.734 29.0264 340.827 29.5597 342.32 30.1997C344.134 30.973 345.547 31.7864 346.56 32.6397C347.6 33.4664 348.12 34.5997 348.12 36.0397Z" fill="#F4F4F4"/>
</g>
<g filter="url(#filter24_d_7953_599)">
<path d="M341.012 32.9828C341.017 39.4139 338.809 45.6509 334.758 50.6459C330.708 55.641 325.061 59.0898 318.768 60.4129C312.474 61.736 305.917 60.8529 300.198 57.9118C294.479 54.9707 289.946 50.1509 287.362 44.2621C284.777 38.3734 284.298 31.7744 286.004 25.574C287.711 19.3735 291.499 13.9493 296.734 10.2126C301.968 6.47589 308.328 4.65443 314.747 5.05418C321.166 5.45394 327.251 8.05057 331.981 12.4078C334.825 15.028 337.096 18.2089 338.65 21.7499C340.205 25.291 341.009 29.1156 341.012 32.9828V32.9828Z" fill="#6B757E"/>
</g>
<g filter="url(#filter25_d_7953_599)">
<path d="M341.012 32.982C340.815 38.2635 339.069 43.3704 335.991 47.6669C332.913 51.9634 328.64 55.2595 323.702 57.1448C318.765 59.0301 313.382 59.4213 308.224 58.2697C303.065 57.118 298.36 54.4745 294.693 50.6681C291.027 46.8618 288.561 42.0609 287.603 36.8633C286.644 31.6658 287.236 26.3011 289.305 21.4376C291.373 16.574 294.827 12.4264 299.235 9.51121C303.644 6.59603 308.812 5.04211 314.098 5.04297C321.327 5.31335 328.17 8.37524 333.189 13.5852C338.207 18.7953 341.011 25.7478 341.012 32.982Z" fill="#C1C6C8"/>
</g>
<path d="M331.981 12.4083L292.481 51.9083C291.135 50.4461 289.948 48.8452 288.94 47.1323L327.21 8.86328C328.922 9.8724 330.521 11.0608 331.981 12.4083V12.4083Z" fill="#C5C5C5" fill-opacity="0.6"/>
<path d="M339.083 22.7636L302.831 59.0156C300.284 58.0147 297.899 56.6444 295.752 54.9486L335.019 15.6836C336.714 17.8315 338.083 20.217 339.083 22.7636V22.7636Z" fill="#C5C5C5" fill-opacity="0.6"/>
<path d="M334.779 32.9828C334.798 38.7338 332.536 44.2576 328.488 48.3433C324.441 52.4289 318.939 54.7431 313.188 54.7784C307.437 54.8138 301.907 52.5674 297.809 48.5318C293.712 44.4962 291.382 39.0006 291.33 33.2498V32.9828C291.33 27.221 293.619 21.6951 297.693 17.6209C301.767 13.5467 307.293 11.2578 313.055 11.2578H313.323C319.039 11.3262 324.497 13.6452 328.514 17.7118C332.531 21.7784 334.783 27.2647 334.781 32.9808L334.779 32.9828Z" fill="#777C81"/>
<path d="M328.419 17.6219L297.698 48.3459C293.68 44.3411 291.396 38.9185 291.337 33.2459V32.9789C291.337 27.2174 293.626 21.6919 297.699 17.6177C301.773 13.5435 307.298 11.2544 313.06 11.2539H313.328C318.998 11.3208 324.415 13.6069 328.419 17.6219V17.6219Z" fill="#94989A"/>
<path d="M334.778 32.9828C334.778 35.8359 334.216 38.661 333.125 41.2969C332.033 43.9328 330.433 46.3279 328.415 48.3454C326.398 50.3628 324.003 51.9632 321.367 53.055C318.731 54.1468 315.906 54.7088 313.053 54.7088C312.641 54.7088 312.232 54.6975 311.826 54.6748C317.368 54.3622 322.579 51.9406 326.392 47.9069C330.204 43.8733 332.328 38.5335 332.328 32.9833C332.328 27.4331 330.204 22.0933 326.392 18.0597C322.579 14.0261 317.368 11.6045 311.826 11.2918C312.232 11.2691 312.641 11.2578 313.053 11.2578C318.815 11.2578 324.341 13.5467 328.415 17.6209C332.489 21.6951 334.778 27.221 334.778 32.9828V32.9828Z" fill="#646363"/>
<path d="M318.76 36.36C318.76 38.04 318.093 39.4267 316.76 40.52C315.453 41.6133 313.653 42.2933 311.36 42.56L310.72 48.36L307.56 48.68L307.32 48.4L307.96 42.64C307.133 42.56 306.373 42.44 305.68 42.28C304.987 42.0933 304.44 41.9333 304.04 41.8C303.667 41.64 303.427 41.5333 303.32 41.48L303 41C303.053 40.68 303.16 39.9867 303.32 38.92C303.48 37.8267 303.573 36.7733 303.6 35.76L306.72 35.52C306.72 37.0133 306.96 38.0533 307.44 38.64C307.947 39.2 308.84 39.48 310.12 39.48C311.08 39.48 311.84 39.2933 312.4 38.92C312.96 38.5467 313.24 38.0533 313.24 37.44C313.24 36.8267 312.92 36.3067 312.28 35.88C311.667 35.4267 310.68 34.9067 309.32 34.32L308.44 33.96C306.813 33.1867 305.547 32.3867 304.64 31.56C303.733 30.7333 303.28 29.64 303.28 28.28C303.28 26.68 303.907 25.32 305.16 24.2C306.44 23.08 308.133 22.3733 310.24 22.08L310.84 16.36L314.04 16L314.28 16.36L313.64 21.96C314.44 22.0133 315.173 22.1067 315.84 22.24C316.533 22.3467 317.067 22.4533 317.44 22.56C317.84 22.6667 318.093 22.7333 318.2 22.76L318.48 23.24C318.427 23.5333 318.307 24.2133 318.12 25.28C317.933 26.32 317.787 27.4267 317.68 28.6L314.84 28.84L314.52 28.6L314.56 27.72C314.56 26.8667 314.32 26.2533 313.84 25.88C313.36 25.48 312.6 25.28 311.56 25.28C310.707 25.28 310 25.4667 309.44 25.84C308.907 26.1867 308.64 26.6533 308.64 27.24C308.64 27.9067 308.987 28.4667 309.68 28.92C310.373 29.3467 311.467 29.88 312.96 30.52C314.773 31.2933 316.187 32.1067 317.2 32.96C318.24 33.7867 318.76 34.92 318.76 36.36Z" fill="#4B4B4B"/>
<path d="M321.12 36.0397C321.12 37.7197 320.454 39.1064 319.12 40.1997C317.814 41.293 316.014 41.973 313.72 42.2397L313.08 48.0397L309.92 48.3597L309.68 48.0797L310.32 42.3197C309.494 42.2397 308.734 42.1197 308.04 41.9597C307.347 41.773 306.8 41.613 306.4 41.4797C306.027 41.3197 305.787 41.213 305.68 41.1597L305.36 40.6797C305.414 40.3597 305.52 39.6664 305.68 38.5997C305.84 37.5064 305.934 36.453 305.96 35.4397L309.08 35.1997C309.08 36.693 309.32 37.733 309.8 38.3197C310.307 38.8797 311.2 39.1597 312.48 39.1597C313.44 39.1597 314.2 38.973 314.76 38.5997C315.32 38.2264 315.6 37.733 315.6 37.1197C315.6 36.5064 315.28 35.9864 314.64 35.5597C314.027 35.1064 313.04 34.5864 311.68 33.9997L310.8 33.6397C309.174 32.8664 307.907 32.0664 307 31.2397C306.094 30.413 305.64 29.3197 305.64 27.9597C305.64 26.3597 306.267 24.9997 307.52 23.8797C308.8 22.7597 310.494 22.053 312.6 21.7597L313.2 16.0397L316.4 15.6797L316.64 16.0397L316 21.6397C316.8 21.693 317.534 21.7864 318.2 21.9197C318.894 22.0264 319.427 22.133 319.8 22.2397C320.2 22.3464 320.454 22.413 320.56 22.4397L320.84 22.9197C320.787 23.213 320.667 23.893 320.48 24.9597C320.294 25.9997 320.147 27.1064 320.04 28.2797L317.2 28.5197L316.88 28.2797L316.92 27.3997C316.92 26.5464 316.68 25.933 316.2 25.5597C315.72 25.1597 314.96 24.9597 313.92 24.9597C313.067 24.9597 312.36 25.1464 311.8 25.5197C311.267 25.8664 311 26.333 311 26.9197C311 27.5864 311.347 28.1464 312.04 28.5997C312.734 29.0264 313.827 29.5597 315.32 30.1997C317.134 30.973 318.547 31.7864 319.56 32.6397C320.6 33.4664 321.12 34.5997 321.12 36.0397Z" fill="#F4F4F4"/>
<defs>
<filter id="filter0_d_7953_599" x="11.3213" y="23.3086" width="33.459" height="25.0586" filterUnits="userSpaceOnUse" color-interpolation-filters="sRGB">
<feFlood flood-opacity="0" result="BackgroundImageFix"/>
<feColorMatrix in="SourceAlpha" type="matrix" values="0 0 0 0 0 0 0 0 0 0 0 0 0 0 0 0 0 0 127 0" result="hardAlpha"/>
<feOffset dy="4"/>
<feGaussianBlur stdDeviation="1"/>
<feComposite in2="hardAlpha" operator="out"/>
<feColorMatrix type="matrix" values="0 0 0 0 0 0 0 0 0 0 0 0 0 0 0 0 0 0 0.15 0"/>
<feBlend mode="normal" in2="BackgroundImageFix" result="effect1_dropShadow_7953_599"/>
<feBlend mode="normal" in="SourceGraphic" in2="effect1_dropShadow_7953_599" result="shape"/>
</filter>
<filter id="filter1_f_7953_599" x="12.3213" y="22.3086" width="31.459" height="21.0586" filterUnits="userSpaceOnUse" color-interpolation-filters="sRGB">
<feFlood flood-opacity="0" result="BackgroundImageFix"/>
<feBlend mode="normal" in="SourceGraphic" in2="BackgroundImageFix" result="shape"/>
<feGaussianBlur stdDeviation="0.5" result="effect1_foregroundBlur_7953_599"/>
</filter>
<filter id="filter2_d_7953_599" x="20" y="5" width="60.0117" height="70.0117" filterUnits="userSpaceOnUse" color-interpolation-filters="sRGB">
<feFlood flood-opacity="0" result="BackgroundImageFix"/>
<feColorMatrix in="SourceAlpha" type="matrix" values="0 0 0 0 0 0 0 0 0 0 0 0 0 0 0 0 0 0 127 0" result="hardAlpha"/>
<feOffset dy="12"/>
<feGaussianBlur stdDeviation="1"/>
<feComposite in2="hardAlpha" operator="out"/>
<feColorMatrix type="matrix" values="0 0 0 0 0 0 0 0 0 0 0 0 0 0 0 0 0 0 0.3 0"/>
<feBlend mode="normal" in2="BackgroundImageFix" result="effect1_dropShadow_7953_599"/>
<feBlend mode="normal" in="SourceGraphic" in2="effect1_dropShadow_7953_599" result="shape"/>
</filter>
<filter id="filter3_d_7953_599" x="22.1562" y="5.04297" width="57.8555" height="67.875" filterUnits="userSpaceOnUse" color-interpolation-filters="sRGB">
<feFlood flood-opacity="0" result="BackgroundImageFix"/>
<feColorMatrix in="SourceAlpha" type="matrix" values="0 0 0 0 0 0 0 0 0 0 0 0 0 0 0 0 0 0 127 0" result="hardAlpha"/>
<feOffset dy="12"/>
<feGaussianBlur stdDeviation="1"/>
<feComposite in2="hardAlpha" operator="out"/>
<feColorMatrix type="matrix" values="0 0 0 0 0 0 0 0 0 0 0 0 0 0 0 0 0 0 0.3 0"/>
<feBlend mode="normal" in2="BackgroundImageFix" result="effect1_dropShadow_7953_599"/>
<feBlend mode="normal" in="SourceGraphic" in2="effect1_dropShadow_7953_599" result="shape"/>
</filter>
<filter id="filter4_d_7953_599" x="33.3213" y="23.3086" width="33.459" height="25.0586" filterUnits="userSpaceOnUse" color-interpolation-filters="sRGB">
<feFlood flood-opacity="0" result="BackgroundImageFix"/>
<feColorMatrix in="SourceAlpha" type="matrix" values="0 0 0 0 0 0 0 0 0 0 0 0 0 0 0 0 0 0 127 0" result="hardAlpha"/>
<feOffset dy="4"/>
<feGaussianBlur stdDeviation="1"/>
<feComposite in2="hardAlpha" operator="out"/>
<feColorMatrix type="matrix" values="0 0 0 0 0 0 0 0 0 0 0 0 0 0 0 0 0 0 0.15 0"/>
<feBlend mode="normal" in2="BackgroundImageFix" result="effect1_dropShadow_7953_599"/>
<feBlend mode="normal" in="SourceGraphic" in2="effect1_dropShadow_7953_599" result="shape"/>
</filter>
<filter id="filter5_f_7953_599" x="34.3213" y="22.3086" width="31.459" height="21.0586" filterUnits="userSpaceOnUse" color-interpolation-filters="sRGB">
<feFlood flood-opacity="0" result="BackgroundImageFix"/>
<feBlend mode="normal" in="SourceGraphic" in2="BackgroundImageFix" result="shape"/>
<feGaussianBlur stdDeviation="0.5" result="effect1_foregroundBlur_7953_599"/>
</filter>
<filter id="filter6_d_7953_599" x="43" y="4" width="60.0117" height="70.0117" filterUnits="userSpaceOnUse" color-interpolation-filters="sRGB">
<feFlood flood-opacity="0" result="BackgroundImageFix"/>
<feColorMatrix in="SourceAlpha" type="matrix" values="0 0 0 0 0 0 0 0 0 0 0 0 0 0 0 0 0 0 127 0" result="hardAlpha"/>
<feOffset dy="12"/>
<feGaussianBlur stdDeviation="1"/>
<feComposite in2="hardAlpha" operator="out"/>
<feColorMatrix type="matrix" values="0 0 0 0 0 0 0 0 0 0 0 0 0 0 0 0 0 0 0.3 0"/>
<feBlend mode="normal" in2="BackgroundImageFix" result="effect1_dropShadow_7953_599"/>
<feBlend mode="normal" in="SourceGraphic" in2="effect1_dropShadow_7953_599" result="shape"/>
</filter>
<filter id="filter7_d_7953_599" x="45.1562" y="4.04297" width="57.8555" height="67.875" filterUnits="userSpaceOnUse" color-interpolation-filters="sRGB">
<feFlood flood-opacity="0" result="BackgroundImageFix"/>
<feColorMatrix in="SourceAlpha" type="matrix" values="0 0 0 0 0 0 0 0 0 0 0 0 0 0 0 0 0 0 127 0" result="hardAlpha"/>
<feOffset dy="12"/>
<feGaussianBlur stdDeviation="1"/>
<feComposite in2="hardAlpha" operator="out"/>
<feColorMatrix type="matrix" values="0 0 0 0 0 0 0 0 0 0 0 0 0 0 0 0 0 0 0.3 0"/>
<feBlend mode="normal" in2="BackgroundImageFix" result="effect1_dropShadow_7953_599"/>
<feBlend mode="normal" in="SourceGraphic" in2="effect1_dropShadow_7953_599" result="shape"/>
</filter>
<filter id="filter8_d_7953_599" x="56.3213" y="22.3086" width="33.459" height="25.0586" filterUnits="userSpaceOnUse" color-interpolation-filters="sRGB">
<feFlood flood-opacity="0" result="BackgroundImageFix"/>
<feColorMatrix in="SourceAlpha" type="matrix" values="0 0 0 0 0 0 0 0 0 0 0 0 0 0 0 0 0 0 127 0" result="hardAlpha"/>
<feOffset dy="4"/>
<feGaussianBlur stdDeviation="1"/>
<feComposite in2="hardAlpha" operator="out"/>
<feColorMatrix type="matrix" values="0 0 0 0 0 0 0 0 0 0 0 0 0 0 0 0 0 0 0.15 0"/>
<feBlend mode="normal" in2="BackgroundImageFix" result="effect1_dropShadow_7953_599"/>
<feBlend mode="normal" in="SourceGraphic" in2="effect1_dropShadow_7953_599" result="shape"/>
</filter>
<filter id="filter9_f_7953_599" x="57.3213" y="21.3086" width="31.459" height="21.0586" filterUnits="userSpaceOnUse" color-interpolation-filters="sRGB">
<feFlood flood-opacity="0" result="BackgroundImageFix"/>
<feBlend mode="normal" in="SourceGraphic" in2="BackgroundImageFix" result="shape"/>
<feGaussianBlur stdDeviation="0.5" result="effect1_foregroundBlur_7953_599"/>
</filter>
<filter id="filter10_d_7953_599" x="63" y="0" width="66.0117" height="66.0117" filterUnits="userSpaceOnUse" color-interpolation-filters="sRGB">
<feFlood flood-opacity="0" result="BackgroundImageFix"/>
<feColorMatrix in="SourceAlpha" type="matrix" values="0 0 0 0 0 0 0 0 0 0 0 0 0 0 0 0 0 0 127 0" result="hardAlpha"/>
<feOffset dy="1"/>
<feGaussianBlur stdDeviation="2.5"/>
<feComposite in2="hardAlpha" operator="out"/>
<feColorMatrix type="matrix" values="0 0 0 0 0 0 0 0 0 0 0 0 0 0 0 0 0 0 0.5 0"/>
<feBlend mode="normal" in2="BackgroundImageFix" result="effect1_dropShadow_7953_599"/>
<feBlend mode="normal" in="SourceGraphic" in2="effect1_dropShadow_7953_599" result="shape"/>
</filter>
<filter id="filter11_d_7953_599" x="68.1562" y="4.04297" width="57.8555" height="67.875" filterUnits="userSpaceOnUse" color-interpolation-filters="sRGB">
<feFlood flood-opacity="0" result="BackgroundImageFix"/>
<feColorMatrix in="SourceAlpha" type="matrix" values="0 0 0 0 0 0 0 0 0 0 0 0 0 0 0 0 0 0 127 0" result="hardAlpha"/>
<feOffset dy="12"/>
<feGaussianBlur stdDeviation="1"/>
<feComposite in2="hardAlpha" operator="out"/>
<feColorMatrix type="matrix" values="0 0 0 0 0 0 0 0 0 0 0 0 0 0 0 0 0 0 0.3 0"/>
<feBlend mode="normal" in2="BackgroundImageFix" result="effect1_dropShadow_7953_599"/>
<feBlend mode="normal" in="SourceGraphic" in2="effect1_dropShadow_7953_599" result="shape"/>
</filter>
<filter id="filter12_d_7953_599" x="79.3213" y="22.3086" width="33.459" height="25.0586" filterUnits="userSpaceOnUse" color-interpolation-filters="sRGB">
<feFlood flood-opacity="0" result="BackgroundImageFix"/>
<feColorMatrix in="SourceAlpha" type="matrix" values="0 0 0 0 0 0 0 0 0 0 0 0 0 0 0 0 0 0 127 0" result="hardAlpha"/>
<feOffset dy="4"/>
<feGaussianBlur stdDeviation="1"/>
<feComposite in2="hardAlpha" operator="out"/>
<feColorMatrix type="matrix" values="0 0 0 0 0 0 0 0 0 0 0 0 0 0 0 0 0 0 0.15 0"/>
<feBlend mode="normal" in2="BackgroundImageFix" result="effect1_dropShadow_7953_599"/>
<feBlend mode="normal" in="SourceGraphic" in2="effect1_dropShadow_7953_599" result="shape"/>
</filter>
<filter id="filter13_f_7953_599" x="80.3213" y="21.3086" width="31.459" height="21.0586" filterUnits="userSpaceOnUse" color-interpolation-filters="sRGB">
<feFlood flood-opacity="0" result="BackgroundImageFix"/>
<feBlend mode="normal" in="SourceGraphic" in2="BackgroundImageFix" result="shape"/>
<feGaussianBlur stdDeviation="0.5" result="effect1_foregroundBlur_7953_599"/>
</filter>
<filter id="filter14_d_7953_599" x="87" y="0" width="66.0117" height="66.0117" filterUnits="userSpaceOnUse" color-interpolation-filters="sRGB">
<feFlood flood-opacity="0" result="BackgroundImageFix"/>
<feColorMatrix in="SourceAlpha" type="matrix" values="0 0 0 0 0 0 0 0 0 0 0 0 0 0 0 0 0 0 127 0" result="hardAlpha"/>
<feOffset dy="1"/>
<feGaussianBlur stdDeviation="2.5"/>
<feComposite in2="hardAlpha" operator="out"/>
<feColorMatrix type="matrix" values="0 0 0 0 0 0 0 0 0 0 0 0 0 0 0 0 0 0 0.5 0"/>
<feBlend mode="normal" in2="BackgroundImageFix" result="effect1_dropShadow_7953_599"/>
<feBlend mode="normal" in="SourceGraphic" in2="effect1_dropShadow_7953_599" result="shape"/>
</filter>
<filter id="filter15_d_7953_599" x="92.1562" y="4.04297" width="57.8555" height="67.875" filterUnits="userSpaceOnUse" color-interpolation-filters="sRGB">
<feFlood flood-opacity="0" result="BackgroundImageFix"/>
<feColorMatrix in="SourceAlpha" type="matrix" values="0 0 0 0 0 0 0 0 0 0 0 0 0 0 0 0 0 0 127 0" result="hardAlpha"/>
<feOffset dy="12"/>
<feGaussianBlur stdDeviation="1"/>
<feComposite in2="hardAlpha" operator="out"/>
<feColorMatrix type="matrix" values="0 0 0 0 0 0 0 0 0 0 0 0 0 0 0 0 0 0 0.3 0"/>
<feBlend mode="normal" in2="BackgroundImageFix" result="effect1_dropShadow_7953_599"/>
<feBlend mode="normal" in="SourceGraphic" in2="effect1_dropShadow_7953_599" result="shape"/>
</filter>
<filter id="filter16_d_7953_599" x="103.321" y="22.3086" width="33.459" height="25.0586" filterUnits="userSpaceOnUse" color-interpolation-filters="sRGB">
<feFlood flood-opacity="0" result="BackgroundImageFix"/>
<feColorMatrix in="SourceAlpha" type="matrix" values="0 0 0 0 0 0 0 0 0 0 0 0 0 0 0 0 0 0 127 0" result="hardAlpha"/>
<feOffset dy="4"/>
<feGaussianBlur stdDeviation="1"/>
<feComposite in2="hardAlpha" operator="out"/>
<feColorMatrix type="matrix" values="0 0 0 0 0 0 0 0 0 0 0 0 0 0 0 0 0 0 0.15 0"/>
<feBlend mode="normal" in2="BackgroundImageFix" result="effect1_dropShadow_7953_599"/>
<feBlend mode="normal" in="SourceGraphic" in2="effect1_dropShadow_7953_599" result="shape"/>
</filter>
<filter id="filter17_f_7953_599" x="104.321" y="21.3086" width="31.459" height="21.0586" filterUnits="userSpaceOnUse" color-interpolation-filters="sRGB">
<feFlood flood-opacity="0" result="BackgroundImageFix"/>
<feBlend mode="normal" in="SourceGraphic" in2="BackgroundImageFix" result="shape"/>
<feGaussianBlur stdDeviation="0.5" result="effect1_foregroundBlur_7953_599"/>
</filter>
<filter id="filter18_d_7953_599" x="361" y="1" width="66.0117" height="66.0117" filterUnits="userSpaceOnUse" color-interpolation-filters="sRGB">
<feFlood flood-opacity="0" result="BackgroundImageFix"/>
<feColorMatrix in="SourceAlpha" type="matrix" values="0 0 0 0 0 0 0 0 0 0 0 0 0 0 0 0 0 0 127 0" result="hardAlpha"/>
<feOffset dy="1"/>
<feGaussianBlur stdDeviation="2.5"/>
<feComposite in2="hardAlpha" operator="out"/>
<feColorMatrix type="matrix" values="0 0 0 0 0 0 0 0 0 0 0 0 0 0 0 0 0 0 0.5 0"/>
<feBlend mode="normal" in2="BackgroundImageFix" result="effect1_dropShadow_7953_599"/>
<feBlend mode="normal" in="SourceGraphic" in2="effect1_dropShadow_7953_599" result="shape"/>
</filter>
<filter id="filter19_d_7953_599" x="366.156" y="5.04297" width="57.8555" height="67.875" filterUnits="userSpaceOnUse" color-interpolation-filters="sRGB">
<feFlood flood-opacity="0" result="BackgroundImageFix"/>
<feColorMatrix in="SourceAlpha" type="matrix" values="0 0 0 0 0 0 0 0 0 0 0 0 0 0 0 0 0 0 127 0" result="hardAlpha"/>
<feOffset dy="12"/>
<feGaussianBlur stdDeviation="1"/>
<feComposite in2="hardAlpha" operator="out"/>
<feColorMatrix type="matrix" values="0 0 0 0 0 0 0 0 0 0 0 0 0 0 0 0 0 0 0.3 0"/>
<feBlend mode="normal" in2="BackgroundImageFix" result="effect1_dropShadow_7953_599"/>
<feBlend mode="normal" in="SourceGraphic" in2="effect1_dropShadow_7953_599" result="shape"/>
</filter>
<filter id="filter20_d_7953_599" x="334" y="1" width="66.0117" height="66.0117" filterUnits="userSpaceOnUse" color-interpolation-filters="sRGB">
<feFlood flood-opacity="0" result="BackgroundImageFix"/>
<feColorMatrix in="SourceAlpha" type="matrix" values="0 0 0 0 0 0 0 0 0 0 0 0 0 0 0 0 0 0 127 0" result="hardAlpha"/>
<feOffset dy="1"/>
<feGaussianBlur stdDeviation="2.5"/>
<feComposite in2="hardAlpha" operator="out"/>
<feColorMatrix type="matrix" values="0 0 0 0 0 0 0 0 0 0 0 0 0 0 0 0 0 0 0.5 0"/>
<feBlend mode="normal" in2="BackgroundImageFix" result="effect1_dropShadow_7953_599"/>
<feBlend mode="normal" in="SourceGraphic" in2="effect1_dropShadow_7953_599" result="shape"/>
</filter>
<filter id="filter21_d_7953_599" x="339.156" y="5.04297" width="57.8555" height="67.875" filterUnits="userSpaceOnUse" color-interpolation-filters="sRGB">
<feFlood flood-opacity="0" result="BackgroundImageFix"/>
<feColorMatrix in="SourceAlpha" type="matrix" values="0 0 0 0 0 0 0 0 0 0 0 0 0 0 0 0 0 0 127 0" result="hardAlpha"/>
<feOffset dy="12"/>
<feGaussianBlur stdDeviation="1"/>
<feComposite in2="hardAlpha" operator="out"/>
<feColorMatrix type="matrix" values="0 0 0 0 0 0 0 0 0 0 0 0 0 0 0 0 0 0 0.3 0"/>
<feBlend mode="normal" in2="BackgroundImageFix" result="effect1_dropShadow_7953_599"/>
<feBlend mode="normal" in="SourceGraphic" in2="effect1_dropShadow_7953_599" result="shape"/>
</filter>
<filter id="filter22_d_7953_599" x="307" y="1" width="66.0117" height="66.0117" filterUnits="userSpaceOnUse" color-interpolation-filters="sRGB">
<feFlood flood-opacity="0" result="BackgroundImageFix"/>
<feColorMatrix in="SourceAlpha" type="matrix" values="0 0 0 0 0 0 0 0 0 0 0 0 0 0 0 0 0 0 127 0" result="hardAlpha"/>
<feOffset dy="1"/>
<feGaussianBlur stdDeviation="2.5"/>
<feComposite in2="hardAlpha" operator="out"/>
<feColorMatrix type="matrix" values="0 0 0 0 0 0 0 0 0 0 0 0 0 0 0 0 0 0 0.5 0"/>
<feBlend mode="normal" in2="BackgroundImageFix" result="effect1_dropShadow_7953_599"/>
<feBlend mode="normal" in="SourceGraphic" in2="effect1_dropShadow_7953_599" result="shape"/>
</filter>
<filter id="filter23_d_7953_599" x="312.156" y="5.04297" width="57.8555" height="67.875" filterUnits="userSpaceOnUse" color-interpolation-filters="sRGB">
<feFlood flood-opacity="0" result="BackgroundImageFix"/>
<feColorMatrix in="SourceAlpha" type="matrix" values="0 0 0 0 0 0 0 0 0 0 0 0 0 0 0 0 0 0 127 0" result="hardAlpha"/>
<feOffset dy="12"/>
<feGaussianBlur stdDeviation="1"/>
<feComposite in2="hardAlpha" operator="out"/>
<feColorMatrix type="matrix" values="0 0 0 0 0 0 0 0 0 0 0 0 0 0 0 0 0 0 0.3 0"/>
<feBlend mode="normal" in2="BackgroundImageFix" result="effect1_dropShadow_7953_599"/>
<feBlend mode="normal" in="SourceGraphic" in2="effect1_dropShadow_7953_599" result="shape"/>
</filter>
<filter id="filter24_d_7953_599" x="280" y="1" width="66.0117" height="66.0117" filterUnits="userSpaceOnUse" color-interpolation-filters="sRGB">
<feFlood flood-opacity="0" result="BackgroundImageFix"/>
<feColorMatrix in="SourceAlpha" type="matrix" values="0 0 0 0 0 0 0 0 0 0 0 0 0 0 0 0 0 0 127 0" result="hardAlpha"/>
<feOffset dy="1"/>
<feGaussianBlur stdDeviation="2.5"/>
<feComposite in2="hardAlpha" operator="out"/>
<feColorMatrix type="matrix" values="0 0 0 0 0 0 0 0 0 0 0 0 0 0 0 0 0 0 0.5 0"/>
<feBlend mode="normal" in2="BackgroundImageFix" result="effect1_dropShadow_7953_599"/>
<feBlend mode="normal" in="SourceGraphic" in2="effect1_dropShadow_7953_599" result="shape"/>
</filter>
<filter id="filter25_d_7953_599" x="285.156" y="5.04297" width="57.8555" height="67.875" filterUnits="userSpaceOnUse" color-interpolation-filters="sRGB">
<feFlood flood-opacity="0" result="BackgroundImageFix"/>
<feColorMatrix in="SourceAlpha" type="matrix" values="0 0 0 0 0 0 0 0 0 0 0 0 0 0 0 0 0 0 127 0" result="hardAlpha"/>
<feOffset dy="12"/>
<feGaussianBlur stdDeviation="1"/>
<feComposite in2="hardAlpha" operator="out"/>
<feColorMatrix type="matrix" values="0 0 0 0 0 0 0 0 0 0 0 0 0 0 0 0 0 0 0.3 0"/>
<feBlend mode="normal" in2="BackgroundImageFix" result="effect1_dropShadow_7953_599"/>
<feBlend mode="normal" in="SourceGraphic" in2="effect1_dropShadow_7953_599" result="shape"/>
</filter>
<linearGradient id="paint0_linear_7953_599" x1="254" y1="70.5007" x2="237" y2="10.5007" gradientUnits="userSpaceOnUse">
<stop stop-color="#D6D6D6"/>
<stop offset="1" stop-color="#E8E8E8" stop-opacity="0"/>
</linearGradient>
</defs>
</svg>
