<svg width="61" height="61" viewBox="0 0 61 61" fill="none" xmlns="http://www.w3.org/2000/svg">
<path d="M30.0333 57.8264C35.7517 57.8264 41.3417 56.1308 46.0965 52.9536C50.8513 49.7768 54.5573 45.2612 56.7457 39.9777C58.9341 34.6945 59.5065 28.8813 58.3909 23.2725C57.2753 17.6641 54.5217 12.5121 50.4781 8.4685C46.4345 4.4249 41.2825 1.67118 35.6741 0.555579C30.0653 -0.560061 24.2517 0.0125387 18.9685 2.2009C13.6853 4.38926 9.16972 8.09518 5.99292 12.8501C2.81572 17.6045 1.12012 23.1949 1.12012 28.9133C1.12012 36.5817 4.16612 43.9356 9.58852 49.358C15.0109 54.7804 22.3649 57.8264 30.0333 57.8264Z" fill="#2775C9"/>
<path d="M49.8366 48.8555C60.8398 37.8524 60.8398 20.013 49.8366 9.01004C38.8338 -1.99293 20.9946 -1.99293 9.99136 9.01004C-1.01144 20.013 -1.01144 37.8524 9.99136 48.8555C20.9946 59.8583 38.8338 59.8583 49.8366 48.8555Z" fill="#384E61"/>
<path d="M50.3591 49.3748C61.6507 38.0833 61.6507 19.776 50.3591 8.48435C39.0675 -2.80728 20.7603 -2.80728 9.4687 8.48435C-1.8229 19.776 -1.8229 38.0833 9.4687 49.3748C20.7603 60.6664 39.0675 60.6664 50.3591 49.3748Z" fill="#4A5C6B"/>
<g filter="url(#filter0_d_7953_603)">
<path d="M59 29.5601C58.7919 35.1481 56.944 40.5514 53.6865 45.0972C50.4289 49.6429 45.9056 53.1303 40.6799 55.125C35.4541 57.1197 29.7569 57.5336 24.2975 56.3152C18.8382 55.0967 13.858 52.2997 9.97724 48.2725C6.09645 44.2453 3.4865 39.1659 2.47242 33.6667C1.45834 28.1675 2.08494 22.4917 4.27417 17.3459C6.46341 12.2001 10.1186 7.81184 14.7844 4.72751C19.4503 1.64318 24.9207 -0.000904171 30.5145 3.73046e-07C38.1657 0.286075 45.4082 3.52562 50.7201 9.03794C56.032 14.5503 58.9999 21.9062 59 29.5601Z" fill="#384E61"/>
</g>
<path d="M49.9469 9L11 48.813C13.633 51.4886 16.7673 53.5931 20.2152 55L56 18.42C54.6233 14.8954 52.5646 11.6913 49.9469 9Z" fill="#5F7689" fill-opacity="0.54"/>
<path d="M46.1756 6L8 45.1285C8.44491 45.7723 8.91432 46.3961 9.40822 47L48 7.4436C47.4128 6.93612 46.8045 6.4549 46.1756 6Z" fill="#5F7689" fill-opacity="0.54"/>
<path d="M30.4679 49.8698C41.7431 49.8698 50.8835 40.7294 50.8835 29.4543C50.8835 18.1793 41.7431 9.03906 30.4679 9.03906C19.1931 9.03906 10.0527 18.1793 10.0527 29.4543C10.0527 40.7294 19.1931 49.8698 30.4679 49.8698Z" fill="black"/>
<path d="M44.3489 43.3669C52.3217 35.3941 52.3217 22.4678 44.3489 14.4951C36.3765 6.52245 23.4501 6.52245 15.4773 14.4951C7.50495 22.4678 7.50495 35.394 15.4773 43.3669C23.4501 51.3393 36.3765 51.3393 44.3489 43.3669Z" fill="black"/>
<path d="M10.607 30.0397C10.6062 26.0686 11.7638 22.1835 13.9378 18.8605C16.1122 15.5374 19.2082 12.9208 22.8474 11.3311C26.4862 9.74144 30.5102 9.24784 34.4254 9.91072C38.3406 10.5736 41.9778 12.3642 44.8906 15.0632C43.025 13.0471 40.7714 11.4284 38.265 10.3039C35.7586 9.17952 33.0514 8.57256 30.3046 8.51944C27.5582 8.46632 24.8294 8.96808 22.2814 9.99472C19.7334 11.0213 17.419 12.5517 15.4766 14.4941C13.5342 16.4365 12.0038 18.751 10.9774 21.2989C9.95062 23.8468 9.44902 26.5758 9.50182 29.3222C9.55502 32.0687 10.1622 34.7762 11.2866 37.2825C12.411 39.7888 14.0294 42.0424 16.0458 43.9084C12.5442 40.1396 10.6006 35.184 10.607 30.0397Z" fill="black"/>
<path d="M50.5552 29.3012C50.5728 34.9163 48.4228 40.3097 44.576 44.2985C40.7288 48.2877 35.4992 50.5473 30.0332 50.5817C24.5676 50.6161 19.3112 48.4229 15.4168 44.4825C11.5224 40.5425 9.30799 35.1768 9.25879 29.5619V29.3012C9.25879 23.6756 11.434 18.2804 15.3064 14.3025C19.1788 10.3246 24.4308 8.08984 29.9072 8.08984H30.162C35.5944 8.15664 40.7824 10.4208 44.6004 14.3913C48.4184 18.3618 50.5568 23.7203 50.5552 29.3012Z" fill="#1A2E41"/>
<path d="M44.5204 15.2018L15.3076 44.5211C11.4868 40.6995 9.31479 35.5248 9.25879 30.1115V29.8567C9.25879 24.3586 11.4348 19.0858 15.3088 15.1978C19.1824 11.31 24.4368 9.12552 29.9152 9.125H30.17C35.5616 9.18884 40.7132 11.3704 44.5204 15.2018Z" fill="#2C465E"/>
<path d="M50.3939 29.4247C50.3939 32.204 49.8927 34.956 48.9183 37.5238C47.9443 40.0916 46.5163 42.4248 44.7159 44.39C42.9159 46.3552 40.7787 47.914 38.4267 48.9776C36.0747 50.0412 33.5539 50.5888 31.0079 50.5888C30.6403 50.5888 30.2755 50.5776 29.9131 50.5556C34.8579 50.2512 39.5083 47.892 42.9103 43.9628C46.3123 40.0336 48.2075 34.8319 48.2075 29.4252C48.2075 24.0186 46.3123 18.8169 42.9103 14.8876C39.5083 10.9584 34.8579 8.5994 29.9131 8.29484C30.2755 8.27276 30.6403 8.26172 31.0079 8.26172C36.1495 8.26172 41.0803 10.4914 44.7159 14.4602C48.3511 18.429 50.3939 23.812 50.3939 29.4247Z" fill="#151520"/>
<path d="M38.2726 20.9882C38.3182 21.0867 38.3414 21.1937 38.3418 21.3021V23.8364C38.3398 24.6294 38.153 25.4111 37.7958 26.1196C37.439 26.8281 36.9218 27.444 36.285 27.9184C35.2686 28.7152 34.2274 29.4628 33.1622 30.2146L30.8686 31.8057C30.5678 32.0235 30.1986 32.1264 29.8282 32.0957C29.6366 32.0734 29.449 32.0245 29.271 31.9503C29.1126 31.8711 28.959 31.7828 28.811 31.6858C26.7294 30.2613 24.6478 28.8377 22.615 27.3418C21.695 26.6904 20.8002 26.0143 19.8802 25.3391C19.759 25.2668 19.6626 25.169 19.539 25.0975C19.199 24.8347 18.9666 24.4571 18.8858 24.0354C18.8642 23.9233 18.8558 23.8091 18.861 23.6952V21.4033C18.8646 21.306 18.8566 21.2087 18.837 21.1133C18.8302 21.0992 18.8262 21.0836 18.8262 21.0678C18.8262 21.052 18.8302 21.0364 18.837 21.0223C18.8442 21.0085 18.8542 20.9965 18.867 20.9874C18.8798 20.9783 18.8942 20.9719 18.9094 20.9687H18.9334C18.939 21.0095 18.9474 21.0498 18.9582 21.0895C18.9774 21.3261 19.0806 21.5482 19.2486 21.7162C19.3694 21.8698 19.517 22.0006 19.6842 22.1023C22.1038 23.9121 24.573 25.6741 27.0662 27.4116C27.647 27.8223 28.251 28.2076 28.833 28.6174C29.0674 28.7817 29.3286 28.904 29.605 28.9789C29.9298 29.0564 30.271 29.0222 30.5738 28.8819C30.687 28.8324 30.793 28.7674 30.8882 28.6889C32.4858 27.5553 34.0586 26.4446 35.6594 25.3101C35.9738 25.0933 36.2646 24.8764 36.5526 24.6349C37.311 23.9556 37.8646 23.0785 38.151 22.1023C38.1954 21.9362 38.2278 21.7671 38.2482 21.5963C38.2686 21.5011 38.277 21.4036 38.2726 21.3063V20.9882ZM29.6562 17.487H30.2366C31.1778 17.5583 32.0894 17.8477 32.899 18.3324C33.4458 18.664 33.9562 19.0525 34.4206 19.4915C34.7314 19.7582 34.9374 20.1261 35.0018 20.5299C35.0666 20.9243 35.007 21.329 34.8314 21.6882C34.783 21.8089 34.7094 21.9059 34.661 22.002C34.637 22.0489 34.5962 22.085 34.547 22.1032C34.4974 22.1211 34.4426 22.1192 34.3942 22.0981C34.3706 22.0981 34.3706 22.0742 34.3466 22.0742C34.1762 21.9535 34.0058 21.8566 33.8142 21.7341C33.121 21.244 32.3402 20.8914 31.5138 20.6957C30.9834 20.5722 30.4374 20.5318 29.8946 20.5758C28.7882 20.6565 27.725 21.0389 26.8214 21.6814C26.4806 21.9229 26.1194 22.1159 25.7558 22.3566C25.7318 22.3566 25.7318 22.3813 25.7078 22.3813C25.6894 22.3786 25.6722 22.3699 25.6594 22.3566L23.6262 20.9815C23.5814 20.9558 23.5406 20.9234 23.5054 20.8854C23.4782 20.8674 23.4586 20.8404 23.4498 20.8093C23.4406 20.7781 23.4434 20.7448 23.457 20.7153C23.457 20.6906 23.4814 20.6906 23.5054 20.6668L23.553 20.6183C24.1342 20.2331 24.6906 19.7968 25.2706 19.3852C25.7678 19.0212 26.2838 18.6842 26.8174 18.3758C27.439 18.0322 28.1074 17.781 28.8018 17.6299C29.0786 17.5468 29.3646 17.4979 29.6538 17.4845L29.6562 17.487ZM28.587 17.6826V13.4432C28.591 13.2837 28.6586 13.1323 28.7742 13.0222C28.8902 12.9121 29.0446 12.8522 29.2046 12.8556H30.4342C30.5938 12.8522 30.7486 12.9121 30.8646 13.0222C30.9802 13.1323 31.0474 13.2837 31.0518 13.4432V17.6104C30.229 17.5155 29.3966 17.5405 28.581 17.6844L28.587 17.6826ZM38.3002 28.0579C38.3466 28.1561 38.3718 28.2631 38.3734 28.3717V30.9536C38.3514 32.0918 37.961 33.1924 37.2606 34.0908C36.9574 34.4704 36.6078 34.811 36.2202 35.1045C35.1978 35.9005 34.137 36.6489 33.0678 37.4007L30.9378 38.8728C30.7546 38.9994 30.549 39.0896 30.3318 39.1381C30.0418 39.2112 29.7354 39.1858 29.461 39.0658C29.2638 38.9938 29.0766 38.8964 28.9046 38.7758C26.5326 37.16 24.1606 35.5187 21.837 33.8051C21.111 33.2744 20.3886 32.7437 19.6586 32.1893C19.2998 31.9286 19.0578 31.5377 18.9846 31.1007C18.9634 30.9887 18.9554 30.8745 18.9606 30.7605V28.4218C18.9638 28.333 18.9558 28.2441 18.9358 28.1574C18.9122 28.0842 18.9606 28.012 19.0094 28.012C19.0094 28.0605 19.033 28.0842 19.033 28.1327C19.0602 28.3988 19.181 28.6468 19.3738 28.8326C19.4914 28.9586 19.6214 29.0726 19.7614 29.1728C22.2786 31.0548 24.8686 32.8883 27.4554 34.6742C27.9366 35.0144 28.4234 35.3256 28.8834 35.6394C29.0794 35.7906 29.3006 35.9057 29.537 35.9796C29.7142 36.04 29.9018 36.0647 30.0886 36.0523C30.2754 36.0399 30.4582 35.9906 30.6258 35.9073C30.7446 35.8526 30.8586 35.7884 30.9666 35.7151C32.709 34.482 34.4522 33.2489 36.1946 31.9979C37.1578 31.3037 37.8638 30.3115 38.2038 29.1753C38.255 28.9845 38.2954 28.7908 38.3246 28.5954C38.2754 28.4208 38.265 28.2377 38.2942 28.0587L38.3002 28.0579ZM30.5978 44.2476H29.1494C28.977 44.2456 28.8126 44.176 28.6918 44.054C28.571 43.932 28.503 43.7668 28.5034 43.5952L28.5954 38.5522C28.7214 38.3759 28.8918 38.236 29.0894 38.1465L31.1046 37.757C31.1234 37.757 31.1422 37.7607 31.1598 37.768C31.177 37.7753 31.193 37.786 31.2062 37.7995C31.2194 37.813 31.2298 37.8289 31.237 37.8464C31.2442 37.8639 31.2478 37.8827 31.2478 37.9016V43.5996C31.2474 43.7708 31.1794 43.9352 31.0586 44.0568C30.9378 44.1788 30.7738 44.248 30.6018 44.25L30.5978 44.2476Z" fill="#131621"/>
<path d="M38.7618 21.9609C38.807 22.0593 38.8306 22.1664 38.831 22.2747V24.809C38.829 25.602 38.6422 26.3837 38.285 27.0922C37.9282 27.8007 37.4106 28.4166 36.7742 28.891C35.7578 29.6879 34.7166 30.4354 33.6514 31.1872L31.3578 32.7783C31.057 32.9961 30.6878 33.099 30.3174 33.0683C30.1258 33.0461 29.9382 32.9971 29.7602 32.9229C29.6018 32.8437 29.4482 32.7554 29.3002 32.6584C27.2186 31.234 25.137 29.8103 23.1042 28.3145C22.1838 27.663 21.2894 26.9869 20.369 26.3117C20.2482 26.2394 20.1518 26.1416 20.0282 26.0702C19.6882 25.8073 19.4558 25.4297 19.375 25.008C19.3534 24.8959 19.345 24.7818 19.3502 24.6678V22.3759C19.3538 22.2786 19.3458 22.1813 19.3262 22.0859C19.319 22.0718 19.3154 22.0562 19.3154 22.0404C19.3154 22.0246 19.319 22.009 19.3262 21.9949C19.3334 21.9811 19.3434 21.9691 19.3562 21.9601C19.369 21.9509 19.3834 21.9445 19.3986 21.9413H19.4226C19.4282 21.9821 19.4362 22.0224 19.4474 22.0621C19.4666 22.2988 19.5698 22.5209 19.7378 22.6889C19.8586 22.8424 20.0062 22.9732 20.173 23.0749C22.593 24.8847 25.0622 26.6467 27.555 28.3842C28.1362 28.7949 28.7402 29.1802 29.3222 29.5901C29.5566 29.7543 29.8178 29.8766 30.0942 29.9515C30.419 30.029 30.7602 29.9948 31.063 29.8546C31.1762 29.805 31.2818 29.74 31.3774 29.6615C32.975 28.5279 34.5478 27.4173 36.1486 26.2828C36.463 26.0659 36.7538 25.8491 37.0418 25.6075C37.8002 24.9282 38.3538 24.0511 38.6402 23.0749C38.6842 22.9088 38.717 22.7397 38.737 22.5689C38.7578 22.4737 38.7662 22.3763 38.7618 22.2789V21.9609ZM30.1454 18.4597H30.7254C31.667 18.5309 32.5786 18.8204 33.3882 19.305C33.935 19.6366 34.445 20.0251 34.9098 20.4641C35.2206 20.7308 35.4262 21.0987 35.491 21.5025C35.5558 21.8969 35.4962 22.3016 35.3206 22.6608C35.2718 22.7815 35.1986 22.8785 35.1502 22.9746C35.1262 23.0215 35.0854 23.0577 35.0358 23.0758C34.9862 23.0937 34.9318 23.0919 34.8834 23.0707C34.8598 23.0707 34.8598 23.0469 34.8358 23.0469C34.6654 22.9261 34.495 22.8292 34.3034 22.7067C33.6102 22.2166 32.829 21.8641 32.0026 21.6683C31.4726 21.5448 30.9266 21.5044 30.3838 21.5484C29.2774 21.6291 28.2142 22.0115 27.3106 22.654C26.9698 22.8955 26.6086 23.0885 26.2446 23.3292C26.221 23.3292 26.221 23.3539 26.197 23.3539C26.1786 23.3512 26.1614 23.3425 26.1486 23.3292L24.1154 21.9541C24.0706 21.9284 24.0298 21.896 23.9946 21.858C23.9674 21.8401 23.9478 21.8131 23.9386 21.7819C23.9298 21.7507 23.9326 21.7174 23.9458 21.6879C23.9458 21.6633 23.9706 21.6633 23.9946 21.6394L24.0422 21.5909C24.6234 21.2057 25.1798 20.7695 25.7598 20.3578C26.257 19.9939 26.773 19.6569 27.3062 19.3484C27.9282 19.0049 28.5966 18.7536 29.2906 18.6025C29.5678 18.5194 29.8538 18.4705 30.1426 18.4571L30.1454 18.4597ZM29.0762 18.6553V14.4159C29.0802 14.2563 29.1478 14.1049 29.2634 13.9948C29.379 13.8847 29.5338 13.8248 29.6938 13.8283H30.9234C31.083 13.8248 31.2378 13.8847 31.3534 13.9948C31.4694 14.1049 31.5366 14.2563 31.541 14.4159V18.583C30.7182 18.4881 29.8858 18.5131 29.0702 18.657L29.0762 18.6553ZM38.789 29.0305C38.8358 29.1287 38.8606 29.2357 38.8626 29.3443V31.9262C38.8406 33.0644 38.4502 34.165 37.7498 35.0635C37.4462 35.4431 37.097 35.7836 36.7094 36.0771C35.687 36.8731 34.6262 37.6215 33.557 38.3733L31.4266 39.8454C31.2438 39.9721 31.0382 40.0623 30.821 40.1107C30.5306 40.1839 30.2242 40.1583 29.9502 40.0383C29.753 39.9665 29.5658 39.869 29.3938 39.7485C27.0218 38.1327 24.6498 36.4913 22.3262 34.7777C21.6002 34.247 20.8778 33.7164 20.1478 33.1619C19.7886 32.9012 19.5466 32.5103 19.4738 32.0733C19.4526 31.9613 19.4446 31.8471 19.4498 31.7332V29.3945C19.453 29.3056 19.4446 29.2167 19.425 29.13C19.4014 29.0569 19.4498 28.9846 19.4982 28.9846C19.4982 29.0331 19.5222 29.0569 19.5222 29.1053C19.5494 29.3715 19.6702 29.6194 19.863 29.8053C19.9806 29.9313 20.1106 30.0452 20.2506 30.1454C22.7674 32.0274 25.3578 33.8609 27.9446 35.6468C28.4258 35.987 28.9126 36.2983 29.3726 36.6121C29.5686 36.7632 29.7898 36.8783 30.0262 36.9523C30.2034 37.0126 30.391 37.0373 30.5778 37.0249C30.7646 37.0125 30.9474 36.9632 31.115 36.88C31.2334 36.8253 31.3474 36.761 31.4558 36.6878C33.1982 35.4547 34.9414 34.2215 36.6838 32.9705C37.6466 32.2763 38.353 31.2841 38.693 30.148C38.7442 29.9571 38.7846 29.7635 38.8138 29.568C38.7646 29.3935 38.7542 29.2103 38.7834 29.0313L38.789 29.0305ZM31.087 45.2199H29.6382C29.4662 45.2183 29.3018 45.1487 29.181 45.0267C29.0602 44.9043 28.9922 44.7395 28.9926 44.5679L29.0846 39.5248C29.2106 39.3485 29.381 39.2086 29.5786 39.1191L31.5938 38.7297C31.6126 38.7296 31.6314 38.7334 31.6486 38.7407C31.6662 38.748 31.6818 38.7587 31.695 38.7722C31.7086 38.7856 31.719 38.8015 31.7262 38.819C31.7334 38.8365 31.737 38.8553 31.737 38.8742V44.5719C31.7366 44.7435 31.6686 44.9079 31.5478 45.0295C31.4266 45.1511 31.2626 45.2207 31.091 45.2227L31.087 45.2199Z" fill="#E3F2FF"/>
<defs>
<filter id="filter0_d_7953_603" x="0" y="0" width="61" height="61" filterUnits="userSpaceOnUse" color-interpolation-filters="sRGB">
<feFlood flood-opacity="0" result="BackgroundImageFix"/>
<feColorMatrix in="SourceAlpha" type="matrix" values="0 0 0 0 0 0 0 0 0 0 0 0 0 0 0 0 0 0 127 0" result="hardAlpha"/>
<feOffset dy="2"/>
<feGaussianBlur stdDeviation="1"/>
<feComposite in2="hardAlpha" operator="out"/>
<feColorMatrix type="matrix" values="0 0 0 0 0 0 0 0 0 0 0 0 0 0 0 0 0 0 0.5 0"/>
<feBlend mode="normal" in2="BackgroundImageFix" result="effect1_dropShadow_7953_603"/>
<feBlend mode="normal" in="SourceGraphic" in2="effect1_dropShadow_7953_603" result="shape"/>
</filter>
</defs>
</svg>
