<svg width="1000" height="427" viewBox="0 0 1000 427" fill="none" xmlns="http://www.w3.org/2000/svg">
<path d="M192.261 100.344H43.1121V126.57H192.261V100.344Z" fill="url(#paint0_linear_884_314)"/>
<path d="M417.682 226.349H279.796V252.574H417.682V226.349Z" fill="url(#paint1_linear_884_314)"/>
<path d="M538.044 100.344H388.895V126.57H538.044V100.344Z" fill="url(#paint2_linear_884_314)"/>
<path d="M743.245 226.349H545.505V252.574H743.245V226.349Z" fill="url(#paint3_linear_884_314)"/>
<path d="M912.711 100.344H763.562V126.57H912.711V100.344Z" fill="url(#paint4_linear_884_314)"/>
<path d="M192.261 100.344H43.1121V126.57H192.261V100.344Z" fill="url(#paint5_radial_884_314)"/>
<path d="M417.682 226.349H279.796V252.574H417.682V226.349Z" fill="url(#paint6_radial_884_314)"/>
<path d="M538.044 100.344H388.895V126.57H538.044V100.344Z" fill="url(#paint7_radial_884_314)"/>
<path d="M743.245 226.349H545.505V252.574H743.245V226.349Z" fill="url(#paint8_radial_884_314)"/>
<path d="M912.711 100.344H763.562V126.57H912.711V100.344Z" fill="url(#paint9_radial_884_314)"/>
<g filter="url(#filter0_i_884_314)">
<path d="M12 100.344H79.9194C115.902 100.344 131.23 116.525 131.23 140.157V141.009C131.23 158.043 122.5 169.328 105.468 173.798C124.204 176.992 135.915 188.275 135.915 209.354V210.206C135.915 237.459 118.242 252.576 80.5581 252.576H12V100.344ZM71.1894 160.809C84.8167 160.809 89.9247 156.127 89.9247 145.265V144.414C89.9247 133.983 84.3886 129.298 71.1894 129.298H54.5832V160.809H71.1894ZM72.6798 223.405C86.5201 223.405 92.9079 217.017 92.9079 205.735V204.881C92.9079 193.383 86.733 187.423 71.4045 187.423H54.5855V223.405H72.6798Z" fill="#F3F3F3"/>
</g>
<g filter="url(#filter1_i_884_314)">
<path d="M192.261 100.344H251.876C291.691 100.344 313.833 116.525 313.833 148.674V149.526C313.833 171.245 302.335 183.382 286.368 189.554L322.776 252.576H276.788L245.916 198.071H235.696V252.576H192.261V100.344ZM249.747 169.754C264.439 169.754 271.676 163.579 271.676 151.23V150.376C271.676 138.028 264.01 133.131 249.959 133.131H235.693V169.754H249.747Z" fill="#F3F3F3"/>
</g>
<g filter="url(#filter2_i_884_314)">
<path d="M373.608 100.344H417.682V252.574H373.608V100.344Z" fill="#F3F3F3"/>
</g>
<g filter="url(#filter3_i_884_314)">
<path d="M481.198 100.344H536.555C590.636 100.344 618.102 127.382 618.102 174.649V176.355C618.102 223.833 589.998 252.576 536.344 252.576H481.201L481.198 100.344ZM535.065 218.936C561.04 218.936 572.538 205.309 572.538 176.994V175.288C572.538 146.332 561.04 133.985 534.639 133.985H525.059V218.934H535.067L535.065 218.936Z" fill="#F3F3F3"/>
</g>
<g filter="url(#filter4_i_884_314)">
<path d="M666.064 177.417V175.714C666.064 129.298 700.13 98 745.907 98C781.89 98 813.824 114.395 816.805 153.998H773.585C771.456 139.732 762.3 132.279 746.12 132.279C724.617 132.279 711.628 148.885 711.628 176.353V178.056C711.628 202.756 720.782 221.915 747.182 221.915C768.475 221.915 776.564 211.056 777.416 198.921H748.888V168.474H820.425V187.21C820.425 225.96 795.089 255.129 745.907 255.129C694.168 255.129 666.064 222.982 666.064 177.417Z" fill="#F3F3F3"/>
</g>
<g filter="url(#filter5_i_884_314)">
<path d="M876.771 100.344H981.95V133.985H920.206V160.173H969.39V191.26H920.206V218.938H985.357V252.579H876.771V100.344Z" fill="#F3F3F3"/>
</g>
<path d="M302.028 337.543V305.281H312.929C315.46 305.281 317.529 305.738 319.135 306.652C320.753 307.555 321.95 308.779 322.727 310.322C323.504 311.866 323.893 313.588 323.893 315.489C323.893 317.39 323.504 319.118 322.727 320.672C321.96 322.226 320.774 323.465 319.167 324.39C317.56 325.303 315.502 325.76 312.992 325.76H305.179V322.294H312.866C314.599 322.294 315.99 321.995 317.04 321.397C318.091 320.798 318.852 319.989 319.325 318.971C319.808 317.941 320.049 316.781 320.049 315.489C320.049 314.198 319.808 313.042 319.325 312.024C318.852 311.005 318.085 310.207 317.025 309.629C315.964 309.041 314.557 308.747 312.803 308.747H305.935V337.543H302.028Z" fill="#CFCFCF"/>
<path d="M363.839 321.412C363.839 324.815 363.225 327.755 361.996 330.234C360.767 332.712 359.082 334.624 356.939 335.968C354.797 337.312 352.35 337.984 349.599 337.984C346.847 337.984 344.4 337.312 342.258 335.968C340.115 334.624 338.43 332.712 337.201 330.234C335.972 327.755 335.358 324.815 335.358 321.412C335.358 318.01 335.972 315.069 337.201 312.591C338.43 310.112 340.115 308.201 342.258 306.857C344.4 305.512 346.847 304.84 349.599 304.84C352.35 304.84 354.797 305.512 356.939 306.857C359.082 308.201 360.767 310.112 361.996 312.591C363.225 315.069 363.839 318.01 363.839 321.412ZM360.058 321.412C360.058 318.619 359.591 316.261 358.656 314.339C357.732 312.417 356.477 310.963 354.891 309.976C353.316 308.989 351.552 308.495 349.599 308.495C347.645 308.495 345.876 308.989 344.29 309.976C342.715 310.963 341.46 312.417 340.525 314.339C339.601 316.261 339.139 318.619 339.139 321.412C339.139 324.206 339.601 326.563 340.525 328.485C341.46 330.407 342.715 331.862 344.29 332.849C345.876 333.836 347.645 334.33 349.599 334.33C351.552 334.33 353.316 333.836 354.891 332.849C356.477 331.862 357.732 330.407 358.656 328.485C359.591 326.563 360.058 324.206 360.058 321.412Z" fill="#CFCFCF"/>
<path d="M382.7 337.543L373.879 305.281H377.848L384.591 331.557H384.906L391.774 305.281H396.185L403.053 331.557H403.368L410.11 305.281H414.08L405.258 337.543H401.225L394.105 311.835H393.853L386.733 337.543H382.7Z" fill="#CFCFCF"/>
<path d="M425.38 337.543V305.281H444.85V308.747H429.286V319.648H443.842V323.114H429.286V334.078H445.102V337.543H425.38Z" fill="#CFCFCF"/>
<path d="M458.324 337.543V305.281H469.225C471.745 305.281 473.814 305.712 475.431 306.573C477.048 307.424 478.246 308.595 479.023 310.086C479.8 311.577 480.189 313.273 480.189 315.174C480.189 317.075 479.8 318.761 479.023 320.231C478.246 321.701 477.054 322.856 475.447 323.696C473.84 324.526 471.787 324.941 469.288 324.941H460.466V321.412H469.162C470.884 321.412 472.27 321.16 473.32 320.656C474.381 320.152 475.148 319.438 475.62 318.514C476.103 317.579 476.345 316.466 476.345 315.174C476.345 313.882 476.103 312.754 475.62 311.787C475.137 310.821 474.365 310.076 473.305 309.55C472.244 309.015 470.842 308.747 469.099 308.747H462.23V337.543H458.324ZM473.509 323.051L481.449 337.543H476.912L469.099 323.051H473.509Z" fill="#CFCFCF"/>
<path d="M493.131 337.543V305.281H512.601V308.747H497.037V319.648H511.593V323.114H497.037V334.078H512.853V337.543H493.131Z" fill="#CFCFCF"/>
<path d="M536.03 337.543H526.075V305.281H536.472C539.601 305.281 542.279 305.927 544.505 307.219C546.732 308.5 548.438 310.343 549.625 312.748C550.812 315.143 551.405 318.01 551.405 321.349C551.405 324.71 550.807 327.603 549.609 330.029C548.412 332.445 546.669 334.303 544.379 335.606C542.09 336.897 539.307 337.543 536.03 337.543ZM529.981 334.078H535.778C538.446 334.078 540.656 333.563 542.41 332.534C544.164 331.505 545.472 330.04 546.333 328.139C547.194 326.238 547.624 323.975 547.624 321.349C547.624 318.745 547.199 316.503 546.349 314.623C545.498 312.733 544.227 311.283 542.536 310.275C540.846 309.256 538.74 308.747 536.219 308.747H529.981V334.078Z" fill="#CFCFCF"/>
<path d="M583.299 337.543V305.281H594.578C596.825 305.281 598.679 305.67 600.139 306.447C601.598 307.214 602.685 308.248 603.399 309.55C604.114 310.842 604.471 312.276 604.471 313.851C604.471 315.237 604.224 316.382 603.73 317.285C603.247 318.188 602.607 318.902 601.808 319.427C601.021 319.953 600.165 320.341 599.241 320.593V320.908C600.228 320.971 601.22 321.318 602.218 321.948C603.216 322.578 604.051 323.481 604.723 324.657C605.395 325.834 605.731 327.272 605.731 328.974C605.731 330.591 605.363 332.045 604.628 333.337C603.893 334.629 602.733 335.653 601.147 336.409C599.561 337.165 597.497 337.543 594.956 337.543H583.299ZM587.206 334.078H594.956C597.508 334.078 599.319 333.584 600.391 332.597C601.472 331.599 602.013 330.391 602.013 328.974C602.013 327.881 601.735 326.873 601.178 325.949C600.622 325.014 599.829 324.269 598.8 323.712C597.77 323.145 596.552 322.862 595.145 322.862H587.206V334.078ZM587.206 319.459H594.452C595.628 319.459 596.689 319.228 597.634 318.766C598.59 318.304 599.346 317.653 599.902 316.812C600.469 315.972 600.753 314.985 600.753 313.851C600.753 312.433 600.259 311.231 599.272 310.244C598.285 309.246 596.72 308.747 594.578 308.747H587.206V319.459Z" fill="#CFCFCF"/>
<path d="M615.81 305.281H620.284L629.231 320.341H629.609L638.557 305.281H643.031L631.374 324.248V337.543H627.467V324.248L615.81 305.281Z" fill="#CFCFCF"/>
<path d="M682.411 337.543H670.486V305.281H682.395C685.682 305.281 688.512 305.927 690.886 307.219C693.27 308.5 695.108 310.349 696.399 312.764C697.691 315.169 698.337 318.046 698.337 321.397C698.337 324.757 697.691 327.645 696.399 330.061C695.118 332.476 693.286 334.33 690.902 335.621C688.518 336.903 685.687 337.543 682.411 337.543ZM678.284 330.895H682.112C683.918 330.895 685.446 330.591 686.696 329.982C687.956 329.362 688.906 328.359 689.547 326.973C690.198 325.576 690.524 323.717 690.524 321.397C690.524 319.076 690.198 317.227 689.547 315.852C688.896 314.465 687.935 313.468 686.664 312.859C685.404 312.239 683.85 311.929 682.001 311.929H678.284V330.895Z" fill="#CFCFCF"/>
<path d="M717.119 305.281V337.543H709.322V305.281H717.119Z" fill="#CFCFCF"/>
<path d="M741.553 305.281H749.24V327.587C749.23 329.677 748.731 331.505 747.744 333.069C746.757 334.624 745.391 335.831 743.648 336.693C741.915 337.554 739.909 337.984 737.63 337.984C735.614 337.984 733.782 337.632 732.133 336.929C730.494 336.225 729.187 335.133 728.21 333.652C727.244 332.171 726.766 330.276 726.777 327.965H734.543C734.574 328.795 734.732 329.504 735.016 330.092C735.31 330.67 735.714 331.106 736.228 331.4C736.743 331.694 737.357 331.841 738.072 331.841C738.817 331.841 739.447 331.683 739.962 331.368C740.477 331.043 740.865 330.565 741.128 329.935C741.401 329.304 741.542 328.522 741.553 327.587V305.281Z" fill="#CFCFCF"/>
<path d="M760.568 337.543V305.281H783.063V311.614H768.365V318.23H781.913V324.579H768.365V331.211H783.063V337.543H760.568Z" fill="#CFCFCF"/>
<path d="M793.323 311.614V305.281H820.591V311.614H810.808V337.543H803.121V311.614H793.323Z" fill="#CFCFCF"/>
<path d="M848.27 314.954C848.165 313.798 847.697 312.901 846.868 312.26C846.048 311.609 844.877 311.283 843.355 311.283C842.347 311.283 841.506 311.415 840.834 311.677C840.162 311.94 839.658 312.302 839.322 312.764C838.986 313.216 838.813 313.735 838.802 314.324C838.781 314.807 838.876 315.232 839.086 315.6C839.306 315.967 839.621 316.293 840.031 316.576C840.451 316.849 840.955 317.091 841.543 317.301C842.131 317.511 842.793 317.695 843.528 317.852L846.3 318.482C847.897 318.829 849.304 319.291 850.522 319.869C851.751 320.446 852.78 321.134 853.61 321.932C854.45 322.73 855.085 323.649 855.516 324.689C855.946 325.729 856.167 326.894 856.177 328.186C856.167 330.223 855.652 331.972 854.634 333.432C853.615 334.891 852.15 336.01 850.239 336.787C848.338 337.564 846.043 337.953 843.355 337.953C840.656 337.953 838.303 337.548 836.297 336.74C834.292 335.931 832.732 334.702 831.619 333.054C830.506 331.405 829.933 329.32 829.902 326.8H837.369C837.432 327.839 837.71 328.706 838.204 329.399C838.697 330.092 839.374 330.617 840.236 330.974C841.107 331.331 842.115 331.51 843.26 331.51C844.31 331.51 845.203 331.368 845.938 331.085C846.684 330.801 847.256 330.407 847.655 329.903C848.054 329.399 848.259 328.821 848.27 328.17C848.259 327.561 848.07 327.041 847.702 326.611C847.335 326.17 846.768 325.792 846.001 325.477C845.245 325.151 844.279 324.852 843.103 324.579L839.732 323.791C836.938 323.15 834.738 322.116 833.131 320.688C831.524 319.249 830.726 317.306 830.737 314.859C830.726 312.864 831.262 311.115 832.343 309.613C833.425 308.112 834.922 306.941 836.833 306.101C838.744 305.26 840.923 304.84 843.37 304.84C845.87 304.84 848.039 305.266 849.876 306.116C851.725 306.957 853.158 308.138 854.177 309.661C855.196 311.184 855.715 312.948 855.736 314.954H848.27Z" fill="#CFCFCF"/>
<path d="M890.308 305.281V337.543H882.511V305.281H890.308Z" fill="#CFCFCF"/>
<path d="M929.093 305.281V337.543H922.476L909.638 318.923H909.433V337.543H901.636V305.281H908.346L921.043 323.87H921.311V305.281H929.093Z" fill="#CFCFCF"/>
<path d="M969.712 316.97H961.836C961.731 316.161 961.516 315.432 961.19 314.78C960.864 314.129 960.434 313.573 959.898 313.111C959.363 312.649 958.727 312.297 957.992 312.055C957.268 311.803 956.464 311.677 955.582 311.677C954.017 311.677 952.668 312.06 951.534 312.827C950.41 313.594 949.543 314.702 948.934 316.151C948.336 317.6 948.036 319.354 948.036 321.412C948.036 323.555 948.341 325.351 948.95 326.8C949.57 328.239 950.436 329.325 951.549 330.061C952.673 330.785 954.001 331.148 955.535 331.148C956.396 331.148 957.178 331.037 957.882 330.817C958.596 330.596 959.221 330.276 959.756 329.856C960.303 329.425 960.749 328.905 961.095 328.296C961.453 327.677 961.699 326.978 961.836 326.201L969.712 326.248C969.576 327.677 969.161 329.084 968.468 330.47C967.785 331.856 966.845 333.122 965.648 334.267C964.451 335.401 962.991 336.304 961.269 336.976C959.557 337.648 957.593 337.984 955.377 337.984C952.458 337.984 949.843 337.344 947.532 336.062C945.232 334.771 943.416 332.891 942.082 330.423C940.748 327.955 940.081 324.951 940.081 321.412C940.081 317.863 940.759 314.854 942.113 312.386C943.468 309.918 945.301 308.043 947.611 306.762C949.921 305.481 952.51 304.84 955.377 304.84C957.331 304.84 959.137 305.113 960.796 305.66C962.455 306.195 963.915 306.983 965.175 308.022C966.436 309.052 967.46 310.317 968.247 311.819C969.035 313.321 969.523 315.038 969.712 316.97Z" fill="#CFCFCF"/>
<path d="M984.938 338C983.804 338 982.833 337.601 982.024 336.803C981.226 336.005 980.832 335.038 980.843 333.904C980.832 332.791 981.226 331.841 982.024 331.053C982.833 330.255 983.804 329.856 984.938 329.856C986.01 329.856 986.955 330.255 987.774 331.053C988.604 331.841 989.024 332.791 989.034 333.904C989.024 334.66 988.824 335.348 988.436 335.968C988.057 336.587 987.559 337.081 986.939 337.449C986.33 337.816 985.663 338 984.938 338Z" fill="#CFCFCF"/>
<defs>
<filter id="filter0_i_884_314" x="9" y="100.344" width="126.915" height="154.232" filterUnits="userSpaceOnUse" color-interpolation-filters="sRGB">
<feFlood flood-opacity="0" result="BackgroundImageFix"/>
<feBlend mode="normal" in="SourceGraphic" in2="BackgroundImageFix" result="shape"/>
<feColorMatrix in="SourceAlpha" type="matrix" values="0 0 0 0 0 0 0 0 0 0 0 0 0 0 0 0 0 0 127 0" result="hardAlpha"/>
<feOffset dx="-3" dy="2"/>
<feGaussianBlur stdDeviation="1.5"/>
<feComposite in2="hardAlpha" operator="arithmetic" k2="-1" k3="1"/>
<feColorMatrix type="matrix" values="0 0 0 0 0 0 0 0 0 0 0 0 0 0 0 0 0 0 0.35 0"/>
<feBlend mode="normal" in2="shape" result="effect1_innerShadow_884_314"/>
</filter>
<filter id="filter1_i_884_314" x="189.261" y="100.344" width="133.516" height="154.232" filterUnits="userSpaceOnUse" color-interpolation-filters="sRGB">
<feFlood flood-opacity="0" result="BackgroundImageFix"/>
<feBlend mode="normal" in="SourceGraphic" in2="BackgroundImageFix" result="shape"/>
<feColorMatrix in="SourceAlpha" type="matrix" values="0 0 0 0 0 0 0 0 0 0 0 0 0 0 0 0 0 0 127 0" result="hardAlpha"/>
<feOffset dx="-3" dy="2"/>
<feGaussianBlur stdDeviation="1.5"/>
<feComposite in2="hardAlpha" operator="arithmetic" k2="-1" k3="1"/>
<feColorMatrix type="matrix" values="0 0 0 0 0 0 0 0 0 0 0 0 0 0 0 0 0 0 0.35 0"/>
<feBlend mode="normal" in2="shape" result="effect1_innerShadow_884_314"/>
</filter>
<filter id="filter2_i_884_314" x="370.608" y="100.344" width="47.0737" height="154.23" filterUnits="userSpaceOnUse" color-interpolation-filters="sRGB">
<feFlood flood-opacity="0" result="BackgroundImageFix"/>
<feBlend mode="normal" in="SourceGraphic" in2="BackgroundImageFix" result="shape"/>
<feColorMatrix in="SourceAlpha" type="matrix" values="0 0 0 0 0 0 0 0 0 0 0 0 0 0 0 0 0 0 127 0" result="hardAlpha"/>
<feOffset dx="-3" dy="2"/>
<feGaussianBlur stdDeviation="1.5"/>
<feComposite in2="hardAlpha" operator="arithmetic" k2="-1" k3="1"/>
<feColorMatrix type="matrix" values="0 0 0 0 0 0 0 0 0 0 0 0 0 0 0 0 0 0 0.35 0"/>
<feBlend mode="normal" in2="shape" result="effect1_innerShadow_884_314"/>
</filter>
<filter id="filter3_i_884_314" x="478.198" y="100.344" width="139.903" height="154.232" filterUnits="userSpaceOnUse" color-interpolation-filters="sRGB">
<feFlood flood-opacity="0" result="BackgroundImageFix"/>
<feBlend mode="normal" in="SourceGraphic" in2="BackgroundImageFix" result="shape"/>
<feColorMatrix in="SourceAlpha" type="matrix" values="0 0 0 0 0 0 0 0 0 0 0 0 0 0 0 0 0 0 127 0" result="hardAlpha"/>
<feOffset dx="-3" dy="2"/>
<feGaussianBlur stdDeviation="1.5"/>
<feComposite in2="hardAlpha" operator="arithmetic" k2="-1" k3="1"/>
<feColorMatrix type="matrix" values="0 0 0 0 0 0 0 0 0 0 0 0 0 0 0 0 0 0 0.35 0"/>
<feBlend mode="normal" in2="shape" result="effect1_innerShadow_884_314"/>
</filter>
<filter id="filter4_i_884_314" x="663.064" y="98" width="157.361" height="159.129" filterUnits="userSpaceOnUse" color-interpolation-filters="sRGB">
<feFlood flood-opacity="0" result="BackgroundImageFix"/>
<feBlend mode="normal" in="SourceGraphic" in2="BackgroundImageFix" result="shape"/>
<feColorMatrix in="SourceAlpha" type="matrix" values="0 0 0 0 0 0 0 0 0 0 0 0 0 0 0 0 0 0 127 0" result="hardAlpha"/>
<feOffset dx="-3" dy="2"/>
<feGaussianBlur stdDeviation="1.5"/>
<feComposite in2="hardAlpha" operator="arithmetic" k2="-1" k3="1"/>
<feColorMatrix type="matrix" values="0 0 0 0 0 0 0 0 0 0 0 0 0 0 0 0 0 0 0.35 0"/>
<feBlend mode="normal" in2="shape" result="effect1_innerShadow_884_314"/>
</filter>
<filter id="filter5_i_884_314" x="873.771" y="100.344" width="111.586" height="154.234" filterUnits="userSpaceOnUse" color-interpolation-filters="sRGB">
<feFlood flood-opacity="0" result="BackgroundImageFix"/>
<feBlend mode="normal" in="SourceGraphic" in2="BackgroundImageFix" result="shape"/>
<feColorMatrix in="SourceAlpha" type="matrix" values="0 0 0 0 0 0 0 0 0 0 0 0 0 0 0 0 0 0 127 0" result="hardAlpha"/>
<feOffset dx="-3" dy="2"/>
<feGaussianBlur stdDeviation="1.5"/>
<feComposite in2="hardAlpha" operator="arithmetic" k2="-1" k3="1"/>
<feColorMatrix type="matrix" values="0 0 0 0 0 0 0 0 0 0 0 0 0 0 0 0 0 0 0.35 0"/>
<feBlend mode="normal" in2="shape" result="effect1_innerShadow_884_314"/>
</filter>
<linearGradient id="paint0_linear_884_314" x1="117.687" y1="100.344" x2="117.687" y2="126.57" gradientUnits="userSpaceOnUse">
<stop stop-color="#FF9900"/>
<stop offset="1" stop-color="#FF6109" stop-opacity="0.57"/>
</linearGradient>
<linearGradient id="paint1_linear_884_314" x1="348.739" y1="226.349" x2="348.739" y2="252.574" gradientUnits="userSpaceOnUse">
<stop stop-color="#FF9900"/>
<stop offset="1" stop-color="#FF6109" stop-opacity="0.57"/>
</linearGradient>
<linearGradient id="paint2_linear_884_314" x1="463.469" y1="100.344" x2="463.469" y2="126.57" gradientUnits="userSpaceOnUse">
<stop stop-color="#FF9900"/>
<stop offset="1" stop-color="#FF6109" stop-opacity="0.57"/>
</linearGradient>
<linearGradient id="paint3_linear_884_314" x1="644.375" y1="226.349" x2="644.375" y2="252.574" gradientUnits="userSpaceOnUse">
<stop stop-color="#FF9900"/>
<stop offset="1" stop-color="#FF6109" stop-opacity="0.57"/>
</linearGradient>
<linearGradient id="paint4_linear_884_314" x1="838.137" y1="100.344" x2="838.137" y2="126.57" gradientUnits="userSpaceOnUse">
<stop stop-color="#FF9900"/>
<stop offset="1" stop-color="#FF6109" stop-opacity="0.57"/>
</linearGradient>
<radialGradient id="paint5_radial_884_314" cx="0" cy="0" r="1" gradientUnits="userSpaceOnUse" gradientTransform="translate(117.68 113.455) scale(62.5046 10.9905)">
<stop offset="0.2254" stop-color="#FFA217"/>
<stop offset="0.5444" stop-color="#FFAA2C" stop-opacity="0.44"/>
<stop offset="0.6859" stop-color="#FCAD15" stop-opacity="0.23"/>
<stop offset="0.8568" stop-color="#FFB876" stop-opacity="0.07"/>
<stop offset="1" stop-color="#FF9A62" stop-opacity="0"/>
</radialGradient>
<radialGradient id="paint6_radial_884_314" cx="0" cy="0" r="1" gradientUnits="userSpaceOnUse" gradientTransform="translate(348.733 239.46) scale(57.7845 10.9905)">
<stop offset="0.2254" stop-color="#FFA217"/>
<stop offset="0.5444" stop-color="#FFAA2C" stop-opacity="0.44"/>
<stop offset="0.6859" stop-color="#FCAD15" stop-opacity="0.23"/>
<stop offset="0.8568" stop-color="#FFB876" stop-opacity="0.07"/>
<stop offset="1" stop-color="#FF9A62" stop-opacity="0"/>
</radialGradient>
<radialGradient id="paint7_radial_884_314" cx="0" cy="0" r="1" gradientUnits="userSpaceOnUse" gradientTransform="translate(463.462 113.455) scale(62.5046 10.9905)">
<stop offset="0.2254" stop-color="#FFA217"/>
<stop offset="0.5444" stop-color="#FFAA2C" stop-opacity="0.44"/>
<stop offset="0.6859" stop-color="#FCAD15" stop-opacity="0.23"/>
<stop offset="0.8568" stop-color="#FFB876" stop-opacity="0.07"/>
<stop offset="1" stop-color="#FF9A62" stop-opacity="0"/>
</radialGradient>
<radialGradient id="paint8_radial_884_314" cx="0" cy="0" r="1" gradientUnits="userSpaceOnUse" gradientTransform="translate(644.366 239.46) scale(82.8681 10.9905)">
<stop offset="0.2254" stop-color="#FFA217"/>
<stop offset="0.5444" stop-color="#FFAA2C" stop-opacity="0.44"/>
<stop offset="0.6859" stop-color="#FCAD15" stop-opacity="0.23"/>
<stop offset="0.8568" stop-color="#FFB876" stop-opacity="0.07"/>
<stop offset="1" stop-color="#FF9A62" stop-opacity="0"/>
</radialGradient>
<radialGradient id="paint9_radial_884_314" cx="0" cy="0" r="1" gradientUnits="userSpaceOnUse" gradientTransform="translate(838.13 113.455) scale(62.5046 10.9905)">
<stop offset="0.2254" stop-color="#FFA217"/>
<stop offset="0.5444" stop-color="#FFAA2C" stop-opacity="0.44"/>
<stop offset="0.6859" stop-color="#FCAD15" stop-opacity="0.23"/>
<stop offset="0.8568" stop-color="#FFB876" stop-opacity="0.07"/>
<stop offset="1" stop-color="#FF9A62" stop-opacity="0"/>
</radialGradient>
</defs>
</svg>
